<svg width="323" height="80" viewBox="0 0 323 80" fill="none" xmlns="http://www.w3.org/2000/svg">
<path opacity="0.56" d="M112.83 23H110.614L117.023 5.54545H119.205L125.614 23H123.398L118.182 8.30682H118.045L112.83 23ZM113.648 16.1818H122.58V18.0568H113.648V16.1818ZM128.332 23V5.54545H130.344V11.9886H130.514C130.662 11.7614 130.866 11.4716 131.128 11.1193C131.395 10.7614 131.776 10.4432 132.27 10.1648C132.77 9.88068 133.446 9.73864 134.298 9.73864C135.401 9.73864 136.372 10.0142 137.213 10.5653C138.054 11.1165 138.71 11.8977 139.182 12.9091C139.653 13.9205 139.889 15.1136 139.889 16.4886C139.889 17.875 139.653 19.0767 139.182 20.0938C138.71 21.1051 138.057 21.8892 137.222 22.446C136.386 22.9972 135.423 23.2727 134.332 23.2727C133.491 23.2727 132.818 23.1335 132.312 22.8551C131.807 22.571 131.418 22.25 131.145 21.892C130.872 21.5284 130.662 21.2273 130.514 20.9886H130.276V23H128.332ZM130.31 16.4545C130.31 17.4432 130.455 18.3153 130.744 19.071C131.034 19.821 131.457 20.4091 132.014 20.8352C132.571 21.2557 133.253 21.4659 134.06 21.4659C134.901 21.4659 135.602 21.2443 136.165 20.8011C136.733 20.3523 137.159 19.75 137.443 18.9943C137.733 18.233 137.878 17.3864 137.878 16.4545C137.878 15.5341 137.736 14.7045 137.452 13.9659C137.173 13.2216 136.75 12.6335 136.182 12.2017C135.619 11.7642 134.912 11.5455 134.06 11.5455C133.241 11.5455 132.554 11.7528 131.997 12.1676C131.44 12.5767 131.02 13.1506 130.736 13.8892C130.452 14.6222 130.31 15.4773 130.31 16.4545ZM148.284 23.2727C147.102 23.2727 146.065 22.9915 145.173 22.429C144.287 21.8665 143.594 21.0795 143.094 20.0682C142.599 19.0568 142.352 17.875 142.352 16.5227C142.352 15.1591 142.599 13.9687 143.094 12.9517C143.594 11.9347 144.287 11.1449 145.173 10.5824C146.065 10.0199 147.102 9.73864 148.284 9.73864C149.466 9.73864 150.5 10.0199 151.386 10.5824C152.278 11.1449 152.972 11.9347 153.466 12.9517C153.966 13.9687 154.216 15.1591 154.216 16.5227C154.216 17.875 153.966 19.0568 153.466 20.0682C152.972 21.0795 152.278 21.8665 151.386 22.429C150.5 22.9915 149.466 23.2727 148.284 23.2727ZM148.284 21.4659C149.182 21.4659 149.92 21.2358 150.5 20.7756C151.08 20.3153 151.509 19.7102 151.787 18.9602C152.065 18.2102 152.205 17.3977 152.205 16.5227C152.205 15.6477 152.065 14.8324 151.787 14.0767C151.509 13.321 151.08 12.7102 150.5 12.2443C149.92 11.7784 149.182 11.5455 148.284 11.5455C147.386 11.5455 146.648 11.7784 146.068 12.2443C145.489 12.7102 145.06 13.321 144.781 14.0767C144.503 14.8324 144.364 15.6477 144.364 16.5227C144.364 17.3977 144.503 18.2102 144.781 18.9602C145.06 19.7102 145.489 20.3153 146.068 20.7756C146.648 21.2358 147.386 21.4659 148.284 21.4659ZM165.536 17.6477V9.90909H167.548V23H165.536V20.7841H165.4C165.093 21.4489 164.616 22.0142 163.968 22.4801C163.32 22.9403 162.502 23.1705 161.513 23.1705C160.695 23.1705 159.968 22.9915 159.332 22.6335C158.695 22.2699 158.195 21.7244 157.832 20.9972C157.468 20.2642 157.286 19.3409 157.286 18.2273V9.90909H159.298V18.0909C159.298 19.0455 159.565 19.8068 160.099 20.375C160.638 20.9432 161.326 21.2273 162.161 21.2273C162.661 21.2273 163.17 21.0994 163.687 20.8438C164.21 20.5881 164.647 20.196 164.999 19.6676C165.357 19.1392 165.536 18.4659 165.536 17.6477ZM176.925 9.90909V11.6136H170.141V9.90909H176.925ZM172.118 6.77273H174.129V19.25C174.129 19.8182 174.212 20.2443 174.376 20.5284C174.547 20.8068 174.763 20.9943 175.024 21.0909C175.291 21.1818 175.572 21.2273 175.868 21.2273C176.089 21.2273 176.271 21.2159 176.413 21.1932C176.555 21.1648 176.669 21.142 176.754 21.125L177.163 22.9318C177.027 22.983 176.837 23.0341 176.592 23.0852C176.348 23.142 176.038 23.1705 175.663 23.1705C175.095 23.1705 174.538 23.0483 173.993 22.804C173.453 22.5597 173.004 22.1875 172.646 21.6875C172.294 21.1875 172.118 20.5568 172.118 19.7955V6.77273ZM194.95 17.6477V9.90909H196.962V23H194.95V20.7841H194.814C194.507 21.4489 194.03 22.0142 193.382 22.4801C192.734 22.9403 191.916 23.1705 190.928 23.1705C190.109 23.1705 189.382 22.9915 188.746 22.6335C188.109 22.2699 187.609 21.7244 187.246 20.9972C186.882 20.2642 186.7 19.3409 186.7 18.2273V9.90909H188.712V18.0909C188.712 19.0455 188.979 19.8068 189.513 20.375C190.053 20.9432 190.74 21.2273 191.575 21.2273C192.075 21.2273 192.584 21.0994 193.101 20.8438C193.624 20.5881 194.061 20.196 194.413 19.6676C194.771 19.1392 194.95 18.4659 194.95 17.6477ZM209.918 12.8409L208.112 13.3523C207.998 13.0511 207.83 12.7585 207.609 12.4744C207.393 12.1847 207.097 11.946 206.722 11.7585C206.347 11.571 205.867 11.4773 205.282 11.4773C204.481 11.4773 203.813 11.6619 203.279 12.0312C202.751 12.3949 202.487 12.858 202.487 13.4205C202.487 13.9205 202.668 14.3153 203.032 14.6051C203.396 14.8949 203.964 15.1364 204.737 15.3295L206.68 15.8068C207.85 16.0909 208.722 16.5256 209.296 17.1108C209.87 17.6903 210.157 18.4375 210.157 19.3523C210.157 20.1023 209.941 20.7727 209.509 21.3636C209.083 21.9545 208.487 22.4205 207.719 22.7614C206.952 23.1023 206.06 23.2727 205.043 23.2727C203.708 23.2727 202.603 22.983 201.728 22.4034C200.853 21.8239 200.299 20.9773 200.066 19.8636L201.975 19.3864C202.157 20.0909 202.501 20.6193 203.006 20.9716C203.518 21.3239 204.185 21.5 205.009 21.5C205.947 21.5 206.691 21.3011 207.242 20.9034C207.799 20.5 208.077 20.017 208.077 19.4545C208.077 19 207.918 18.6193 207.6 18.3125C207.282 18 206.793 17.767 206.134 17.6136L203.952 17.1023C202.754 16.8182 201.873 16.3778 201.31 15.7812C200.754 15.179 200.475 14.4261 200.475 13.5227C200.475 12.7841 200.683 12.1307 201.097 11.5625C201.518 10.9943 202.089 10.5483 202.81 10.2244C203.538 9.90057 204.362 9.73864 205.282 9.73864C206.577 9.73864 207.594 10.0227 208.333 10.5909C209.077 11.1591 209.606 11.9091 209.918 12.8409Z" fill="#282A3A"/>
<path d="M32.9879 47.512V48.232C32.5319 48.328 32.0279 48.604 31.4759 49.06C30.9239 49.492 30.4799 50.26 30.1439 51.364L23.3399 73.18C23.2919 73.18 23.2439 73.18 23.1959 73.18C23.1479 73.18 23.0999 73.18 23.0519 73.18C23.0039 73.18 22.9559 73.18 22.9079 73.18C22.8599 73.18 22.8119 73.18 22.7639 73.18L15.1319 50.536C14.8199 49.6 14.4719 48.988 14.0879 48.7C13.7039 48.412 13.3439 48.256 13.0079 48.232V47.512C13.4399 47.536 13.9799 47.56 14.6279 47.584C15.2759 47.608 15.8999 47.62 16.4999 47.62C17.4359 47.62 18.3119 47.608 19.1279 47.584C19.9439 47.56 20.6039 47.536 21.1079 47.512V48.232C20.3879 48.256 19.8119 48.328 19.3799 48.448C18.9719 48.568 18.7319 48.832 18.6599 49.24C18.6119 49.648 18.7319 50.32 19.0199 51.256L24.3839 67.852L23.8799 68.284L28.6319 53.344C29.0639 52.024 29.2559 51.004 29.2079 50.284C29.1839 49.54 28.9199 49.024 28.4159 48.736C27.9119 48.424 27.1559 48.256 26.1479 48.232V47.512C26.8439 47.536 27.5519 47.56 28.2719 47.584C28.9919 47.608 29.6639 47.62 30.2879 47.62C30.9119 47.62 31.4279 47.608 31.8359 47.584C32.2439 47.56 32.6279 47.536 32.9879 47.512ZM7.82394 47.512V48.232C7.19994 48.28 6.74394 48.4 6.45594 48.592C6.19194 48.784 6.05994 49.096 6.05994 49.528C6.08394 49.936 6.21594 50.512 6.45594 51.256L12.0359 68.284L11.1359 69.184L16.1759 53.092L16.7159 53.956L10.7759 73.18C10.7279 73.18 10.6799 73.18 10.6319 73.18C10.5839 73.18 10.5359 73.18 10.4879 73.18C10.4399 73.18 10.3919 73.18 10.3439 73.18C10.2959 73.18 10.2479 73.18 10.1999 73.18L2.56794 50.536C2.25594 49.6 1.85994 48.988 1.37994 48.7C0.899938 48.412 0.467938 48.256 0.0839375 48.232V47.512C0.563938 47.536 1.15194 47.56 1.84794 47.584C2.56794 47.608 3.26394 47.62 3.93594 47.62C4.72794 47.62 5.45994 47.608 6.13194 47.584C6.82794 47.56 7.39194 47.536 7.82394 47.512ZM39.3757 44.812V58.276C39.9997 56.644 40.8637 55.516 41.9677 54.892C43.0957 54.268 44.2717 53.956 45.4957 53.956C46.4077 53.956 47.1637 54.076 47.7637 54.316C48.3877 54.556 48.9037 54.892 49.3117 55.324C49.7677 55.804 50.0917 56.404 50.2837 57.124C50.4757 57.844 50.5717 58.816 50.5717 60.04V69.652C50.5717 70.66 50.7757 71.344 51.1837 71.704C51.6157 72.064 52.3237 72.244 53.3077 72.244V73C52.8997 72.976 52.2757 72.952 51.4357 72.928C50.5957 72.88 49.7797 72.856 48.9877 72.856C48.1957 72.856 47.4157 72.88 46.6477 72.928C45.9037 72.952 45.3397 72.976 44.9557 73V72.244C45.8197 72.244 46.4317 72.064 46.7917 71.704C47.1517 71.344 47.3317 70.66 47.3317 69.652V59.248C47.3317 58.504 47.2717 57.82 47.1517 57.196C47.0317 56.572 46.7557 56.068 46.3237 55.684C45.9157 55.3 45.2797 55.108 44.4157 55.108C43.4317 55.108 42.5557 55.384 41.7877 55.936C41.0437 56.488 40.4557 57.256 40.0237 58.24C39.5917 59.224 39.3757 60.352 39.3757 61.624V69.652C39.3757 70.66 39.5557 71.344 39.9157 71.704C40.2757 72.064 40.8877 72.244 41.7517 72.244V73C41.3677 72.976 40.7917 72.952 40.0237 72.928C39.2797 72.88 38.5117 72.856 37.7197 72.856C36.9277 72.856 36.1117 72.88 35.2717 72.928C34.4317 72.952 33.8077 72.976 33.3997 73V72.244C34.3837 72.244 35.0797 72.064 35.4877 71.704C35.9197 71.344 36.1357 70.66 36.1357 69.652V49.132C36.1357 48.052 35.9437 47.26 35.5597 46.756C35.1757 46.228 34.4557 45.964 33.3997 45.964V45.208C34.1677 45.28 34.9117 45.316 35.6317 45.316C36.3277 45.316 36.9877 45.28 37.6117 45.208C38.2597 45.112 38.8477 44.98 39.3757 44.812ZM71.3113 54.46V55.18C70.8553 55.228 70.4353 55.432 70.0513 55.792C69.6673 56.152 69.3073 56.788 68.9713 57.7L63.0673 73.18H62.4553L55.8313 57.232C55.3753 56.296 54.9193 55.732 54.4633 55.54C54.0313 55.324 53.6713 55.216 53.3833 55.216V54.46C53.9113 54.532 54.4633 54.592 55.0393 54.64C55.6153 54.664 56.2393 54.676 56.9113 54.676C57.6553 54.676 58.4353 54.652 59.2513 54.604C60.0913 54.556 60.8713 54.508 61.5913 54.46V55.216C60.9913 55.216 60.4513 55.264 59.9713 55.36C59.5153 55.432 59.2273 55.684 59.1073 56.116C58.9873 56.524 59.1313 57.232 59.5393 58.24L63.9673 69.22L63.7513 69.292L67.8553 58.564C68.1673 57.772 68.2873 57.148 68.2153 56.692C68.1673 56.212 67.9273 55.852 67.4953 55.612C67.0633 55.372 66.4153 55.228 65.5513 55.18V54.46C65.9833 54.484 66.3553 54.508 66.6673 54.532C66.9793 54.532 67.2793 54.544 67.5673 54.568C67.8793 54.568 68.2153 54.568 68.5753 54.568C69.1273 54.568 69.6193 54.556 70.0513 54.532C70.5073 54.508 70.9273 54.484 71.3113 54.46ZM63.0673 73.18L61.8433 76.312C61.6033 76.912 61.3513 77.416 61.0873 77.824C60.8473 78.232 60.5833 78.568 60.2953 78.832C59.9113 79.192 59.4553 79.432 58.9273 79.552C58.3993 79.696 57.9193 79.768 57.4873 79.768C57.0313 79.768 56.6113 79.684 56.2273 79.516C55.8673 79.348 55.5793 79.096 55.3633 78.76C55.1473 78.448 55.0393 78.064 55.0393 77.608C55.0393 77.032 55.2073 76.564 55.5433 76.204C55.8793 75.868 56.3473 75.7 56.9473 75.7C57.4513 75.7 57.8833 75.844 58.2433 76.132C58.6033 76.42 58.7833 76.84 58.7833 77.392C58.7833 77.8 58.6873 78.136 58.4953 78.4C58.3033 78.664 58.0753 78.868 57.8113 79.012C57.8593 79.036 57.8953 79.048 57.9193 79.048C57.9673 79.048 58.0033 79.048 58.0273 79.048C58.6753 79.048 59.2513 78.82 59.7553 78.364C60.2593 77.932 60.7033 77.224 61.0873 76.24L62.3833 72.892L63.0673 73.18ZM86.5824 54.46V55.216C85.9824 55.216 85.4544 55.264 84.9984 55.36C84.5424 55.432 84.2424 55.672 84.0984 56.08C83.9544 56.488 84.0624 57.208 84.4224 58.24L88.1664 68.968L87.9144 68.932L93.2064 54.316L93.9264 54.604L87.3384 73.18C87.2424 73.18 87.1464 73.18 87.0504 73.18C86.9544 73.18 86.8464 73.18 86.7264 73.18L80.8224 57.232C80.4384 56.272 80.0544 55.696 79.6704 55.504C79.3104 55.312 78.9984 55.216 78.7344 55.216V54.46C79.2144 54.532 79.7064 54.592 80.2104 54.64C80.7384 54.664 81.3024 54.676 81.9024 54.676C82.6464 54.676 83.4264 54.652 84.2424 54.604C85.0824 54.556 85.8624 54.508 86.5824 54.46ZM106.346 54.46V55.18C105.89 55.228 105.458 55.432 105.05 55.792C104.666 56.128 104.318 56.764 104.006 57.7L98.7864 73.18C98.6904 73.18 98.5944 73.18 98.4984 73.18C98.4024 73.18 98.2944 73.18 98.1744 73.18L92.3784 58.456L93.2064 54.316C93.3504 54.316 93.4824 54.316 93.6024 54.316C93.7464 54.316 93.8904 54.316 94.0344 54.316L99.6504 69.184L99.3624 69.4L102.926 58.564C103.19 57.748 103.286 57.112 103.214 56.656C103.166 56.176 102.926 55.828 102.494 55.612C102.086 55.372 101.45 55.228 100.586 55.18V54.46C101.018 54.484 101.39 54.508 101.702 54.532C102.014 54.532 102.314 54.544 102.602 54.568C102.914 54.568 103.25 54.568 103.61 54.568C104.162 54.568 104.654 54.556 105.086 54.532C105.542 54.508 105.962 54.484 106.346 54.46ZM115.913 53.956C118.025 53.956 119.669 54.604 120.845 55.9C122.045 57.172 122.645 59.164 122.645 61.876H109.937L109.901 61.192H119.189C119.237 60.016 119.141 58.936 118.901 57.952C118.661 56.944 118.277 56.14 117.749 55.54C117.245 54.94 116.585 54.64 115.769 54.64C114.665 54.64 113.681 55.192 112.817 56.296C111.977 57.4 111.473 59.152 111.305 61.552L111.413 61.696C111.365 62.056 111.329 62.452 111.305 62.884C111.281 63.316 111.269 63.748 111.269 64.18C111.269 65.812 111.533 67.216 112.061 68.392C112.589 69.568 113.273 70.468 114.113 71.092C114.977 71.692 115.865 71.992 116.777 71.992C117.497 71.992 118.181 71.884 118.829 71.668C119.477 71.428 120.077 71.044 120.629 70.516C121.181 69.988 121.661 69.28 122.069 68.392L122.789 68.68C122.525 69.472 122.093 70.24 121.493 70.984C120.893 71.728 120.137 72.34 119.225 72.82C118.313 73.276 117.257 73.504 116.057 73.504C114.329 73.504 112.841 73.108 111.593 72.316C110.369 71.524 109.421 70.432 108.749 69.04C108.101 67.624 107.777 66.004 107.777 64.18C107.777 62.068 108.113 60.256 108.785 58.744C109.457 57.208 110.405 56.032 111.629 55.216C112.853 54.376 114.281 53.956 115.913 53.956ZM139.453 73.252C138.469 73.252 137.617 73.072 136.897 72.712C136.177 72.328 135.625 71.8 135.241 71.128C134.881 70.456 134.701 69.676 134.701 68.788C134.701 67.732 134.941 66.868 135.421 66.196C135.925 65.524 136.561 64.984 137.329 64.576C138.097 64.168 138.901 63.832 139.741 63.568C140.605 63.28 141.421 63.016 142.189 62.776C142.957 62.512 143.581 62.212 144.061 61.876C144.565 61.54 144.817 61.096 144.817 60.544V58.312C144.817 57.304 144.661 56.536 144.349 56.008C144.061 55.48 143.665 55.132 143.161 54.964C142.657 54.772 142.093 54.676 141.469 54.676C140.869 54.676 140.221 54.76 139.525 54.928C138.853 55.096 138.313 55.444 137.905 55.972C138.361 56.068 138.757 56.308 139.093 56.692C139.429 57.076 139.597 57.568 139.597 58.168C139.597 58.768 139.405 59.248 139.021 59.608C138.637 59.944 138.145 60.112 137.545 60.112C136.849 60.112 136.333 59.896 135.997 59.464C135.685 59.008 135.529 58.504 135.529 57.952C135.529 57.328 135.685 56.824 135.997 56.44C136.309 56.056 136.705 55.696 137.185 55.36C137.737 54.976 138.445 54.652 139.309 54.388C140.197 54.1 141.193 53.956 142.297 53.956C143.281 53.956 144.121 54.076 144.817 54.316C145.513 54.532 146.089 54.856 146.545 55.288C147.169 55.864 147.577 56.572 147.769 57.412C147.961 58.228 148.057 59.212 148.057 60.364V70.372C148.057 70.972 148.141 71.404 148.309 71.668C148.501 71.932 148.789 72.064 149.173 72.064C149.437 72.064 149.689 72.004 149.929 71.884C150.169 71.764 150.457 71.572 150.793 71.308L151.189 71.92C150.685 72.304 150.205 72.628 149.749 72.892C149.293 73.132 148.681 73.252 147.913 73.252C147.217 73.252 146.641 73.132 146.185 72.892C145.729 72.652 145.381 72.304 145.141 71.848C144.925 71.368 144.817 70.768 144.817 70.048C144.169 71.128 143.389 71.932 142.477 72.46C141.589 72.988 140.581 73.252 139.453 73.252ZM140.749 71.812C141.541 71.812 142.273 71.584 142.945 71.128C143.641 70.672 144.265 69.988 144.817 69.076V62.02C144.529 62.428 144.109 62.776 143.557 63.064C143.005 63.328 142.405 63.604 141.757 63.892C141.109 64.156 140.485 64.48 139.885 64.864C139.309 65.224 138.829 65.704 138.445 66.304C138.061 66.904 137.869 67.684 137.869 68.644C137.869 69.604 138.121 70.372 138.625 70.948C139.153 71.524 139.861 71.812 140.749 71.812ZM163.467 53.956C164.115 53.956 164.679 54.088 165.159 54.352C165.663 54.616 166.047 54.964 166.311 55.396C166.599 55.804 166.743 56.272 166.743 56.8C166.743 57.4 166.551 57.928 166.167 58.384C165.807 58.84 165.315 59.068 164.691 59.068C164.187 59.068 163.743 58.912 163.359 58.6C162.975 58.264 162.783 57.796 162.783 57.196C162.783 56.74 162.903 56.356 163.143 56.044C163.407 55.708 163.695 55.444 164.007 55.252C163.839 55.012 163.587 54.892 163.251 54.892C162.507 54.892 161.823 55.12 161.199 55.576C160.575 56.008 160.047 56.572 159.615 57.268C159.183 57.964 158.847 58.708 158.607 59.5C158.367 60.268 158.247 60.988 158.247 61.66V69.292C158.247 70.468 158.583 71.26 159.255 71.668C159.951 72.052 160.887 72.244 162.063 72.244V73C161.511 72.976 160.731 72.952 159.723 72.928C158.715 72.88 157.647 72.856 156.519 72.856C155.703 72.856 154.887 72.88 154.071 72.928C153.279 72.952 152.679 72.976 152.271 73V72.244C153.255 72.244 153.951 72.064 154.359 71.704C154.791 71.344 155.007 70.66 155.007 69.652V58.384C155.007 57.304 154.815 56.512 154.431 56.008C154.047 55.48 153.327 55.216 152.271 55.216V54.46C153.039 54.532 153.783 54.568 154.503 54.568C155.199 54.568 155.859 54.532 156.483 54.46C157.131 54.364 157.719 54.232 158.247 54.064V58.564C158.511 57.868 158.883 57.172 159.363 56.476C159.867 55.756 160.467 55.156 161.163 54.676C161.859 54.196 162.627 53.956 163.467 53.956ZM176.347 53.956C178.459 53.956 180.103 54.604 181.279 55.9C182.479 57.172 183.079 59.164 183.079 61.876H170.371L170.335 61.192H179.623C179.671 60.016 179.575 58.936 179.335 57.952C179.095 56.944 178.711 56.14 178.183 55.54C177.679 54.94 177.019 54.64 176.203 54.64C175.099 54.64 174.115 55.192 173.251 56.296C172.411 57.4 171.907 59.152 171.739 61.552L171.847 61.696C171.799 62.056 171.763 62.452 171.739 62.884C171.715 63.316 171.703 63.748 171.703 64.18C171.703 65.812 171.967 67.216 172.495 68.392C173.023 69.568 173.707 70.468 174.547 71.092C175.411 71.692 176.299 71.992 177.211 71.992C177.931 71.992 178.615 71.884 179.263 71.668C179.911 71.428 180.511 71.044 181.063 70.516C181.615 69.988 182.095 69.28 182.503 68.392L183.223 68.68C182.959 69.472 182.527 70.24 181.927 70.984C181.327 71.728 180.571 72.34 179.659 72.82C178.747 73.276 177.691 73.504 176.491 73.504C174.763 73.504 173.275 73.108 172.027 72.316C170.803 71.524 169.855 70.432 169.183 69.04C168.535 67.624 168.211 66.004 168.211 64.18C168.211 62.068 168.547 60.256 169.219 58.744C169.891 57.208 170.839 56.032 172.063 55.216C173.287 54.376 174.715 53.956 176.347 53.956ZM200.113 48.484V54.496H205.441V55.216H200.113V69.148C200.113 70.276 200.317 71.068 200.725 71.524C201.133 71.98 201.697 72.208 202.417 72.208C203.137 72.208 203.761 71.92 204.289 71.344C204.817 70.744 205.273 69.748 205.657 68.356L206.377 68.536C206.137 69.928 205.657 71.104 204.937 72.064C204.241 73.024 203.161 73.504 201.697 73.504C200.881 73.504 200.209 73.396 199.681 73.18C199.153 72.988 198.685 72.7 198.277 72.316C197.749 71.764 197.377 71.104 197.161 70.336C196.969 69.568 196.873 68.548 196.873 67.276V55.216H193.417V54.496H196.873V48.988C197.473 48.964 198.049 48.916 198.601 48.844C199.153 48.772 199.657 48.652 200.113 48.484ZM212.696 44.812V58.276C213.32 56.644 214.184 55.516 215.288 54.892C216.416 54.268 217.592 53.956 218.816 53.956C219.728 53.956 220.484 54.076 221.084 54.316C221.708 54.556 222.224 54.892 222.632 55.324C223.088 55.804 223.412 56.404 223.604 57.124C223.796 57.844 223.892 58.816 223.892 60.04V69.652C223.892 70.66 224.096 71.344 224.504 71.704C224.936 72.064 225.644 72.244 226.628 72.244V73C226.22 72.976 225.596 72.952 224.756 72.928C223.916 72.88 223.1 72.856 222.308 72.856C221.516 72.856 220.736 72.88 219.968 72.928C219.224 72.952 218.66 72.976 218.276 73V72.244C219.14 72.244 219.752 72.064 220.112 71.704C220.472 71.344 220.652 70.66 220.652 69.652V59.248C220.652 58.504 220.592 57.82 220.472 57.196C220.352 56.572 220.076 56.068 219.644 55.684C219.236 55.3 218.6 55.108 217.736 55.108C216.752 55.108 215.876 55.384 215.108 55.936C214.364 56.488 213.776 57.256 213.344 58.24C212.912 59.224 212.696 60.352 212.696 61.624V69.652C212.696 70.66 212.876 71.344 213.236 71.704C213.596 72.064 214.208 72.244 215.072 72.244V73C214.688 72.976 214.112 72.952 213.344 72.928C212.6 72.88 211.832 72.856 211.04 72.856C210.248 72.856 209.432 72.88 208.592 72.928C207.752 72.952 207.128 72.976 206.72 73V72.244C207.704 72.244 208.4 72.064 208.808 71.704C209.24 71.344 209.456 70.66 209.456 69.652V49.132C209.456 48.052 209.264 47.26 208.88 46.756C208.496 46.228 207.776 45.964 206.72 45.964V45.208C207.488 45.28 208.232 45.316 208.952 45.316C209.648 45.316 210.308 45.28 210.932 45.208C211.58 45.112 212.168 44.98 212.696 44.812ZM236.956 53.956C239.068 53.956 240.712 54.604 241.888 55.9C243.088 57.172 243.688 59.164 243.688 61.876H230.98L230.944 61.192H240.232C240.28 60.016 240.184 58.936 239.944 57.952C239.704 56.944 239.32 56.14 238.792 55.54C238.288 54.94 237.628 54.64 236.812 54.64C235.708 54.64 234.724 55.192 233.86 56.296C233.02 57.4 232.516 59.152 232.348 61.552L232.456 61.696C232.408 62.056 232.372 62.452 232.348 62.884C232.324 63.316 232.312 63.748 232.312 64.18C232.312 65.812 232.576 67.216 233.104 68.392C233.632 69.568 234.316 70.468 235.156 71.092C236.02 71.692 236.908 71.992 237.82 71.992C238.54 71.992 239.224 71.884 239.872 71.668C240.52 71.428 241.12 71.044 241.672 70.516C242.224 69.988 242.704 69.28 243.112 68.392L243.832 68.68C243.568 69.472 243.136 70.24 242.536 70.984C241.936 71.728 241.18 72.34 240.268 72.82C239.356 73.276 238.3 73.504 237.1 73.504C235.372 73.504 233.884 73.108 232.636 72.316C231.412 71.524 230.464 70.432 229.792 69.04C229.144 67.624 228.82 66.004 228.82 64.18C228.82 62.068 229.156 60.256 229.828 58.744C230.5 57.208 231.448 56.032 232.672 55.216C233.896 54.376 235.324 53.956 236.956 53.956ZM266.076 53.956C268.044 53.956 269.676 54.772 270.972 56.404C272.268 58.012 272.916 60.46 272.916 63.748C272.916 65.908 272.544 67.72 271.8 69.184C271.08 70.624 270.108 71.704 268.884 72.424C267.66 73.144 266.328 73.504 264.888 73.504C263.688 73.504 262.524 73.168 261.396 72.496C260.292 71.8 259.464 70.78 258.912 69.436L259.632 69.832C260.232 70.792 260.976 71.512 261.864 71.992C262.752 72.448 263.664 72.676 264.6 72.676C266.208 72.676 267.408 71.956 268.2 70.516C269.016 69.052 269.424 66.796 269.424 63.748C269.424 61.804 269.268 60.184 268.956 58.888C268.644 57.592 268.164 56.632 267.516 56.008C266.868 55.36 266.04 55.036 265.032 55.036C263.928 55.036 262.896 55.54 261.936 56.548C261 57.532 260.424 58.984 260.208 60.904L259.776 60.4C260.04 58.36 260.748 56.776 261.9 55.648C263.076 54.52 264.468 53.956 266.076 53.956ZM260.46 44.812V71.128C260.148 71.392 259.824 71.668 259.488 71.956C259.176 72.22 258.864 72.484 258.552 72.748C258.24 73.012 257.916 73.288 257.58 73.576L256.968 73.324C257.064 72.988 257.124 72.652 257.148 72.316C257.196 71.956 257.22 71.596 257.22 71.236V49.132C257.22 48.052 257.028 47.26 256.644 46.756C256.26 46.228 255.54 45.964 254.484 45.964V45.208C255.252 45.28 255.996 45.316 256.716 45.316C257.412 45.316 258.072 45.28 258.696 45.208C259.344 45.112 259.932 44.98 260.46 44.812ZM284.417 53.956C286.529 53.956 288.173 54.604 289.349 55.9C290.549 57.172 291.149 59.164 291.149 61.876H278.441L278.405 61.192H287.693C287.741 60.016 287.645 58.936 287.405 57.952C287.165 56.944 286.781 56.14 286.253 55.54C285.749 54.94 285.089 54.64 284.273 54.64C283.169 54.64 282.185 55.192 281.321 56.296C280.481 57.4 279.977 59.152 279.809 61.552L279.917 61.696C279.869 62.056 279.833 62.452 279.809 62.884C279.785 63.316 279.773 63.748 279.773 64.18C279.773 65.812 280.037 67.216 280.565 68.392C281.093 69.568 281.777 70.468 282.617 71.092C283.481 71.692 284.369 71.992 285.281 71.992C286.001 71.992 286.685 71.884 287.333 71.668C287.981 71.428 288.581 71.044 289.133 70.516C289.685 69.988 290.165 69.28 290.573 68.392L291.293 68.68C291.029 69.472 290.597 70.24 289.997 70.984C289.397 71.728 288.641 72.34 287.729 72.82C286.817 73.276 285.761 73.504 284.561 73.504C282.833 73.504 281.345 73.108 280.097 72.316C278.873 71.524 277.925 70.432 277.253 69.04C276.605 67.624 276.281 66.004 276.281 64.18C276.281 62.068 276.617 60.256 277.289 58.744C277.961 57.208 278.909 56.032 280.133 55.216C281.357 54.376 282.785 53.956 284.417 53.956ZM300.324 53.956C301.284 53.956 302.1 54.112 302.772 54.424C303.444 54.736 303.936 55.024 304.248 55.288C305.04 55.936 305.52 55.504 305.688 53.992H306.516C306.468 54.664 306.432 55.468 306.408 56.404C306.384 57.316 306.372 58.552 306.372 60.112H305.544C305.4 59.224 305.148 58.36 304.788 57.52C304.452 56.68 303.948 55.996 303.276 55.468C302.604 54.916 301.728 54.64 300.648 54.64C299.808 54.64 299.1 54.88 298.524 55.36C297.972 55.816 297.696 56.5 297.696 57.412C297.696 58.132 297.912 58.756 298.344 59.284C298.776 59.788 299.34 60.268 300.036 60.724C300.732 61.156 301.488 61.636 302.304 62.164C303.216 62.74 304.044 63.328 304.788 63.928C305.532 64.528 306.12 65.188 306.552 65.908C307.008 66.628 307.236 67.48 307.236 68.464C307.236 69.568 306.948 70.492 306.372 71.236C305.796 71.98 305.04 72.544 304.104 72.928C303.192 73.312 302.184 73.504 301.08 73.504C300.552 73.504 300.048 73.456 299.568 73.36C299.112 73.288 298.668 73.168 298.236 73C297.996 72.88 297.744 72.736 297.48 72.568C297.24 72.4 297 72.22 296.76 72.028C296.52 71.836 296.304 71.848 296.112 72.064C295.92 72.256 295.776 72.652 295.68 73.252H294.852C294.9 72.484 294.936 71.548 294.96 70.444C294.984 69.34 294.996 67.876 294.996 66.052H295.824C295.992 67.396 296.232 68.572 296.544 69.58C296.856 70.588 297.348 71.38 298.02 71.956C298.692 72.508 299.628 72.784 300.828 72.784C301.308 72.784 301.788 72.676 302.268 72.46C302.772 72.244 303.192 71.884 303.528 71.38C303.864 70.876 304.032 70.204 304.032 69.364C304.032 68.308 303.648 67.444 302.88 66.772C302.112 66.1 301.14 65.392 299.964 64.648C299.1 64.096 298.284 63.544 297.516 62.992C296.772 62.44 296.16 61.816 295.68 61.12C295.224 60.424 294.996 59.584 294.996 58.6C294.996 57.52 295.236 56.644 295.716 55.972C296.22 55.276 296.88 54.772 297.696 54.46C298.512 54.124 299.388 53.956 300.324 53.956ZM315.778 48.484V54.496H321.106V55.216H315.778V69.148C315.778 70.276 315.982 71.068 316.39 71.524C316.798 71.98 317.362 72.208 318.082 72.208C318.802 72.208 319.426 71.92 319.954 71.344C320.482 70.744 320.938 69.748 321.322 68.356L322.042 68.536C321.802 69.928 321.322 71.104 320.602 72.064C319.906 73.024 318.826 73.504 317.362 73.504C316.546 73.504 315.874 73.396 315.346 73.18C314.818 72.988 314.35 72.7 313.942 72.316C313.414 71.764 313.042 71.104 312.826 70.336C312.634 69.568 312.538 68.548 312.538 67.276V55.216H309.082V54.496H312.538V48.988C313.138 48.964 313.714 48.916 314.266 48.844C314.818 48.772 315.322 48.652 315.778 48.484Z" fill="#282A3A"/>
</svg>
