<svg width="215" height="114" viewBox="0 0 215 114" fill="none" xmlns="http://www.w3.org/2000/svg">
<path d="M67.8567 62.6364C64.8567 62.6364 62.1825 62.1212 59.834 61.0909C57.5006 60.0606 55.6446 58.6288 54.2658 56.7955C52.9022 54.947 52.1597 52.803 52.0385 50.3636H57.7658C57.887 51.8636 58.4022 53.1591 59.3112 54.25C60.2203 55.3258 61.4097 56.1591 62.8794 56.75C64.3491 57.3409 65.9779 57.6364 67.7658 57.6364C69.7658 57.6364 71.5385 57.2879 73.084 56.5909C74.6294 55.8939 75.8416 54.9242 76.7203 53.6818C77.5991 52.4394 78.0385 51 78.0385 49.3636C78.0385 47.6515 77.6143 46.1439 76.7658 44.8409C75.9173 43.5227 74.6749 42.4924 73.0385 41.75C71.4022 41.0076 69.4022 40.6364 67.0385 40.6364H63.3112V35.6364H67.0385C68.887 35.6364 70.5082 35.303 71.9022 34.6364C73.3112 33.9697 74.4097 33.0303 75.1976 31.8182C76.0006 30.6061 76.4022 29.1818 76.4022 27.5455C76.4022 25.9697 76.0537 24.5985 75.3567 23.4318C74.6597 22.2651 73.6749 21.3561 72.4022 20.7045C71.1446 20.053 69.6597 19.7273 67.9476 19.7273C66.3416 19.7273 64.8264 20.0227 63.4022 20.6136C61.9931 21.1894 60.8416 22.0303 59.9476 23.1364C59.0537 24.2273 58.5688 25.5455 58.4931 27.0909H53.0385C53.1294 24.6515 53.8643 22.5151 55.2431 20.6818C56.6219 18.8333 58.4249 17.3939 60.6522 16.3636C62.8946 15.3333 65.3567 14.8182 68.0385 14.8182C70.9173 14.8182 73.387 15.4015 75.4476 16.5682C77.5082 17.7197 79.0916 19.2424 80.1976 21.1364C81.3037 23.0303 81.8567 25.0758 81.8567 27.2727C81.8567 29.8939 81.1673 32.1288 79.7885 33.9773C78.4249 35.8258 76.5688 37.1061 74.2203 37.8182V38.1818C77.1597 38.6667 79.4552 39.9167 81.1067 41.9318C82.7582 43.9318 83.584 46.4091 83.584 49.3636C83.584 51.8939 82.8946 54.1667 81.5158 56.1818C80.1522 58.1818 78.2885 59.7576 75.9249 60.9091C73.5612 62.0606 70.8719 62.6364 67.8567 62.6364ZM106.781 62.6364C103.357 62.6364 100.44 61.7045 98.0312 59.8409C95.6222 57.9621 93.7813 55.2424 92.5085 51.6818C91.2358 48.1061 90.5994 43.7879 90.5994 38.7273C90.5994 33.697 91.2358 29.4015 92.5085 25.8409C93.7964 22.2652 95.6449 19.5379 98.054 17.6591C100.478 15.7651 103.387 14.8182 106.781 14.8182C110.175 14.8182 113.077 15.7651 115.486 17.6591C117.91 19.5379 119.759 22.2652 121.031 25.8409C122.319 29.4015 122.963 33.697 122.963 38.7273C122.963 43.7879 122.327 48.1061 121.054 51.6818C119.781 55.2424 117.94 57.9621 115.531 59.8409C113.122 61.7045 110.205 62.6364 106.781 62.6364ZM106.781 57.6364C110.175 57.6364 112.812 56 114.69 52.7273C116.569 49.4545 117.509 44.7879 117.509 38.7273C117.509 34.697 117.077 31.2652 116.213 28.4318C115.365 25.5985 114.137 23.4394 112.531 21.9545C110.94 20.4697 109.024 19.7273 106.781 19.7273C103.418 19.7273 100.789 21.3864 98.8949 24.7045C97.0009 28.0076 96.054 32.6818 96.054 38.7273C96.054 42.7576 96.4782 46.1818 97.3267 49C98.1752 51.8182 99.3949 53.9621 100.986 55.4318C102.592 56.9015 104.524 57.6364 106.781 57.6364ZM144.047 53.8182V23.8182H149.138V53.8182H144.047ZM131.592 41.3636V36.2727H161.592V41.3636H131.592Z" fill="#282A3A"/>
<path d="M26.861 91.672C27.917 91.672 28.781 91.832 29.453 92.152C30.141 92.456 30.749 92.816 31.277 93.232C31.597 93.472 31.837 93.504 31.997 93.328C32.173 93.136 32.293 92.696 32.357 92.008H32.909C32.877 92.6 32.853 93.32 32.837 94.168C32.821 95.016 32.813 96.136 32.813 97.528H32.261C32.149 96.84 32.045 96.296 31.949 95.896C31.853 95.48 31.733 95.128 31.589 94.84C31.461 94.552 31.285 94.264 31.061 93.976C30.565 93.32 29.941 92.848 29.189 92.56C28.437 92.256 27.645 92.104 26.813 92.104C26.029 92.104 25.317 92.304 24.677 92.704C24.053 93.088 23.509 93.648 23.045 94.384C22.597 95.12 22.245 96.008 21.989 97.048C21.749 98.088 21.629 99.256 21.629 100.552C21.629 101.896 21.765 103.088 22.037 104.128C22.309 105.152 22.685 106.016 23.165 106.72C23.661 107.424 24.237 107.96 24.893 108.328C25.565 108.68 26.285 108.856 27.053 108.856C27.773 108.856 28.525 108.712 29.309 108.424C30.093 108.136 30.709 107.672 31.157 107.032C31.509 106.568 31.749 106.064 31.877 105.52C32.021 104.976 32.149 104.216 32.261 103.24H32.813C32.813 104.696 32.821 105.872 32.837 106.768C32.853 107.648 32.877 108.392 32.909 109H32.357C32.293 108.312 32.181 107.88 32.021 107.704C31.877 107.528 31.629 107.552 31.277 107.776C30.685 108.192 30.053 108.56 29.381 108.88C28.725 109.184 27.877 109.336 26.837 109.336C25.317 109.336 23.981 108.992 22.829 108.304C21.693 107.616 20.805 106.624 20.165 105.328C19.541 104.032 19.229 102.472 19.229 100.648C19.229 98.856 19.557 97.288 20.213 95.944C20.869 94.6 21.765 93.552 22.901 92.8C24.053 92.048 25.373 91.672 26.861 91.672ZM38.9925 90.184V106.768C38.9925 107.44 39.1285 107.896 39.4005 108.136C39.6885 108.376 40.1605 108.496 40.8165 108.496V109C40.5445 108.984 40.1285 108.968 39.5685 108.952C39.0245 108.92 38.4725 108.904 37.9125 108.904C37.3685 108.904 36.8165 108.92 36.2565 108.952C35.6965 108.968 35.2805 108.984 35.0085 109V108.496C35.6645 108.496 36.1285 108.376 36.4005 108.136C36.6885 107.896 36.8325 107.44 36.8325 106.768V93.064C36.8325 92.344 36.7045 91.816 36.4485 91.48C36.1925 91.128 35.7125 90.952 35.0085 90.952V90.448C35.5205 90.496 36.0165 90.52 36.4965 90.52C36.9605 90.52 37.4005 90.496 37.8165 90.448C38.2485 90.384 38.6405 90.296 38.9925 90.184ZM47.6893 96.304C48.7133 96.304 49.6333 96.528 50.4493 96.976C51.2653 97.424 51.9133 98.128 52.3933 99.088C52.8893 100.048 53.1373 101.296 53.1373 102.832C53.1373 104.368 52.8893 105.616 52.3933 106.576C51.9133 107.52 51.2653 108.216 50.4493 108.664C49.6333 109.112 48.7133 109.336 47.6893 109.336C46.6813 109.336 45.7613 109.112 44.9293 108.664C44.1133 108.216 43.4573 107.52 42.9613 106.576C42.4813 105.616 42.2413 104.368 42.2413 102.832C42.2413 101.296 42.4813 100.048 42.9613 99.088C43.4573 98.128 44.1133 97.424 44.9293 96.976C45.7613 96.528 46.6813 96.304 47.6893 96.304ZM47.6893 96.784C46.7773 96.784 46.0253 97.256 45.4333 98.2C44.8573 99.144 44.5693 100.688 44.5693 102.832C44.5693 104.976 44.8573 106.52 45.4333 107.464C46.0253 108.392 46.7773 108.856 47.6893 108.856C48.6013 108.856 49.3453 108.392 49.9213 107.464C50.5133 106.52 50.8093 104.976 50.8093 102.832C50.8093 100.688 50.5133 99.144 49.9213 98.2C49.3453 97.256 48.6013 96.784 47.6893 96.784ZM59.2537 96.304C59.8937 96.304 60.4377 96.408 60.8857 96.616C61.3337 96.824 61.6617 97.016 61.8697 97.192C62.3977 97.624 62.7177 97.336 62.8297 96.328H63.3817C63.3497 96.776 63.3257 97.312 63.3097 97.936C63.2937 98.544 63.2857 99.368 63.2857 100.408H62.7337C62.6377 99.816 62.4697 99.24 62.2297 98.68C62.0057 98.12 61.6697 97.664 61.2217 97.312C60.7737 96.944 60.1897 96.76 59.4697 96.76C58.9097 96.76 58.4377 96.92 58.0537 97.24C57.6857 97.544 57.5017 98 57.5017 98.608C57.5017 99.088 57.6457 99.504 57.9337 99.856C58.2217 100.192 58.5977 100.512 59.0617 100.816C59.5257 101.104 60.0297 101.424 60.5737 101.776C61.1817 102.16 61.7337 102.552 62.2297 102.952C62.7257 103.352 63.1177 103.792 63.4057 104.272C63.7097 104.752 63.8617 105.32 63.8617 105.976C63.8617 106.712 63.6697 107.328 63.2857 107.824C62.9017 108.32 62.3977 108.696 61.7737 108.952C61.1657 109.208 60.4937 109.336 59.7577 109.336C59.4057 109.336 59.0697 109.304 58.7497 109.24C58.4457 109.192 58.1497 109.112 57.8617 109C57.7017 108.92 57.5337 108.824 57.3577 108.712C57.1977 108.6 57.0377 108.48 56.8777 108.352C56.7177 108.224 56.5737 108.232 56.4457 108.376C56.3177 108.504 56.2217 108.768 56.1577 109.168H55.6057C55.6377 108.656 55.6617 108.032 55.6777 107.296C55.6937 106.56 55.7017 105.584 55.7017 104.368H56.2537C56.3657 105.264 56.5257 106.048 56.7337 106.72C56.9417 107.392 57.2697 107.92 57.7177 108.304C58.1657 108.672 58.7897 108.856 59.5897 108.856C59.9097 108.856 60.2297 108.784 60.5497 108.64C60.8857 108.496 61.1657 108.256 61.3897 107.92C61.6137 107.584 61.7257 107.136 61.7257 106.576C61.7257 105.872 61.4697 105.296 60.9577 104.848C60.4457 104.4 59.7977 103.928 59.0137 103.432C58.4377 103.064 57.8937 102.696 57.3817 102.328C56.8857 101.96 56.4777 101.544 56.1577 101.08C55.8537 100.616 55.7017 100.056 55.7017 99.4C55.7017 98.68 55.8617 98.096 56.1817 97.648C56.5177 97.184 56.9577 96.848 57.5017 96.64C58.0457 96.416 58.6297 96.304 59.2537 96.304ZM71.5241 96.304C72.9321 96.304 74.0281 96.736 74.8121 97.6C75.6121 98.448 76.0121 99.776 76.0121 101.584H67.5401L67.5161 101.128H73.7081C73.7401 100.344 73.6761 99.624 73.5161 98.968C73.3561 98.296 73.1001 97.76 72.7481 97.36C72.4121 96.96 71.9721 96.76 71.4281 96.76C70.6921 96.76 70.0361 97.128 69.4601 97.864C68.9001 98.6 68.5641 99.768 68.4521 101.368L68.5241 101.464C68.4921 101.704 68.4681 101.968 68.4521 102.256C68.4361 102.544 68.4281 102.832 68.4281 103.12C68.4281 104.208 68.6041 105.144 68.9561 105.928C69.3081 106.712 69.7641 107.312 70.3241 107.728C70.9001 108.128 71.4921 108.328 72.1001 108.328C72.5801 108.328 73.0361 108.256 73.4681 108.112C73.9001 107.952 74.3001 107.696 74.6681 107.344C75.0361 106.992 75.3561 106.52 75.6281 105.928L76.1081 106.12C75.9321 106.648 75.6441 107.16 75.2441 107.656C74.8441 108.152 74.3401 108.56 73.7321 108.88C73.1241 109.184 72.4201 109.336 71.6201 109.336C70.4681 109.336 69.4761 109.072 68.6441 108.544C67.8281 108.016 67.1961 107.288 66.7481 106.36C66.3161 105.416 66.1001 104.336 66.1001 103.12C66.1001 101.712 66.3241 100.504 66.7721 99.496C67.2201 98.472 67.8521 97.688 68.6681 97.144C69.4841 96.584 70.4361 96.304 71.5241 96.304ZM90.2413 92.008V92.488C89.6973 92.504 89.2813 92.568 88.9933 92.68C88.7213 92.776 88.5373 92.968 88.4413 93.256C88.3453 93.528 88.2973 93.96 88.2973 94.552V106.456C88.2973 107.032 88.3453 107.464 88.4413 107.752C88.5373 108.04 88.7213 108.232 88.9933 108.328C89.2813 108.424 89.6973 108.488 90.2413 108.52V109C89.8733 108.968 89.4093 108.952 88.8493 108.952C88.3053 108.936 87.7533 108.928 87.1933 108.928C86.5693 108.928 85.9853 108.936 85.4413 108.952C84.8973 108.952 84.4573 108.968 84.1213 109V108.52C84.6653 108.488 85.0733 108.424 85.3453 108.328C85.6333 108.232 85.8253 108.04 85.9213 107.752C86.0173 107.464 86.0653 107.032 86.0653 106.456V94.552C86.0653 93.96 86.0173 93.528 85.9213 93.256C85.8253 92.968 85.6333 92.776 85.3453 92.68C85.0733 92.568 84.6653 92.504 84.1213 92.488V92.008C84.4573 92.024 84.8973 92.04 85.4413 92.056C85.9853 92.072 86.5693 92.08 87.1933 92.08C87.7533 92.08 88.3053 92.072 88.8493 92.056C89.4093 92.04 89.8733 92.024 90.2413 92.008ZM100.006 96.304C100.614 96.304 101.118 96.384 101.518 96.544C101.934 96.704 102.278 96.928 102.55 97.216C102.854 97.536 103.07 97.936 103.198 98.416C103.326 98.896 103.39 99.544 103.39 100.36V106.768C103.39 107.44 103.526 107.896 103.798 108.136C104.086 108.376 104.558 108.496 105.214 108.496V109C104.942 108.984 104.526 108.968 103.966 108.952C103.406 108.92 102.862 108.904 102.334 108.904C101.806 108.904 101.286 108.92 100.774 108.952C100.278 108.968 99.9021 108.984 99.6461 109V108.496C100.222 108.496 100.63 108.376 100.87 108.136C101.11 107.896 101.23 107.44 101.23 106.768V99.832C101.23 99.336 101.19 98.88 101.11 98.464C101.03 98.048 100.846 97.712 100.558 97.456C100.286 97.2 99.8621 97.072 99.2861 97.072C98.6141 97.072 98.0221 97.264 97.5101 97.648C97.0141 98.032 96.6221 98.56 96.3341 99.232C96.0621 99.888 95.9261 100.624 95.9261 101.44V106.768C95.9261 107.44 96.0461 107.896 96.2861 108.136C96.5261 108.376 96.9341 108.496 97.5101 108.496V109C97.2541 108.984 96.8701 108.968 96.3581 108.952C95.8621 108.92 95.3501 108.904 94.8221 108.904C94.2941 108.904 93.7501 108.92 93.1901 108.952C92.6301 108.968 92.2141 108.984 91.9421 109V108.496C92.5981 108.496 93.0621 108.376 93.3341 108.136C93.6221 107.896 93.7661 107.44 93.7661 106.768V99.256C93.7661 98.536 93.6381 98.008 93.3821 97.672C93.1261 97.32 92.6461 97.144 91.9421 97.144V96.64C92.4541 96.688 92.9501 96.712 93.4301 96.712C93.8941 96.712 94.3341 96.688 94.7501 96.64C95.1821 96.576 95.5741 96.488 95.9261 96.376V99.208C96.3421 98.12 96.9181 97.368 97.6541 96.952C98.4061 96.52 99.1901 96.304 100.006 96.304ZM110.558 96.304C111.198 96.304 111.742 96.408 112.19 96.616C112.638 96.824 112.966 97.016 113.174 97.192C113.702 97.624 114.022 97.336 114.134 96.328H114.686C114.654 96.776 114.63 97.312 114.614 97.936C114.598 98.544 114.59 99.368 114.59 100.408H114.038C113.942 99.816 113.774 99.24 113.534 98.68C113.31 98.12 112.974 97.664 112.526 97.312C112.078 96.944 111.494 96.76 110.774 96.76C110.214 96.76 109.742 96.92 109.358 97.24C108.99 97.544 108.806 98 108.806 98.608C108.806 99.088 108.95 99.504 109.238 99.856C109.526 100.192 109.902 100.512 110.366 100.816C110.83 101.104 111.334 101.424 111.878 101.776C112.486 102.16 113.038 102.552 113.534 102.952C114.03 103.352 114.422 103.792 114.71 104.272C115.014 104.752 115.166 105.32 115.166 105.976C115.166 106.712 114.974 107.328 114.59 107.824C114.206 108.32 113.702 108.696 113.078 108.952C112.47 109.208 111.798 109.336 111.062 109.336C110.71 109.336 110.374 109.304 110.054 109.24C109.75 109.192 109.454 109.112 109.166 109C109.006 108.92 108.838 108.824 108.662 108.712C108.502 108.6 108.342 108.48 108.182 108.352C108.022 108.224 107.878 108.232 107.75 108.376C107.622 108.504 107.526 108.768 107.462 109.168H106.91C106.942 108.656 106.966 108.032 106.982 107.296C106.998 106.56 107.006 105.584 107.006 104.368H107.558C107.67 105.264 107.83 106.048 108.038 106.72C108.246 107.392 108.574 107.92 109.022 108.304C109.47 108.672 110.094 108.856 110.894 108.856C111.214 108.856 111.534 108.784 111.854 108.64C112.19 108.496 112.47 108.256 112.694 107.92C112.918 107.584 113.03 107.136 113.03 106.576C113.03 105.872 112.774 105.296 112.262 104.848C111.75 104.4 111.102 103.928 110.318 103.432C109.742 103.064 109.198 102.696 108.686 102.328C108.19 101.96 107.782 101.544 107.462 101.08C107.158 100.616 107.006 100.056 107.006 99.4C107.006 98.68 107.166 98.096 107.486 97.648C107.822 97.184 108.262 96.848 108.806 96.64C109.35 96.416 109.934 96.304 110.558 96.304ZM120.813 96.376V111.112C120.813 111.8 121.013 112.256 121.413 112.48C121.829 112.72 122.397 112.84 123.117 112.84V113.344C122.765 113.328 122.277 113.304 121.653 113.272C121.029 113.256 120.365 113.248 119.661 113.248C119.165 113.248 118.669 113.256 118.173 113.272C117.693 113.304 117.325 113.328 117.069 113.344V112.84C117.645 112.84 118.053 112.736 118.293 112.528C118.533 112.32 118.653 111.928 118.653 111.352V99.256C118.653 98.536 118.525 98.008 118.269 97.672C118.013 97.32 117.533 97.144 116.829 97.144V96.64C117.341 96.688 117.837 96.712 118.317 96.712C118.781 96.712 119.221 96.688 119.637 96.64C120.069 96.576 120.461 96.488 120.813 96.376ZM124.653 96.304C125.501 96.304 126.261 96.536 126.933 97C127.605 97.448 128.133 98.112 128.517 98.992C128.917 99.872 129.117 100.96 129.117 102.256C129.117 103.12 129.013 103.976 128.805 104.824C128.597 105.656 128.269 106.416 127.821 107.104C127.389 107.776 126.821 108.32 126.117 108.736C125.429 109.136 124.597 109.336 123.621 109.336C122.869 109.336 122.213 109.16 121.653 108.808C121.109 108.456 120.741 108.032 120.549 107.536L120.789 107.2C121.013 107.648 121.333 108.024 121.749 108.328C122.181 108.632 122.717 108.784 123.357 108.784C124.253 108.784 124.949 108.504 125.445 107.944C125.941 107.384 126.285 106.64 126.477 105.712C126.685 104.768 126.789 103.728 126.789 102.592C126.789 101.312 126.685 100.264 126.477 99.448C126.269 98.632 125.957 98.024 125.541 97.624C125.125 97.224 124.613 97.024 124.005 97.024C123.221 97.024 122.509 97.352 121.869 98.008C121.229 98.648 120.821 99.624 120.645 100.936L120.357 100.6C120.533 99.24 121.013 98.184 121.797 97.432C122.597 96.68 123.549 96.304 124.653 96.304ZM136.774 96.304C138.182 96.304 139.278 96.736 140.062 97.6C140.862 98.448 141.262 99.776 141.262 101.584H132.79L132.766 101.128H138.958C138.99 100.344 138.926 99.624 138.766 98.968C138.606 98.296 138.35 97.76 137.998 97.36C137.662 96.96 137.222 96.76 136.678 96.76C135.942 96.76 135.286 97.128 134.71 97.864C134.15 98.6 133.814 99.768 133.702 101.368L133.774 101.464C133.742 101.704 133.718 101.968 133.702 102.256C133.686 102.544 133.678 102.832 133.678 103.12C133.678 104.208 133.854 105.144 134.206 105.928C134.558 106.712 135.014 107.312 135.574 107.728C136.15 108.128 136.742 108.328 137.35 108.328C137.83 108.328 138.286 108.256 138.718 108.112C139.15 107.952 139.55 107.696 139.918 107.344C140.286 106.992 140.606 106.52 140.878 105.928L141.358 106.12C141.182 106.648 140.894 107.16 140.494 107.656C140.094 108.152 139.59 108.56 138.982 108.88C138.374 109.184 137.67 109.336 136.87 109.336C135.718 109.336 134.726 109.072 133.894 108.544C133.078 108.016 132.446 107.288 131.998 106.36C131.566 105.416 131.35 104.336 131.35 103.12C131.35 101.712 131.574 100.504 132.022 99.496C132.47 98.472 133.102 97.688 133.918 97.144C134.734 96.584 135.686 96.304 136.774 96.304ZM149.083 96.304C149.595 96.304 150.091 96.368 150.571 96.496C151.051 96.624 151.483 96.816 151.867 97.072C152.235 97.312 152.515 97.592 152.707 97.912C152.899 98.216 152.995 98.552 152.995 98.92C152.995 99.352 152.875 99.688 152.635 99.928C152.395 100.152 152.091 100.264 151.723 100.264C151.371 100.264 151.059 100.16 150.787 99.952C150.531 99.744 150.403 99.448 150.403 99.064C150.403 98.696 150.499 98.4 150.691 98.176C150.899 97.952 151.139 97.808 151.411 97.744C151.251 97.456 150.963 97.216 150.547 97.024C150.147 96.832 149.715 96.736 149.251 96.736C148.851 96.736 148.451 96.832 148.051 97.024C147.651 97.216 147.283 97.536 146.947 97.984C146.611 98.416 146.339 99.016 146.131 99.784C145.923 100.536 145.819 101.48 145.819 102.616C145.819 104.024 145.979 105.144 146.299 105.976C146.619 106.808 147.035 107.408 147.547 107.776C148.075 108.128 148.651 108.304 149.275 108.304C149.691 108.304 150.115 108.224 150.547 108.064C150.979 107.904 151.387 107.648 151.771 107.296C152.155 106.928 152.483 106.44 152.755 105.832L153.211 106C153.051 106.512 152.787 107.032 152.419 107.56C152.051 108.072 151.571 108.496 150.979 108.832C150.387 109.168 149.659 109.336 148.795 109.336C147.803 109.336 146.907 109.08 146.107 108.568C145.307 108.056 144.667 107.328 144.187 106.384C143.723 105.424 143.491 104.288 143.491 102.976C143.491 101.664 143.723 100.512 144.187 99.52C144.667 98.512 145.331 97.728 146.179 97.168C147.027 96.592 147.995 96.304 149.083 96.304ZM158.619 92.656V96.664H162.171V97.144H158.619V106.432C158.619 107.184 158.755 107.712 159.027 108.016C159.299 108.32 159.675 108.472 160.155 108.472C160.635 108.472 161.051 108.28 161.403 107.896C161.755 107.496 162.059 106.832 162.315 105.904L162.795 106.024C162.635 106.952 162.315 107.736 161.835 108.376C161.371 109.016 160.651 109.336 159.675 109.336C159.131 109.336 158.683 109.264 158.331 109.12C157.979 108.992 157.667 108.8 157.395 108.544C157.043 108.176 156.795 107.736 156.651 107.224C156.523 106.712 156.459 106.032 156.459 105.184V97.144H154.155V96.664H156.459V92.992C156.859 92.976 157.243 92.944 157.611 92.896C157.979 92.848 158.315 92.768 158.619 92.656ZM165.975 90.64C166.391 90.64 166.751 90.792 167.055 91.096C167.359 91.4 167.511 91.76 167.511 92.176C167.511 92.592 167.359 92.952 167.055 93.256C166.751 93.56 166.391 93.712 165.975 93.712C165.559 93.712 165.199 93.56 164.895 93.256C164.591 92.952 164.439 92.592 164.439 92.176C164.439 91.76 164.591 91.4 164.895 91.096C165.199 90.792 165.559 90.64 165.975 90.64ZM167.223 96.376V106.768C167.223 107.44 167.359 107.896 167.631 108.136C167.919 108.376 168.391 108.496 169.047 108.496V109C168.775 108.984 168.359 108.968 167.799 108.952C167.255 108.92 166.703 108.904 166.143 108.904C165.599 108.904 165.047 108.92 164.487 108.952C163.927 108.968 163.511 108.984 163.239 109V108.496C163.895 108.496 164.359 108.376 164.631 108.136C164.919 107.896 165.063 107.44 165.063 106.768V99.256C165.063 98.536 164.935 98.008 164.679 97.672C164.423 97.32 163.943 97.144 163.239 97.144V96.64C163.751 96.688 164.247 96.712 164.727 96.712C165.191 96.712 165.631 96.688 166.047 96.64C166.479 96.576 166.871 96.488 167.223 96.376ZM176.15 96.304C177.174 96.304 178.094 96.528 178.91 96.976C179.726 97.424 180.374 98.128 180.854 99.088C181.35 100.048 181.598 101.296 181.598 102.832C181.598 104.368 181.35 105.616 180.854 106.576C180.374 107.52 179.726 108.216 178.91 108.664C178.094 109.112 177.174 109.336 176.15 109.336C175.142 109.336 174.222 109.112 173.39 108.664C172.574 108.216 171.918 107.52 171.422 106.576C170.942 105.616 170.702 104.368 170.702 102.832C170.702 101.296 170.942 100.048 171.422 99.088C171.918 98.128 172.574 97.424 173.39 96.976C174.222 96.528 175.142 96.304 176.15 96.304ZM176.15 96.784C175.238 96.784 174.486 97.256 173.894 98.2C173.318 99.144 173.03 100.688 173.03 102.832C173.03 104.976 173.318 106.52 173.894 107.464C174.486 108.392 175.238 108.856 176.15 108.856C177.062 108.856 177.806 108.392 178.382 107.464C178.974 106.52 179.27 104.976 179.27 102.832C179.27 100.688 178.974 99.144 178.382 98.2C177.806 97.256 177.062 96.784 176.15 96.784ZM191.483 96.304C192.091 96.304 192.595 96.384 192.995 96.544C193.411 96.704 193.755 96.928 194.027 97.216C194.331 97.536 194.547 97.936 194.675 98.416C194.803 98.896 194.867 99.544 194.867 100.36V106.768C194.867 107.44 195.003 107.896 195.275 108.136C195.563 108.376 196.035 108.496 196.691 108.496V109C196.419 108.984 196.003 108.968 195.443 108.952C194.883 108.92 194.339 108.904 193.811 108.904C193.283 108.904 192.763 108.92 192.251 108.952C191.755 108.968 191.379 108.984 191.123 109V108.496C191.699 108.496 192.107 108.376 192.347 108.136C192.587 107.896 192.707 107.44 192.707 106.768V99.832C192.707 99.336 192.667 98.88 192.587 98.464C192.507 98.048 192.323 97.712 192.035 97.456C191.763 97.2 191.339 97.072 190.763 97.072C190.091 97.072 189.499 97.264 188.987 97.648C188.491 98.032 188.099 98.56 187.811 99.232C187.539 99.888 187.403 100.624 187.403 101.44V106.768C187.403 107.44 187.523 107.896 187.763 108.136C188.003 108.376 188.411 108.496 188.987 108.496V109C188.731 108.984 188.347 108.968 187.835 108.952C187.339 108.92 186.827 108.904 186.299 108.904C185.771 108.904 185.227 108.92 184.667 108.952C184.107 108.968 183.691 108.984 183.419 109V108.496C184.075 108.496 184.539 108.376 184.811 108.136C185.099 107.896 185.243 107.44 185.243 106.768V99.256C185.243 98.536 185.115 98.008 184.859 97.672C184.603 97.32 184.123 97.144 183.419 97.144V96.64C183.931 96.688 184.427 96.712 184.907 96.712C185.371 96.712 185.811 96.688 186.227 96.64C186.659 96.576 187.051 96.488 187.403 96.376V99.208C187.819 98.12 188.395 97.368 189.131 96.952C189.883 96.52 190.667 96.304 191.483 96.304Z" fill="#282A3A"/>
</svg>
