<svg width="414" height="80" viewBox="0 0 414 80" fill="none" xmlns="http://www.w3.org/2000/svg">
<path opacity="0.56" d="M142.727 5.54545V23H140.614V5.54545H142.727ZM148.704 15.125V23H146.692V9.90909H148.636V11.9545H148.806C149.113 11.2898 149.579 10.7557 150.204 10.3523C150.829 9.94318 151.636 9.73864 152.624 9.73864C153.511 9.73864 154.286 9.92045 154.951 10.2841C155.616 10.642 156.133 11.1875 156.502 11.9205C156.871 12.6477 157.056 13.5682 157.056 14.6818V23H155.045V14.8182C155.045 13.7898 154.778 12.9886 154.244 12.4148C153.71 11.8352 152.977 11.5455 152.045 11.5455C151.403 11.5455 150.829 11.6847 150.323 11.9631C149.823 12.2415 149.428 12.6477 149.138 13.1818C148.849 13.7159 148.704 14.3636 148.704 15.125ZM166.425 9.90909V11.6136H159.641V9.90909H166.425ZM161.618 6.77273H163.629V19.25C163.629 19.8182 163.712 20.2443 163.876 20.5284C164.047 20.8068 164.263 20.9943 164.524 21.0909C164.791 21.1818 165.072 21.2273 165.368 21.2273C165.589 21.2273 165.771 21.2159 165.913 21.1932C166.055 21.1648 166.169 21.142 166.254 21.125L166.663 22.9318C166.527 22.983 166.337 23.0341 166.092 23.0852C165.848 23.142 165.538 23.1705 165.163 23.1705C164.595 23.1705 164.038 23.0483 163.493 22.804C162.953 22.5597 162.504 22.1875 162.146 21.6875C161.794 21.1875 161.618 20.5568 161.618 19.7955V6.77273ZM169.45 23V9.90909H171.393V11.8864H171.53C171.768 11.2386 172.2 10.7131 172.825 10.3097C173.45 9.90625 174.155 9.70454 174.939 9.70454C175.087 9.70454 175.271 9.70739 175.493 9.71307C175.714 9.71875 175.882 9.72727 175.996 9.73864V11.7841C175.928 11.767 175.771 11.7415 175.527 11.7074C175.288 11.6676 175.036 11.6477 174.768 11.6477C174.132 11.6477 173.564 11.7812 173.064 12.0483C172.57 12.3097 172.178 12.6733 171.888 13.1392C171.604 13.5994 171.462 14.125 171.462 14.7159V23H169.45ZM183.3 23.2727C182.118 23.2727 181.081 22.9915 180.189 22.429C179.303 21.8665 178.609 21.0795 178.109 20.0682C177.615 19.0568 177.368 17.875 177.368 16.5227C177.368 15.1591 177.615 13.9687 178.109 12.9517C178.609 11.9347 179.303 11.1449 180.189 10.5824C181.081 10.0199 182.118 9.73864 183.3 9.73864C184.482 9.73864 185.516 10.0199 186.402 10.5824C187.294 11.1449 187.987 11.9347 188.482 12.9517C188.982 13.9687 189.232 15.1591 189.232 16.5227C189.232 17.875 188.982 19.0568 188.482 20.0682C187.987 21.0795 187.294 21.8665 186.402 22.429C185.516 22.9915 184.482 23.2727 183.3 23.2727ZM183.3 21.4659C184.197 21.4659 184.936 21.2358 185.516 20.7756C186.095 20.3153 186.524 19.7102 186.803 18.9602C187.081 18.2102 187.22 17.3977 187.22 16.5227C187.22 15.6477 187.081 14.8324 186.803 14.0767C186.524 13.321 186.095 12.7102 185.516 12.2443C184.936 11.7784 184.197 11.5455 183.3 11.5455C182.402 11.5455 181.663 11.7784 181.084 12.2443C180.504 12.7102 180.075 13.321 179.797 14.0767C179.518 14.8324 179.379 15.6477 179.379 16.5227C179.379 17.3977 179.518 18.2102 179.797 18.9602C180.075 19.7102 180.504 20.3153 181.084 20.7756C181.663 21.2358 182.402 21.4659 183.3 21.4659ZM197.245 23.2727C196.154 23.2727 195.191 22.9972 194.356 22.446C193.521 21.8892 192.867 21.1051 192.396 20.0938C191.924 19.0767 191.688 17.875 191.688 16.4886C191.688 15.1136 191.924 13.9205 192.396 12.9091C192.867 11.8977 193.523 11.1165 194.364 10.5653C195.205 10.0142 196.177 9.73864 197.279 9.73864C198.131 9.73864 198.805 9.88068 199.299 10.1648C199.799 10.4432 200.18 10.7614 200.441 11.1193C200.708 11.4716 200.915 11.7614 201.063 11.9886H201.234V5.54545H203.245V23H201.302V20.9886H201.063C200.915 21.2273 200.705 21.5284 200.433 21.892C200.16 22.25 199.771 22.571 199.265 22.8551C198.759 23.1335 198.086 23.2727 197.245 23.2727ZM197.518 21.4659C198.325 21.4659 199.006 21.2557 199.563 20.8352C200.12 20.4091 200.543 19.821 200.833 19.071C201.123 18.3153 201.268 17.4432 201.268 16.4545C201.268 15.4773 201.126 14.6222 200.842 13.8892C200.558 13.1506 200.137 12.5767 199.58 12.1676C199.023 11.7528 198.336 11.5455 197.518 11.5455C196.665 11.5455 195.955 11.7642 195.387 12.2017C194.825 12.6335 194.401 13.2216 194.117 13.9659C193.839 14.7045 193.7 15.5341 193.7 16.4545C193.7 17.3864 193.842 18.233 194.126 18.9943C194.415 19.75 194.842 20.3523 195.404 20.8011C195.972 21.2443 196.677 21.4659 197.518 21.4659ZM215.458 17.6477V9.90909H217.469V23H215.458V20.7841H215.322C215.015 21.4489 214.538 22.0142 213.89 22.4801C213.242 22.9403 212.424 23.1705 211.435 23.1705C210.617 23.1705 209.89 22.9915 209.254 22.6335C208.617 22.2699 208.117 21.7244 207.754 20.9972C207.39 20.2642 207.208 19.3409 207.208 18.2273V9.90909H209.219V18.0909C209.219 19.0455 209.487 19.8068 210.021 20.375C210.56 20.9432 211.248 21.2273 212.083 21.2273C212.583 21.2273 213.092 21.0994 213.609 20.8438C214.131 20.5881 214.569 20.196 214.921 19.6676C215.279 19.1392 215.458 18.4659 215.458 17.6477ZM226.472 23.2727C225.244 23.2727 224.188 22.983 223.301 22.4034C222.415 21.8239 221.733 21.0256 221.256 20.0085C220.778 18.9915 220.54 17.8295 220.54 16.5227C220.54 15.1932 220.784 14.0199 221.273 13.0028C221.767 11.9801 222.455 11.1818 223.335 10.608C224.222 10.0284 225.256 9.73864 226.438 9.73864C227.358 9.73864 228.188 9.90909 228.926 10.25C229.665 10.5909 230.27 11.0682 230.741 11.6818C231.213 12.2955 231.506 13.0114 231.619 13.8295H229.608C229.455 13.233 229.114 12.7045 228.585 12.2443C228.063 11.7784 227.358 11.5455 226.472 11.5455C225.688 11.5455 225 11.75 224.409 12.1591C223.824 12.5625 223.366 13.1335 223.037 13.8722C222.713 14.6051 222.551 15.4659 222.551 16.4545C222.551 17.4659 222.71 18.3466 223.028 19.0966C223.352 19.8466 223.807 20.429 224.392 20.8438C224.983 21.2585 225.676 21.4659 226.472 21.4659C226.994 21.4659 227.469 21.375 227.895 21.1932C228.321 21.0114 228.682 20.75 228.977 20.4091C229.273 20.0682 229.483 19.6591 229.608 19.1818H231.619C231.506 19.9545 231.224 20.6506 230.776 21.2699C230.332 21.8835 229.744 22.3722 229.011 22.7358C228.284 23.0938 227.438 23.2727 226.472 23.2727ZM240.253 9.90909V11.6136H233.469V9.90909H240.253ZM235.446 6.77273H237.457V19.25C237.457 19.8182 237.54 20.2443 237.705 20.5284C237.875 20.8068 238.091 20.9943 238.352 21.0909C238.619 21.1818 238.901 21.2273 239.196 21.2273C239.418 21.2273 239.599 21.2159 239.741 21.1932C239.884 21.1648 239.997 21.142 240.082 21.125L240.491 22.9318C240.355 22.983 240.165 23.0341 239.92 23.0852C239.676 23.142 239.366 23.1705 238.991 23.1705C238.423 23.1705 237.866 23.0483 237.321 22.804C236.781 22.5597 236.332 22.1875 235.974 21.6875C235.622 21.1875 235.446 20.5568 235.446 19.7955V6.77273ZM243.278 23V9.90909H245.29V23H243.278ZM244.301 7.72727C243.909 7.72727 243.571 7.59375 243.287 7.3267C243.009 7.05966 242.869 6.73864 242.869 6.36364C242.869 5.98864 243.009 5.66761 243.287 5.40057C243.571 5.13352 243.909 5 244.301 5C244.693 5 245.028 5.13352 245.307 5.40057C245.591 5.66761 245.733 5.98864 245.733 6.36364C245.733 6.73864 245.591 7.05966 245.307 7.3267C245.028 7.59375 244.693 7.72727 244.301 7.72727ZM254.292 23.2727C253.11 23.2727 252.073 22.9915 251.181 22.429C250.295 21.8665 249.602 21.0795 249.102 20.0682C248.607 19.0568 248.36 17.875 248.36 16.5227C248.36 15.1591 248.607 13.9687 249.102 12.9517C249.602 11.9347 250.295 11.1449 251.181 10.5824C252.073 10.0199 253.11 9.73864 254.292 9.73864C255.474 9.73864 256.508 10.0199 257.394 10.5824C258.286 11.1449 258.979 11.9347 259.474 12.9517C259.974 13.9687 260.224 15.1591 260.224 16.5227C260.224 17.875 259.974 19.0568 259.474 20.0682C258.979 21.0795 258.286 21.8665 257.394 22.429C256.508 22.9915 255.474 23.2727 254.292 23.2727ZM254.292 21.4659C255.19 21.4659 255.928 21.2358 256.508 20.7756C257.087 20.3153 257.516 19.7102 257.795 18.9602C258.073 18.2102 258.212 17.3977 258.212 16.5227C258.212 15.6477 258.073 14.8324 257.795 14.0767C257.516 13.321 257.087 12.7102 256.508 12.2443C255.928 11.7784 255.19 11.5455 254.292 11.5455C253.394 11.5455 252.656 11.7784 252.076 12.2443C251.496 12.7102 251.067 13.321 250.789 14.0767C250.511 14.8324 250.371 15.6477 250.371 16.5227C250.371 17.3977 250.511 18.2102 250.789 18.9602C251.067 19.7102 251.496 20.3153 252.076 20.7756C252.656 21.2358 253.394 21.4659 254.292 21.4659ZM265.305 15.125V23H263.294V9.90909H265.237V11.9545H265.408C265.714 11.2898 266.18 10.7557 266.805 10.3523C267.43 9.94318 268.237 9.73864 269.226 9.73864C270.112 9.73864 270.888 9.92045 271.553 10.2841C272.217 10.642 272.734 11.1875 273.104 11.9205C273.473 12.6477 273.658 13.5682 273.658 14.6818V23H271.646V14.8182C271.646 13.7898 271.379 12.9886 270.845 12.4148C270.311 11.8352 269.578 11.5455 268.646 11.5455C268.004 11.5455 267.43 11.6847 266.925 11.9631C266.425 12.2415 266.03 12.6477 265.74 13.1818C265.45 13.7159 265.305 14.3636 265.305 15.125Z" fill="#282A3A"/>
<path d="M10.815 47.512V48.232C9.99905 48.256 9.37505 48.352 8.94305 48.52C8.53505 48.664 8.25905 48.952 8.11505 49.384C7.97105 49.792 7.89905 50.44 7.89905 51.328V69.184C7.89905 70.048 7.97105 70.696 8.11505 71.128C8.25905 71.56 8.53505 71.848 8.94305 71.992C9.37505 72.112 9.99905 72.172 10.815 72.172H13.443C14.571 72.172 15.483 72.052 16.179 71.812C16.899 71.572 17.463 71.2 17.871 70.696C18.303 70.168 18.627 69.472 18.843 68.608C19.059 67.744 19.227 66.688 19.347 65.44H20.175C20.103 66.184 20.067 67.168 20.067 68.392C20.067 68.848 20.079 69.508 20.103 70.372C20.151 71.212 20.223 72.088 20.319 73C19.095 72.952 17.715 72.928 16.179 72.928C14.643 72.904 13.275 72.892 12.075 72.892C11.547 72.892 10.863 72.892 10.023 72.892C9.20705 72.892 8.31905 72.904 7.35905 72.928C6.39905 72.928 5.42705 72.94 4.44305 72.964C3.45905 72.964 2.52305 72.976 1.63505 73V72.28C2.45105 72.232 3.06305 72.136 3.47105 71.992C3.90305 71.848 4.19105 71.56 4.33505 71.128C4.47905 70.696 4.55105 70.048 4.55105 69.184V51.328C4.55105 50.44 4.47905 49.792 4.33505 49.384C4.19105 48.952 3.90305 48.664 3.47105 48.52C3.06305 48.352 2.45105 48.256 1.63505 48.232V47.512C2.13905 47.536 2.79905 47.56 3.61505 47.584C4.43105 47.608 5.30705 47.62 6.24305 47.62C7.08305 47.62 7.91105 47.608 8.72705 47.584C9.56705 47.56 10.263 47.536 10.815 47.512ZM31.0791 53.956C33.1911 53.956 34.8351 54.604 36.0111 55.9C37.2111 57.172 37.8111 59.164 37.8111 61.876H25.1031L25.0671 61.192H34.3551C34.4031 60.016 34.3071 58.936 34.0671 57.952C33.8271 56.944 33.4431 56.14 32.9151 55.54C32.4111 54.94 31.7511 54.64 30.9351 54.64C29.8311 54.64 28.8471 55.192 27.9831 56.296C27.1431 57.4 26.6391 59.152 26.4711 61.552L26.5791 61.696C26.5311 62.056 26.4951 62.452 26.4711 62.884C26.4471 63.316 26.4351 63.748 26.4351 64.18C26.4351 65.812 26.6991 67.216 27.2271 68.392C27.7551 69.568 28.4391 70.468 29.2791 71.092C30.1431 71.692 31.0311 71.992 31.9431 71.992C32.6631 71.992 33.3471 71.884 33.9951 71.668C34.6431 71.428 35.2431 71.044 35.7951 70.516C36.3471 69.988 36.8271 69.28 37.2351 68.392L37.9551 68.68C37.6911 69.472 37.2591 70.24 36.6591 70.984C36.0591 71.728 35.3031 72.34 34.3911 72.82C33.4791 73.276 32.4231 73.504 31.2231 73.504C29.4951 73.504 28.0071 73.108 26.7591 72.316C25.5351 71.524 24.5871 70.432 23.9151 69.04C23.2671 67.624 22.9431 66.004 22.9431 64.18C22.9431 62.068 23.2791 60.256 23.9511 58.744C24.6231 57.208 25.5711 56.032 26.7951 55.216C28.0191 54.376 29.4471 53.956 31.0791 53.956ZM46.338 48.484V54.496H51.666V55.216H46.338V69.148C46.338 70.276 46.542 71.068 46.95 71.524C47.358 71.98 47.922 72.208 48.642 72.208C49.362 72.208 49.986 71.92 50.514 71.344C51.042 70.744 51.498 69.748 51.882 68.356L52.602 68.536C52.362 69.928 51.882 71.104 51.162 72.064C50.466 73.024 49.386 73.504 47.922 73.504C47.106 73.504 46.434 73.396 45.906 73.18C45.378 72.988 44.91 72.7 44.502 72.316C43.974 71.764 43.602 71.104 43.386 70.336C43.194 69.568 43.098 68.548 43.098 67.276V55.216H39.642V54.496H43.098V48.988C43.698 48.964 44.274 48.916 44.826 48.844C45.378 48.772 45.882 48.652 46.338 48.484ZM77.9798 54.064V69.112C77.9798 70.192 78.1718 70.996 78.5558 71.524C78.9638 72.028 79.6838 72.28 80.7158 72.28V73.036C79.9718 72.964 79.2278 72.928 78.4838 72.928C77.7878 72.928 77.1158 72.964 76.4678 73.036C75.8438 73.108 75.2678 73.24 74.7398 73.432V69.184C74.1398 70.744 73.2878 71.86 72.1838 72.532C71.1038 73.18 69.9878 73.504 68.8358 73.504C67.9958 73.504 67.2638 73.384 66.6398 73.144C66.0158 72.904 65.4998 72.568 65.0918 72.136C64.6358 71.656 64.3238 71.032 64.1558 70.264C63.9878 69.496 63.9038 68.548 63.9038 67.42V58.384C63.9038 57.304 63.7118 56.512 63.3278 56.008C62.9438 55.48 62.2238 55.216 61.1678 55.216V54.46C61.9358 54.532 62.6798 54.568 63.3998 54.568C64.0958 54.568 64.7558 54.532 65.3798 54.46C66.0278 54.364 66.6158 54.232 67.1438 54.064V68.212C67.1438 68.956 67.1918 69.64 67.2878 70.264C67.3838 70.888 67.6238 71.392 68.0078 71.776C68.3918 72.16 69.0158 72.352 69.8798 72.352C70.8158 72.352 71.6438 72.064 72.3638 71.488C73.1078 70.912 73.6838 70.132 74.0918 69.148C74.5238 68.164 74.7398 67.06 74.7398 65.836V58.384C74.7398 57.304 74.5478 56.512 74.1638 56.008C73.7798 55.48 73.0598 55.216 72.0038 55.216V54.46C72.7718 54.532 73.5158 54.568 74.2358 54.568C74.9318 54.568 75.5918 54.532 76.2158 54.46C76.8638 54.364 77.4518 54.232 77.9798 54.064ZM88.9978 53.956C89.9578 53.956 90.7738 54.112 91.4458 54.424C92.1178 54.736 92.6098 55.024 92.9218 55.288C93.7138 55.936 94.1938 55.504 94.3618 53.992H95.1898C95.1418 54.664 95.1058 55.468 95.0818 56.404C95.0578 57.316 95.0458 58.552 95.0458 60.112H94.2178C94.0738 59.224 93.8218 58.36 93.4618 57.52C93.1258 56.68 92.6218 55.996 91.9498 55.468C91.2778 54.916 90.4018 54.64 89.3218 54.64C88.4818 54.64 87.7738 54.88 87.1978 55.36C86.6458 55.816 86.3698 56.5 86.3698 57.412C86.3698 58.132 86.5858 58.756 87.0178 59.284C87.4498 59.788 88.0138 60.268 88.7098 60.724C89.4058 61.156 90.1618 61.636 90.9778 62.164C91.8898 62.74 92.7178 63.328 93.4618 63.928C94.2058 64.528 94.7938 65.188 95.2258 65.908C95.6818 66.628 95.9098 67.48 95.9098 68.464C95.9098 69.568 95.6218 70.492 95.0458 71.236C94.4698 71.98 93.7138 72.544 92.7778 72.928C91.8658 73.312 90.8578 73.504 89.7538 73.504C89.2258 73.504 88.7218 73.456 88.2418 73.36C87.7858 73.288 87.3418 73.168 86.9098 73C86.6698 72.88 86.4178 72.736 86.1538 72.568C85.9138 72.4 85.6738 72.22 85.4338 72.028C85.1938 71.836 84.9778 71.848 84.7858 72.064C84.5938 72.256 84.4498 72.652 84.3538 73.252H83.5258C83.5738 72.484 83.6098 71.548 83.6338 70.444C83.6578 69.34 83.6698 67.876 83.6698 66.052H84.4978C84.6658 67.396 84.9058 68.572 85.2178 69.58C85.5298 70.588 86.0218 71.38 86.6938 71.956C87.3658 72.508 88.3018 72.784 89.5018 72.784C89.9818 72.784 90.4618 72.676 90.9418 72.46C91.4458 72.244 91.8658 71.884 92.2018 71.38C92.5378 70.876 92.7058 70.204 92.7058 69.364C92.7058 68.308 92.3218 67.444 91.5538 66.772C90.7858 66.1 89.8138 65.392 88.6378 64.648C87.7738 64.096 86.9578 63.544 86.1898 62.992C85.4458 62.44 84.8338 61.816 84.3538 61.12C83.8978 60.424 83.6698 59.584 83.6698 58.6C83.6698 57.52 83.9098 56.644 84.3898 55.972C84.8938 55.276 85.5538 54.772 86.3698 54.46C87.1858 54.124 88.0618 53.956 88.9978 53.956ZM112.959 48.484V54.496H118.287V55.216H112.959V69.148C112.959 70.276 113.163 71.068 113.571 71.524C113.979 71.98 114.543 72.208 115.263 72.208C115.983 72.208 116.607 71.92 117.135 71.344C117.663 70.744 118.119 69.748 118.503 68.356L119.223 68.536C118.983 69.928 118.503 71.104 117.783 72.064C117.087 73.024 116.007 73.504 114.543 73.504C113.727 73.504 113.055 73.396 112.527 73.18C111.999 72.988 111.531 72.7 111.123 72.316C110.595 71.764 110.223 71.104 110.007 70.336C109.815 69.568 109.719 68.548 109.719 67.276V55.216H106.263V54.496H109.719V48.988C110.319 48.964 110.895 48.916 111.447 48.844C111.999 48.772 112.503 48.652 112.959 48.484ZM128.638 53.956C130.75 53.956 132.394 54.604 133.57 55.9C134.77 57.172 135.37 59.164 135.37 61.876H122.662L122.626 61.192H131.914C131.962 60.016 131.866 58.936 131.626 57.952C131.386 56.944 131.002 56.14 130.474 55.54C129.97 54.94 129.31 54.64 128.494 54.64C127.39 54.64 126.406 55.192 125.542 56.296C124.702 57.4 124.198 59.152 124.03 61.552L124.138 61.696C124.09 62.056 124.054 62.452 124.03 62.884C124.006 63.316 123.994 63.748 123.994 64.18C123.994 65.812 124.258 67.216 124.786 68.392C125.314 69.568 125.998 70.468 126.838 71.092C127.702 71.692 128.59 71.992 129.502 71.992C130.222 71.992 130.906 71.884 131.554 71.668C132.202 71.428 132.802 71.044 133.354 70.516C133.906 69.988 134.386 69.28 134.794 68.392L135.514 68.68C135.25 69.472 134.818 70.24 134.218 70.984C133.618 71.728 132.862 72.34 131.95 72.82C131.038 73.276 129.982 73.504 128.782 73.504C127.054 73.504 125.566 73.108 124.318 72.316C123.094 71.524 122.146 70.432 121.474 69.04C120.826 67.624 120.502 66.004 120.502 64.18C120.502 62.068 120.838 60.256 121.51 58.744C122.182 57.208 123.13 56.032 124.354 55.216C125.578 54.376 127.006 53.956 128.638 53.956ZM143.825 44.776V69.652C143.825 70.66 144.029 71.344 144.437 71.704C144.869 72.064 145.577 72.244 146.561 72.244V73C146.153 72.976 145.529 72.952 144.689 72.928C143.873 72.88 143.045 72.856 142.205 72.856C141.389 72.856 140.561 72.88 139.721 72.928C138.881 72.952 138.257 72.976 137.849 73V72.244C138.833 72.244 139.529 72.064 139.937 71.704C140.369 71.344 140.585 70.66 140.585 69.652V49.096C140.585 48.016 140.393 47.224 140.009 46.72C139.625 46.192 138.905 45.928 137.849 45.928V45.172C138.617 45.244 139.361 45.28 140.081 45.28C140.777 45.28 141.437 45.244 142.061 45.172C142.709 45.076 143.297 44.944 143.825 44.776ZM154.125 44.776V69.652C154.125 70.66 154.329 71.344 154.737 71.704C155.169 72.064 155.877 72.244 156.861 72.244V73C156.453 72.976 155.829 72.952 154.989 72.928C154.173 72.88 153.345 72.856 152.505 72.856C151.689 72.856 150.861 72.88 150.021 72.928C149.181 72.952 148.557 72.976 148.149 73V72.244C149.133 72.244 149.829 72.064 150.237 71.704C150.669 71.344 150.885 70.66 150.885 69.652V49.096C150.885 48.016 150.693 47.224 150.309 46.72C149.925 46.192 149.205 45.928 148.149 45.928V45.172C148.917 45.244 149.661 45.28 150.381 45.28C151.077 45.28 151.737 45.244 152.361 45.172C153.009 45.076 153.597 44.944 154.125 44.776ZM183.458 54.46V55.18C183.002 55.228 182.582 55.432 182.198 55.792C181.814 56.152 181.454 56.788 181.118 57.7L175.214 73.18H174.602L167.978 57.232C167.522 56.296 167.066 55.732 166.61 55.54C166.178 55.324 165.818 55.216 165.53 55.216V54.46C166.058 54.532 166.61 54.592 167.186 54.64C167.762 54.664 168.386 54.676 169.058 54.676C169.802 54.676 170.582 54.652 171.398 54.604C172.238 54.556 173.018 54.508 173.738 54.46V55.216C173.138 55.216 172.598 55.264 172.118 55.36C171.662 55.432 171.374 55.684 171.254 56.116C171.134 56.524 171.278 57.232 171.686 58.24L176.114 69.22L175.898 69.292L180.002 58.564C180.314 57.772 180.434 57.148 180.362 56.692C180.314 56.212 180.074 55.852 179.642 55.612C179.21 55.372 178.562 55.228 177.698 55.18V54.46C178.13 54.484 178.502 54.508 178.814 54.532C179.126 54.532 179.426 54.544 179.714 54.568C180.026 54.568 180.362 54.568 180.722 54.568C181.274 54.568 181.766 54.556 182.198 54.532C182.654 54.508 183.074 54.484 183.458 54.46ZM175.214 73.18L173.99 76.312C173.75 76.912 173.498 77.416 173.234 77.824C172.994 78.232 172.73 78.568 172.442 78.832C172.058 79.192 171.602 79.432 171.074 79.552C170.546 79.696 170.066 79.768 169.634 79.768C169.178 79.768 168.758 79.684 168.374 79.516C168.014 79.348 167.726 79.096 167.51 78.76C167.294 78.448 167.186 78.064 167.186 77.608C167.186 77.032 167.354 76.564 167.69 76.204C168.026 75.868 168.494 75.7 169.094 75.7C169.598 75.7 170.03 75.844 170.39 76.132C170.75 76.42 170.93 76.84 170.93 77.392C170.93 77.8 170.834 78.136 170.642 78.4C170.45 78.664 170.222 78.868 169.958 79.012C170.006 79.036 170.042 79.048 170.066 79.048C170.114 79.048 170.15 79.048 170.174 79.048C170.822 79.048 171.398 78.82 171.902 78.364C172.406 77.932 172.85 77.224 173.234 76.24L174.53 72.892L175.214 73.18ZM193.362 53.956C194.898 53.956 196.278 54.292 197.502 54.964C198.726 55.636 199.698 56.692 200.418 58.132C201.162 59.572 201.534 61.444 201.534 63.748C201.534 66.052 201.162 67.924 200.418 69.364C199.698 70.78 198.726 71.824 197.502 72.496C196.278 73.168 194.898 73.504 193.362 73.504C191.85 73.504 190.47 73.168 189.222 72.496C187.998 71.824 187.014 70.78 186.27 69.364C185.55 67.924 185.19 66.052 185.19 63.748C185.19 61.444 185.55 59.572 186.27 58.132C187.014 56.692 187.998 55.636 189.222 54.964C190.47 54.292 191.85 53.956 193.362 53.956ZM193.362 54.676C191.994 54.676 190.866 55.384 189.978 56.8C189.114 58.216 188.682 60.532 188.682 63.748C188.682 66.964 189.114 69.28 189.978 70.696C190.866 72.088 191.994 72.784 193.362 72.784C194.73 72.784 195.846 72.088 196.71 70.696C197.598 69.28 198.042 66.964 198.042 63.748C198.042 60.532 197.598 58.216 196.71 56.8C195.846 55.384 194.73 54.676 193.362 54.676ZM220.609 54.064V69.112C220.609 70.192 220.801 70.996 221.185 71.524C221.593 72.028 222.313 72.28 223.345 72.28V73.036C222.601 72.964 221.857 72.928 221.113 72.928C220.417 72.928 219.745 72.964 219.097 73.036C218.473 73.108 217.897 73.24 217.369 73.432V69.184C216.769 70.744 215.917 71.86 214.813 72.532C213.733 73.18 212.617 73.504 211.465 73.504C210.625 73.504 209.893 73.384 209.269 73.144C208.645 72.904 208.129 72.568 207.721 72.136C207.265 71.656 206.953 71.032 206.785 70.264C206.617 69.496 206.533 68.548 206.533 67.42V58.384C206.533 57.304 206.341 56.512 205.957 56.008C205.573 55.48 204.853 55.216 203.797 55.216V54.46C204.565 54.532 205.309 54.568 206.029 54.568C206.725 54.568 207.385 54.532 208.009 54.46C208.657 54.364 209.245 54.232 209.773 54.064V68.212C209.773 68.956 209.821 69.64 209.917 70.264C210.013 70.888 210.253 71.392 210.637 71.776C211.021 72.16 211.645 72.352 212.509 72.352C213.445 72.352 214.273 72.064 214.993 71.488C215.737 70.912 216.313 70.132 216.721 69.148C217.153 68.164 217.369 67.06 217.369 65.836V58.384C217.369 57.304 217.177 56.512 216.793 56.008C216.409 55.48 215.689 55.216 214.633 55.216V54.46C215.401 54.532 216.145 54.568 216.865 54.568C217.561 54.568 218.221 54.532 218.845 54.46C219.493 54.364 220.081 54.232 220.609 54.064ZM240.002 54.46V55.216C239.402 55.216 238.874 55.264 238.418 55.36C237.962 55.432 237.662 55.672 237.518 56.08C237.374 56.488 237.482 57.208 237.842 58.24L241.586 68.968L241.334 68.932L246.626 54.316L247.346 54.604L240.758 73.18C240.662 73.18 240.566 73.18 240.47 73.18C240.374 73.18 240.266 73.18 240.146 73.18L234.242 57.232C233.858 56.272 233.474 55.696 233.09 55.504C232.73 55.312 232.418 55.216 232.154 55.216V54.46C232.634 54.532 233.126 54.592 233.63 54.64C234.158 54.664 234.722 54.676 235.322 54.676C236.066 54.676 236.846 54.652 237.662 54.604C238.502 54.556 239.282 54.508 240.002 54.46ZM259.766 54.46V55.18C259.31 55.228 258.878 55.432 258.47 55.792C258.086 56.128 257.738 56.764 257.426 57.7L252.206 73.18C252.11 73.18 252.014 73.18 251.918 73.18C251.822 73.18 251.714 73.18 251.594 73.18L245.798 58.456L246.626 54.316C246.77 54.316 246.902 54.316 247.022 54.316C247.166 54.316 247.31 54.316 247.454 54.316L253.07 69.184L252.782 69.4L256.346 58.564C256.61 57.748 256.706 57.112 256.634 56.656C256.586 56.176 256.346 55.828 255.914 55.612C255.506 55.372 254.87 55.228 254.006 55.18V54.46C254.438 54.484 254.81 54.508 255.122 54.532C255.434 54.532 255.734 54.544 256.022 54.568C256.334 54.568 256.67 54.568 257.03 54.568C257.582 54.568 258.074 54.556 258.506 54.532C258.962 54.508 259.382 54.484 259.766 54.46ZM265.639 44.812V58.276C266.263 56.644 267.127 55.516 268.231 54.892C269.359 54.268 270.535 53.956 271.759 53.956C272.671 53.956 273.427 54.076 274.027 54.316C274.651 54.556 275.167 54.892 275.575 55.324C276.031 55.804 276.355 56.404 276.547 57.124C276.739 57.844 276.835 58.816 276.835 60.04V69.652C276.835 70.66 277.039 71.344 277.447 71.704C277.879 72.064 278.587 72.244 279.571 72.244V73C279.163 72.976 278.539 72.952 277.699 72.928C276.859 72.88 276.043 72.856 275.251 72.856C274.459 72.856 273.679 72.88 272.911 72.928C272.167 72.952 271.603 72.976 271.219 73V72.244C272.083 72.244 272.695 72.064 273.055 71.704C273.415 71.344 273.595 70.66 273.595 69.652V59.248C273.595 58.504 273.535 57.82 273.415 57.196C273.295 56.572 273.019 56.068 272.587 55.684C272.179 55.3 271.543 55.108 270.679 55.108C269.695 55.108 268.819 55.384 268.051 55.936C267.307 56.488 266.719 57.256 266.287 58.24C265.855 59.224 265.639 60.352 265.639 61.624V69.652C265.639 70.66 265.819 71.344 266.179 71.704C266.539 72.064 267.151 72.244 268.015 72.244V73C267.631 72.976 267.055 72.952 266.287 72.928C265.543 72.88 264.775 72.856 263.983 72.856C263.191 72.856 262.375 72.88 261.535 72.928C260.695 72.952 260.071 72.976 259.663 73V72.244C260.647 72.244 261.343 72.064 261.751 71.704C262.183 71.344 262.399 70.66 262.399 69.652V49.132C262.399 48.052 262.207 47.26 261.823 46.756C261.439 46.228 260.719 45.964 259.663 45.964V45.208C260.431 45.28 261.175 45.316 261.895 45.316C262.591 45.316 263.251 45.28 263.875 45.208C264.523 45.112 265.111 44.98 265.639 44.812ZM289.971 53.956C291.507 53.956 292.887 54.292 294.111 54.964C295.335 55.636 296.307 56.692 297.027 58.132C297.771 59.572 298.143 61.444 298.143 63.748C298.143 66.052 297.771 67.924 297.027 69.364C296.307 70.78 295.335 71.824 294.111 72.496C292.887 73.168 291.507 73.504 289.971 73.504C288.459 73.504 287.079 73.168 285.831 72.496C284.607 71.824 283.623 70.78 282.879 69.364C282.159 67.924 281.799 66.052 281.799 63.748C281.799 61.444 282.159 59.572 282.879 58.132C283.623 56.692 284.607 55.636 285.831 54.964C287.079 54.292 288.459 53.956 289.971 53.956ZM289.971 54.676C288.603 54.676 287.475 55.384 286.587 56.8C285.723 58.216 285.291 60.532 285.291 63.748C285.291 66.964 285.723 69.28 286.587 70.696C287.475 72.088 288.603 72.784 289.971 72.784C291.339 72.784 292.455 72.088 293.319 70.696C294.207 69.28 294.651 66.964 294.651 63.748C294.651 60.532 294.207 58.216 293.319 56.8C292.455 55.384 291.339 54.676 289.971 54.676ZM315.694 54.46V55.216C315.094 55.216 314.566 55.264 314.11 55.36C313.654 55.432 313.354 55.672 313.21 56.08C313.066 56.488 313.174 57.208 313.534 58.24L317.278 68.968L317.026 68.932L322.318 54.316L323.038 54.604L316.45 73.18C316.354 73.18 316.258 73.18 316.162 73.18C316.066 73.18 315.958 73.18 315.838 73.18L309.934 57.232C309.55 56.272 309.166 55.696 308.782 55.504C308.422 55.312 308.11 55.216 307.846 55.216V54.46C308.326 54.532 308.818 54.592 309.322 54.64C309.85 54.664 310.414 54.676 311.014 54.676C311.758 54.676 312.538 54.652 313.354 54.604C314.194 54.556 314.974 54.508 315.694 54.46ZM335.458 54.46V55.18C335.002 55.228 334.57 55.432 334.162 55.792C333.778 56.128 333.43 56.764 333.118 57.7L327.898 73.18C327.802 73.18 327.706 73.18 327.61 73.18C327.514 73.18 327.406 73.18 327.286 73.18L321.49 58.456L322.318 54.316C322.462 54.316 322.594 54.316 322.714 54.316C322.858 54.316 323.002 54.316 323.146 54.316L328.762 69.184L328.474 69.4L332.038 58.564C332.302 57.748 332.398 57.112 332.326 56.656C332.278 56.176 332.038 55.828 331.606 55.612C331.198 55.372 330.562 55.228 329.698 55.18V54.46C330.13 54.484 330.502 54.508 330.814 54.532C331.126 54.532 331.426 54.544 331.714 54.568C332.026 54.568 332.362 54.568 332.722 54.568C333.274 54.568 333.766 54.556 334.198 54.532C334.654 54.508 335.074 54.484 335.458 54.46ZM345.024 53.956C347.136 53.956 348.78 54.604 349.956 55.9C351.156 57.172 351.756 59.164 351.756 61.876H339.048L339.012 61.192H348.3C348.348 60.016 348.252 58.936 348.012 57.952C347.772 56.944 347.388 56.14 346.86 55.54C346.356 54.94 345.696 54.64 344.88 54.64C343.776 54.64 342.792 55.192 341.928 56.296C341.088 57.4 340.584 59.152 340.416 61.552L340.524 61.696C340.476 62.056 340.44 62.452 340.416 62.884C340.392 63.316 340.38 63.748 340.38 64.18C340.38 65.812 340.644 67.216 341.172 68.392C341.7 69.568 342.384 70.468 343.224 71.092C344.088 71.692 344.976 71.992 345.888 71.992C346.608 71.992 347.292 71.884 347.94 71.668C348.588 71.428 349.188 71.044 349.74 70.516C350.292 69.988 350.772 69.28 351.18 68.392L351.9 68.68C351.636 69.472 351.204 70.24 350.604 70.984C350.004 71.728 349.248 72.34 348.336 72.82C347.424 73.276 346.368 73.504 345.168 73.504C343.44 73.504 341.952 73.108 340.704 72.316C339.48 71.524 338.532 70.432 337.86 69.04C337.212 67.624 336.888 66.004 336.888 64.18C336.888 62.068 337.224 60.256 337.896 58.744C338.568 57.208 339.516 56.032 340.74 55.216C341.964 54.376 343.392 53.956 345.024 53.956ZM368.564 73.252C367.58 73.252 366.728 73.072 366.008 72.712C365.288 72.328 364.736 71.8 364.352 71.128C363.992 70.456 363.812 69.676 363.812 68.788C363.812 67.732 364.052 66.868 364.532 66.196C365.036 65.524 365.672 64.984 366.44 64.576C367.208 64.168 368.012 63.832 368.852 63.568C369.716 63.28 370.532 63.016 371.3 62.776C372.068 62.512 372.692 62.212 373.172 61.876C373.676 61.54 373.928 61.096 373.928 60.544V58.312C373.928 57.304 373.772 56.536 373.46 56.008C373.172 55.48 372.776 55.132 372.272 54.964C371.768 54.772 371.204 54.676 370.58 54.676C369.98 54.676 369.332 54.76 368.636 54.928C367.964 55.096 367.424 55.444 367.016 55.972C367.472 56.068 367.868 56.308 368.204 56.692C368.54 57.076 368.708 57.568 368.708 58.168C368.708 58.768 368.516 59.248 368.132 59.608C367.748 59.944 367.256 60.112 366.656 60.112C365.96 60.112 365.444 59.896 365.108 59.464C364.796 59.008 364.64 58.504 364.64 57.952C364.64 57.328 364.796 56.824 365.108 56.44C365.42 56.056 365.816 55.696 366.296 55.36C366.848 54.976 367.556 54.652 368.42 54.388C369.308 54.1 370.304 53.956 371.408 53.956C372.392 53.956 373.232 54.076 373.928 54.316C374.624 54.532 375.2 54.856 375.656 55.288C376.28 55.864 376.688 56.572 376.88 57.412C377.072 58.228 377.168 59.212 377.168 60.364V70.372C377.168 70.972 377.252 71.404 377.42 71.668C377.612 71.932 377.9 72.064 378.284 72.064C378.548 72.064 378.8 72.004 379.04 71.884C379.28 71.764 379.568 71.572 379.904 71.308L380.3 71.92C379.796 72.304 379.316 72.628 378.86 72.892C378.404 73.132 377.792 73.252 377.024 73.252C376.328 73.252 375.752 73.132 375.296 72.892C374.84 72.652 374.492 72.304 374.252 71.848C374.036 71.368 373.928 70.768 373.928 70.048C373.28 71.128 372.5 71.932 371.588 72.46C370.7 72.988 369.692 73.252 368.564 73.252ZM369.86 71.812C370.652 71.812 371.384 71.584 372.056 71.128C372.752 70.672 373.376 69.988 373.928 69.076V62.02C373.64 62.428 373.22 62.776 372.668 63.064C372.116 63.328 371.516 63.604 370.868 63.892C370.22 64.156 369.596 64.48 368.996 64.864C368.42 65.224 367.94 65.704 367.556 66.304C367.172 66.904 366.98 67.684 366.98 68.644C366.98 69.604 367.232 70.372 367.736 70.948C368.264 71.524 368.972 71.812 369.86 71.812ZM392.578 53.956C393.226 53.956 393.79 54.088 394.27 54.352C394.774 54.616 395.158 54.964 395.422 55.396C395.71 55.804 395.854 56.272 395.854 56.8C395.854 57.4 395.662 57.928 395.278 58.384C394.918 58.84 394.426 59.068 393.802 59.068C393.298 59.068 392.854 58.912 392.47 58.6C392.086 58.264 391.894 57.796 391.894 57.196C391.894 56.74 392.014 56.356 392.254 56.044C392.518 55.708 392.806 55.444 393.118 55.252C392.95 55.012 392.698 54.892 392.362 54.892C391.618 54.892 390.934 55.12 390.31 55.576C389.686 56.008 389.158 56.572 388.726 57.268C388.294 57.964 387.958 58.708 387.718 59.5C387.478 60.268 387.358 60.988 387.358 61.66V69.292C387.358 70.468 387.694 71.26 388.366 71.668C389.062 72.052 389.998 72.244 391.174 72.244V73C390.622 72.976 389.842 72.952 388.834 72.928C387.826 72.88 386.758 72.856 385.63 72.856C384.814 72.856 383.998 72.88 383.182 72.928C382.39 72.952 381.79 72.976 381.382 73V72.244C382.366 72.244 383.062 72.064 383.47 71.704C383.902 71.344 384.118 70.66 384.118 69.652V58.384C384.118 57.304 383.926 56.512 383.542 56.008C383.158 55.48 382.438 55.216 381.382 55.216V54.46C382.15 54.532 382.894 54.568 383.614 54.568C384.31 54.568 384.97 54.532 385.594 54.46C386.242 54.364 386.83 54.232 387.358 54.064V58.564C387.622 57.868 387.994 57.172 388.474 56.476C388.978 55.756 389.578 55.156 390.274 54.676C390.97 54.196 391.738 53.956 392.578 53.956ZM405.458 53.956C407.57 53.956 409.214 54.604 410.39 55.9C411.59 57.172 412.19 59.164 412.19 61.876H399.482L399.446 61.192H408.734C408.782 60.016 408.686 58.936 408.446 57.952C408.206 56.944 407.822 56.14 407.294 55.54C406.79 54.94 406.13 54.64 405.314 54.64C404.21 54.64 403.226 55.192 402.362 56.296C401.522 57.4 401.018 59.152 400.85 61.552L400.958 61.696C400.91 62.056 400.874 62.452 400.85 62.884C400.826 63.316 400.814 63.748 400.814 64.18C400.814 65.812 401.078 67.216 401.606 68.392C402.134 69.568 402.818 70.468 403.658 71.092C404.522 71.692 405.41 71.992 406.322 71.992C407.042 71.992 407.726 71.884 408.374 71.668C409.022 71.428 409.622 71.044 410.174 70.516C410.726 69.988 411.206 69.28 411.614 68.392L412.334 68.68C412.07 69.472 411.638 70.24 411.038 70.984C410.438 71.728 409.682 72.34 408.77 72.82C407.858 73.276 406.802 73.504 405.602 73.504C403.874 73.504 402.386 73.108 401.138 72.316C399.914 71.524 398.966 70.432 398.294 69.04C397.646 67.624 397.322 66.004 397.322 64.18C397.322 62.068 397.658 60.256 398.33 58.744C399.002 57.208 399.95 56.032 401.174 55.216C402.398 54.376 403.826 53.956 405.458 53.956Z" fill="#282A3A"/>
</svg>
