<svg width="818" height="106" viewBox="0 0 818 106" fill="none" xmlns="http://www.w3.org/2000/svg">
<path d="M44.7782 4.016V4.976C44.1702 5.104 43.4982 5.472 42.7622 6.08C42.0262 6.656 41.4342 7.68 40.9862 9.152L31.9142 38.24C31.8502 38.24 31.7862 38.24 31.7222 38.24C31.6582 38.24 31.5942 38.24 31.5302 38.24C31.4662 38.24 31.4022 38.24 31.3382 38.24C31.2742 38.24 31.2102 38.24 31.1462 38.24L20.9702 8.048C20.5542 6.8 20.0902 5.984 19.5782 5.6C19.0662 5.216 18.5862 5.008 18.1382 4.976V4.016C18.7142 4.048 19.4342 4.08 20.2982 4.112C21.1622 4.144 21.9942 4.16 22.7942 4.16C24.0422 4.16 25.2102 4.144 26.2982 4.112C27.3862 4.08 28.2662 4.048 28.9382 4.016V4.976C27.9782 5.008 27.2102 5.104 26.6342 5.264C26.0902 5.424 25.7702 5.776 25.6742 6.32C25.6102 6.864 25.7702 7.76 26.1542 9.008L33.3062 31.136L32.6342 31.712L38.9702 11.792C39.5462 10.032 39.8022 8.672 39.7382 7.712C39.7062 6.72 39.3542 6.032 38.6822 5.648C38.0102 5.232 37.0022 5.008 35.6582 4.976V4.016C36.5862 4.048 37.5302 4.08 38.4902 4.112C39.4502 4.144 40.3462 4.16 41.1782 4.16C42.0102 4.16 42.6982 4.144 43.2422 4.112C43.7862 4.08 44.2982 4.048 44.7782 4.016ZM11.2262 4.016V4.976C10.3942 5.04 9.78619 5.2 9.40219 5.456C9.05019 5.712 8.87419 6.128 8.87419 6.704C8.90619 7.248 9.08219 8.016 9.40219 9.008L16.8422 31.712L15.6422 32.912L22.3622 11.456L23.0822 12.608L15.1622 38.24C15.0982 38.24 15.0342 38.24 14.9702 38.24C14.9062 38.24 14.8422 38.24 14.7782 38.24C14.7142 38.24 14.6502 38.24 14.5862 38.24C14.5222 38.24 14.4582 38.24 14.3942 38.24L4.21819 8.048C3.80219 6.8 3.27419 5.984 2.63419 5.6C1.99419 5.216 1.41819 5.008 0.906187 4.976V4.016C1.54619 4.048 2.33019 4.08 3.25819 4.112C4.21819 4.144 5.14619 4.16 6.04219 4.16C7.09819 4.16 8.07419 4.144 8.97019 4.112C9.89819 4.08 10.6502 4.048 11.2262 4.016ZM54.4232 12.608C57.2392 12.608 59.4312 13.472 60.9992 15.2C62.5992 16.896 63.3992 19.552 63.3992 23.168H46.4552L46.4072 22.256H58.7912C58.8552 20.688 58.7272 19.248 58.4072 17.936C58.0872 16.592 57.5752 15.52 56.8712 14.72C56.1992 13.92 55.3192 13.52 54.2312 13.52C52.7592 13.52 51.4472 14.256 50.2952 15.728C49.1752 17.2 48.5032 19.536 48.2792 22.736L48.4232 22.928C48.3592 23.408 48.3112 23.936 48.2792 24.512C48.2472 25.088 48.2312 25.664 48.2312 26.24C48.2312 28.416 48.5832 30.288 49.2872 31.856C49.9912 33.424 50.9032 34.624 52.0232 35.456C53.1752 36.256 54.3592 36.656 55.5752 36.656C56.5352 36.656 57.4472 36.512 58.3112 36.224C59.1752 35.904 59.9752 35.392 60.7112 34.688C61.4472 33.984 62.0872 33.04 62.6312 31.856L63.5912 32.24C63.2392 33.296 62.6632 34.32 61.8632 35.312C61.0632 36.304 60.0552 37.12 58.8392 37.76C57.6232 38.368 56.2152 38.672 54.6152 38.672C52.3112 38.672 50.3272 38.144 48.6632 37.088C47.0312 36.032 45.7672 34.576 44.8712 32.72C44.0072 30.832 43.5752 28.672 43.5752 26.24C43.5752 23.424 44.0232 21.008 44.9192 18.992C45.8152 16.944 47.0792 15.376 48.7112 14.288C50.3432 13.168 52.2472 12.608 54.4232 12.608ZM70.7031 3.344C71.4071 3.344 71.9831 3.488 72.4311 3.776C72.8791 4.064 73.2471 4.432 73.5351 4.88C73.8871 5.392 74.1111 5.952 74.2071 6.56C74.3031 7.168 74.3511 7.664 74.3511 8.048C74.3511 9.616 73.9511 11.04 73.1511 12.32C72.3511 13.6 71.1031 14.64 69.4071 15.44L68.9751 14.576C69.9671 14.16 70.8151 13.504 71.5191 12.608C72.2551 11.712 72.6231 10.8 72.6231 9.872C72.6231 9.488 72.5751 9.152 72.4791 8.864C71.9671 9.28 71.3751 9.488 70.7031 9.488C69.8711 9.488 69.1511 9.216 68.5431 8.672C67.9351 8.128 67.6311 7.376 67.6311 6.416C67.6311 5.52 67.9351 4.784 68.5431 4.208C69.1511 3.632 69.8711 3.344 70.7031 3.344ZM93.1247 12.608C93.9887 12.608 94.7407 12.784 95.3807 13.136C96.0527 13.488 96.5647 13.952 96.9167 14.528C97.3007 15.072 97.4927 15.696 97.4927 16.4C97.4927 17.2 97.2367 17.904 96.7247 18.512C96.2447 19.12 95.5887 19.424 94.7567 19.424C94.0847 19.424 93.4927 19.216 92.9807 18.8C92.4687 18.352 92.2127 17.728 92.2127 16.928C92.2127 16.32 92.3727 15.808 92.6927 15.392C93.0447 14.944 93.4287 14.592 93.8447 14.336C93.6207 14.016 93.2847 13.856 92.8367 13.856C91.8447 13.856 90.9327 14.16 90.1007 14.768C89.2687 15.344 88.5647 16.096 87.9887 17.024C87.4127 17.952 86.9647 18.944 86.6447 20C86.3247 21.024 86.1647 21.984 86.1647 22.88V33.056C86.1647 34.624 86.6127 35.68 87.5087 36.224C88.4367 36.736 89.6847 36.992 91.2527 36.992V38C90.5167 37.968 89.4767 37.936 88.1327 37.904C86.7887 37.84 85.3647 37.808 83.8607 37.808C82.7727 37.808 81.6847 37.84 80.5967 37.904C79.5407 37.936 78.7407 37.968 78.1967 38V36.992C79.5087 36.992 80.4367 36.752 80.9807 36.272C81.5567 35.792 81.8447 34.88 81.8447 33.536V18.512C81.8447 17.072 81.5887 16.016 81.0767 15.344C80.5647 14.64 79.6047 14.288 78.1967 14.288V13.28C79.2207 13.376 80.2127 13.424 81.1727 13.424C82.1007 13.424 82.9807 13.376 83.8127 13.28C84.6767 13.152 85.4607 12.976 86.1647 12.752V18.752C86.5167 17.824 87.0127 16.896 87.6527 15.968C88.3247 15.008 89.1247 14.208 90.0527 13.568C90.9807 12.928 92.0047 12.608 93.1247 12.608ZM110.298 12.608C113.114 12.608 115.306 13.472 116.874 15.2C118.474 16.896 119.274 19.552 119.274 23.168H102.33L102.282 22.256H114.666C114.73 20.688 114.602 19.248 114.282 17.936C113.962 16.592 113.45 15.52 112.746 14.72C112.074 13.92 111.194 13.52 110.106 13.52C108.634 13.52 107.322 14.256 106.17 15.728C105.05 17.2 104.378 19.536 104.154 22.736L104.298 22.928C104.234 23.408 104.186 23.936 104.154 24.512C104.122 25.088 104.106 25.664 104.106 26.24C104.106 28.416 104.458 30.288 105.162 31.856C105.866 33.424 106.778 34.624 107.898 35.456C109.05 36.256 110.234 36.656 111.45 36.656C112.41 36.656 113.322 36.512 114.186 36.224C115.05 35.904 115.85 35.392 116.586 34.688C117.322 33.984 117.962 33.04 118.506 31.856L119.466 32.24C119.114 33.296 118.538 34.32 117.738 35.312C116.938 36.304 115.93 37.12 114.714 37.76C113.498 38.368 112.09 38.672 110.49 38.672C108.186 38.672 106.202 38.144 104.538 37.088C102.906 36.032 101.642 34.576 100.746 32.72C99.8822 30.832 99.4502 28.672 99.4502 26.24C99.4502 23.424 99.8982 21.008 100.794 18.992C101.69 16.944 102.954 15.376 104.586 14.288C106.218 13.168 108.122 12.608 110.298 12.608ZM136.693 14.288L136.981 13.328H151.141L150.853 14.288H136.693ZM152.149 1.184C151.541 1.184 151.013 1.312 150.565 1.568C150.117 1.824 149.717 2.112 149.365 2.432C148.789 2.976 148.277 3.808 147.829 4.928C147.413 6.016 147.013 7.28 146.629 8.72C146.277 10.16 145.893 11.68 145.477 13.28L136.597 46.352C135.829 46.384 135.077 46.448 134.341 46.544C133.605 46.64 132.917 46.8 132.277 47.024L141.301 13.28C141.973 10.72 142.677 8.608 143.413 6.944C144.181 5.28 145.109 3.92 146.197 2.864C146.933 2.128 147.829 1.552 148.885 1.136C149.973 0.687998 151.077 0.463997 152.197 0.463997C153.669 0.463997 154.789 0.799997 155.557 1.472C156.357 2.112 156.757 2.912 156.757 3.872C156.757 4.416 156.613 4.944 156.325 5.456C156.037 5.968 155.653 6.384 155.173 6.704C154.693 7.024 154.149 7.184 153.541 7.184C152.933 7.184 152.453 7.04 152.101 6.752C151.749 6.464 151.589 6.064 151.621 5.552C151.621 4.752 151.877 4.08 152.389 3.536C152.901 2.96 153.557 2.56 154.357 2.336C154.357 2.048 154.149 1.792 153.733 1.568C153.317 1.312 152.789 1.184 152.149 1.184ZM155.234 37.136C156.002 37.136 156.882 36.656 157.874 35.696C158.866 34.704 159.874 33.376 160.898 31.712C161.922 30.048 162.866 28.16 163.73 26.048C164.594 23.936 165.282 21.744 165.794 19.472L164.978 24.656C163.762 28.048 162.546 30.784 161.33 32.864C160.114 34.912 158.882 36.4 157.634 37.328C156.386 38.224 155.122 38.672 153.842 38.672C152.338 38.672 151.202 38.128 150.434 37.04C149.698 35.952 149.33 34.56 149.33 32.864C149.33 31.328 149.586 29.664 150.098 27.872C150.61 26.048 151.314 24.24 152.21 22.448C153.138 20.656 154.194 19.024 155.378 17.552C156.562 16.08 157.842 14.896 159.218 14C160.626 13.104 162.05 12.656 163.49 12.656C164.61 12.656 165.458 13.216 166.034 14.336C166.642 15.424 166.77 16.96 166.418 18.944L165.89 19.232C166.114 17.536 166.002 16.176 165.554 15.152C165.106 14.096 164.37 13.568 163.346 13.568C162.514 13.568 161.634 13.984 160.706 14.816C159.81 15.616 158.93 16.72 158.066 18.128C157.234 19.504 156.466 21.056 155.762 22.784C155.09 24.512 154.546 26.304 154.13 28.16C153.746 29.984 153.554 31.744 153.554 33.44C153.554 34.816 153.698 35.776 153.986 36.32C154.306 36.864 154.722 37.136 155.234 37.136ZM167.33 13.328C168.098 13.296 168.866 13.232 169.634 13.136C170.402 13.04 171.106 12.88 171.746 12.656L165.746 33.872C165.682 34.16 165.586 34.544 165.458 35.024C165.362 35.472 165.362 35.888 165.458 36.272C165.586 36.656 165.922 36.848 166.466 36.848C167.106 36.848 167.73 36.496 168.338 35.792C168.946 35.088 169.554 33.808 170.162 31.952L170.738 30.176H171.65L170.45 33.68C170.002 34.96 169.458 35.968 168.818 36.704C168.21 37.408 167.57 37.904 166.898 38.192C166.226 38.512 165.57 38.672 164.93 38.672C163.682 38.672 162.802 38.256 162.29 37.424C161.874 36.688 161.762 35.84 161.954 34.88C162.146 33.888 162.37 32.896 162.626 31.904L167.33 13.328ZM179.831 38H175.655L181.415 17.408C181.735 16.32 181.831 15.552 181.703 15.104C181.607 14.656 181.287 14.432 180.743 14.432C180.039 14.432 179.399 14.8 178.823 15.536C178.247 16.272 177.639 17.536 176.999 19.328L176.375 21.104H175.463L176.663 17.6C177.143 16.256 177.703 15.232 178.343 14.528C179.015 13.824 179.703 13.344 180.407 13.088C181.143 12.8 181.831 12.656 182.471 12.656C183.431 12.656 184.103 12.864 184.487 13.28C184.903 13.696 185.127 14.24 185.159 14.912C185.223 15.584 185.175 16.32 185.015 17.12C184.887 17.888 184.727 18.64 184.535 19.376L179.831 38ZM192.167 13.856C191.431 13.856 190.663 14.208 189.863 14.912C189.095 15.584 188.295 16.576 187.463 17.888C186.663 19.168 185.847 20.72 185.015 22.544C184.215 24.336 183.415 26.336 182.615 28.544C181.847 30.752 181.095 33.136 180.359 35.696L181.559 29.552C182.615 26.416 183.591 23.776 184.487 21.632C185.415 19.488 186.327 17.76 187.223 16.448C188.119 15.104 189.031 14.144 189.959 13.568C190.919 12.96 191.927 12.656 192.983 12.656C193.879 12.656 194.567 12.912 195.047 13.424C195.559 13.936 195.815 14.592 195.815 15.392C195.815 16.032 195.655 16.624 195.335 17.168C195.015 17.68 194.599 18.096 194.087 18.416C193.607 18.704 193.063 18.848 192.455 18.848C191.911 18.848 191.447 18.704 191.063 18.416C190.711 18.096 190.535 17.664 190.535 17.12C190.535 16.608 190.631 16.16 190.823 15.776C191.015 15.36 191.271 15.008 191.591 14.72C191.911 14.432 192.279 14.208 192.695 14.048C192.631 13.984 192.551 13.936 192.455 13.904C192.391 13.872 192.295 13.856 192.167 13.856ZM200.269 38H196.093L201.853 17.408C201.949 17.12 202.029 16.752 202.093 16.304C202.189 15.824 202.189 15.392 202.093 15.008C201.997 14.624 201.693 14.432 201.181 14.432C200.477 14.432 199.837 14.8 199.261 15.536C198.685 16.272 198.077 17.536 197.437 19.328L196.813 21.104H195.901L197.101 17.6C197.581 16.256 198.141 15.232 198.781 14.528C199.453 13.824 200.141 13.344 200.845 13.088C201.581 12.8 202.269 12.656 202.909 12.656C203.869 12.656 204.557 12.88 204.973 13.328C205.389 13.744 205.613 14.304 205.645 15.008C205.709 15.68 205.661 16.4 205.501 17.168C205.341 17.936 205.165 18.672 204.973 19.376L200.269 38ZM213.853 18.224C214.077 17.552 214.221 16.912 214.285 16.304C214.381 15.696 214.333 15.2 214.141 14.816C213.981 14.4 213.597 14.192 212.989 14.192C212.093 14.192 211.101 14.752 210.013 15.872C208.957 16.96 207.869 18.496 206.749 20.48C205.661 22.432 204.605 24.72 203.581 27.344C202.557 29.936 201.645 32.72 200.845 35.696L202.429 28.016C203.901 24.176 205.277 21.136 206.557 18.896C207.837 16.656 209.117 15.056 210.397 14.096C211.709 13.136 213.101 12.656 214.573 12.656C215.597 12.656 216.333 12.896 216.781 13.376C217.261 13.824 217.549 14.416 217.645 15.152C217.741 15.888 217.709 16.672 217.549 17.504C217.421 18.336 217.261 19.136 217.069 19.904L212.173 38H207.853L213.853 18.224ZM225.853 18.224C226.173 17.232 226.333 16.32 226.333 15.488C226.333 14.624 225.981 14.192 225.277 14.192C224.317 14.192 223.309 14.752 222.253 15.872C221.197 16.992 220.109 18.592 218.989 20.672C217.869 22.72 216.749 25.136 215.629 27.92C214.541 30.672 213.485 33.712 212.461 37.04L213.565 30.896C214.813 27.568 215.965 24.752 217.021 22.448C218.077 20.112 219.117 18.224 220.141 16.784C221.165 15.344 222.221 14.304 223.309 13.664C224.397 12.992 225.581 12.656 226.861 12.656C228.205 12.656 229.117 13.04 229.597 13.808C230.077 14.576 230.269 15.52 230.173 16.64C230.109 17.728 229.901 18.816 229.549 19.904L224.893 33.92C224.573 34.912 224.461 35.664 224.557 36.176C224.653 36.656 225.021 36.896 225.661 36.896C226.269 36.896 226.861 36.56 227.437 35.888C228.045 35.216 228.685 33.92 229.357 32L229.981 30.224H230.893L229.693 33.728C229.245 35.072 228.685 36.096 228.013 36.8C227.373 37.504 226.685 37.984 225.949 38.24C225.245 38.528 224.557 38.672 223.885 38.672C223.085 38.672 222.445 38.544 221.965 38.288C221.517 38.064 221.165 37.76 220.909 37.376C220.525 36.768 220.397 36.016 220.525 35.12C220.653 34.192 220.909 33.136 221.293 31.952L225.853 18.224ZM237.305 27.104C239.097 26.496 240.713 25.904 242.153 25.328C243.625 24.72 244.793 24.08 245.657 23.408C246.809 22.48 247.721 21.36 248.393 20.048C249.065 18.736 249.401 17.296 249.401 15.728C249.401 14.8 249.337 14.208 249.209 13.952C249.081 13.696 248.889 13.568 248.633 13.568C247.833 13.568 246.969 13.92 246.041 14.624C245.113 15.328 244.201 16.304 243.305 17.552C242.409 18.768 241.577 20.16 240.809 21.728C240.073 23.296 239.481 24.976 239.033 26.768C238.585 28.528 238.361 30.288 238.361 32.048C238.361 33.68 238.665 34.864 239.273 35.6C239.881 36.304 240.681 36.656 241.673 36.656C242.825 36.656 244.041 36.304 245.321 35.6C246.601 34.896 247.849 33.648 249.065 31.856L249.833 32.24C249.225 33.296 248.425 34.32 247.433 35.312C246.441 36.304 245.321 37.12 244.073 37.76C242.857 38.368 241.561 38.672 240.185 38.672C238.905 38.672 237.785 38.416 236.825 37.904C235.865 37.392 235.129 36.64 234.617 35.648C234.105 34.624 233.849 33.376 233.849 31.904C233.849 30.528 234.105 28.992 234.617 27.296C235.129 25.568 235.849 23.856 236.777 22.16C237.737 20.432 238.873 18.848 240.185 17.408C241.497 15.968 242.953 14.816 244.553 13.952C246.153 13.088 247.865 12.656 249.689 12.656C250.681 12.656 251.513 12.928 252.185 13.472C252.889 13.984 253.241 14.768 253.241 15.824C253.241 17.104 252.857 18.304 252.089 19.424C251.353 20.512 250.361 21.52 249.113 22.448C247.897 23.344 246.569 24.144 245.129 24.848C243.689 25.552 242.281 26.16 240.905 26.672C239.529 27.184 238.313 27.6 237.257 27.92L237.305 27.104ZM259.66 38H255.484L261.244 17.408C261.564 16.32 261.66 15.552 261.532 15.104C261.436 14.656 261.116 14.432 260.572 14.432C259.868 14.432 259.228 14.8 258.652 15.536C258.076 16.272 257.468 17.536 256.828 19.328L256.204 21.104H255.292L256.492 17.6C256.972 16.256 257.532 15.232 258.172 14.528C258.844 13.824 259.532 13.344 260.236 13.088C260.972 12.8 261.66 12.656 262.3 12.656C263.26 12.656 263.932 12.864 264.316 13.28C264.732 13.696 264.956 14.24 264.988 14.912C265.052 15.584 265.004 16.32 264.844 17.12C264.716 17.888 264.556 18.64 264.364 19.376L259.66 38ZM271.996 13.856C271.26 13.856 270.492 14.208 269.692 14.912C268.924 15.584 268.124 16.576 267.292 17.888C266.492 19.168 265.676 20.72 264.844 22.544C264.044 24.336 263.244 26.336 262.444 28.544C261.676 30.752 260.924 33.136 260.188 35.696L261.388 29.552C262.444 26.416 263.42 23.776 264.316 21.632C265.244 19.488 266.156 17.76 267.052 16.448C267.948 15.104 268.86 14.144 269.788 13.568C270.748 12.96 271.756 12.656 272.812 12.656C273.708 12.656 274.396 12.912 274.876 13.424C275.388 13.936 275.644 14.592 275.644 15.392C275.644 16.032 275.484 16.624 275.164 17.168C274.844 17.68 274.428 18.096 273.916 18.416C273.436 18.704 272.892 18.848 272.284 18.848C271.74 18.848 271.276 18.704 270.892 18.416C270.54 18.096 270.364 17.664 270.364 17.12C270.364 16.608 270.46 16.16 270.652 15.776C270.844 15.36 271.1 15.008 271.42 14.72C271.74 14.432 272.108 14.208 272.524 14.048C272.46 13.984 272.38 13.936 272.284 13.904C272.22 13.872 272.124 13.856 271.996 13.856ZM277.121 37.28C277.377 37.408 277.649 37.52 277.937 37.616C278.257 37.68 278.721 37.712 279.329 37.712C280.737 37.712 281.889 37.296 282.785 36.464C283.713 35.6 284.177 34.368 284.177 32.768C284.177 31.776 283.985 30.8 283.601 29.84C283.249 28.848 282.609 27.712 281.681 26.432C280.945 25.408 280.241 24.368 279.569 23.312C278.897 22.224 278.561 20.944 278.561 19.472C278.561 18.096 278.897 16.912 279.569 15.92C280.241 14.896 281.137 14.096 282.257 13.52C283.409 12.944 284.657 12.656 286.001 12.656C286.929 12.656 287.841 12.768 288.737 12.992C289.633 13.216 290.369 13.632 290.945 14.24C291.553 14.816 291.857 15.68 291.857 16.832C291.857 17.12 291.777 17.472 291.617 17.888C291.489 18.272 291.265 18.608 290.945 18.896C290.625 19.184 290.193 19.328 289.649 19.328C289.137 19.328 288.689 19.152 288.305 18.8C287.921 18.416 287.729 17.92 287.729 17.312C287.729 16.736 287.841 16.192 288.065 15.68C288.321 15.136 288.657 14.608 289.073 14.096C288.465 13.712 287.665 13.52 286.673 13.52C285.489 13.52 284.497 13.92 283.697 14.72C282.897 15.52 282.497 16.64 282.497 18.08C282.497 18.816 282.609 19.472 282.833 20.048C283.057 20.592 283.377 21.168 283.793 21.776C284.241 22.384 284.769 23.152 285.377 24.08C286.177 25.296 286.849 26.464 287.393 27.584C287.937 28.704 288.209 29.888 288.209 31.136C288.209 32.608 287.825 33.92 287.057 35.072C286.321 36.192 285.329 37.072 284.081 37.712C282.833 38.352 281.457 38.672 279.953 38.672C278.865 38.672 277.825 38.512 276.833 38.192C275.841 37.872 275.025 37.376 274.385 36.704C273.777 36 273.473 35.072 273.473 33.92C273.473 33.472 273.617 33.008 273.905 32.528C274.161 32.016 274.641 31.76 275.345 31.76C276.113 31.76 276.657 32.08 276.977 32.72C277.297 33.328 277.457 34.016 277.457 34.784C277.457 35.296 277.409 35.76 277.313 36.176C277.249 36.56 277.185 36.928 277.121 37.28ZM298.618 32.528C299.322 32.528 299.898 32.672 300.346 32.96C300.794 33.248 301.162 33.616 301.45 34.064C301.802 34.576 302.026 35.136 302.122 35.744C302.218 36.352 302.266 36.848 302.266 37.232C302.266 38.8 301.866 40.224 301.066 41.504C300.266 42.784 299.018 43.824 297.322 44.624L296.89 43.76C297.882 43.344 298.73 42.688 299.434 41.792C300.17 40.896 300.538 39.984 300.538 39.056C300.538 38.672 300.49 38.336 300.394 38.048C299.882 38.464 299.29 38.672 298.618 38.672C297.786 38.672 297.066 38.4 296.458 37.856C295.85 37.312 295.546 36.56 295.546 35.6C295.546 34.704 295.85 33.968 296.458 33.392C297.066 32.816 297.786 32.528 298.618 32.528ZM335.279 14.192C334.447 14.192 333.503 14.784 332.447 15.968C331.423 17.12 330.367 18.704 329.279 20.72C328.223 22.704 327.215 24.944 326.255 27.44C325.327 29.936 324.543 32.528 323.903 35.216L324.767 30.032C326.143 25.84 327.471 22.48 328.751 19.952C330.031 17.392 331.311 15.536 332.591 14.384C333.903 13.232 335.263 12.656 336.671 12.656C338.175 12.656 339.375 13.216 340.271 14.336C341.199 15.456 341.663 17.152 341.663 19.424C341.663 20.864 341.455 22.448 341.039 24.176C340.655 25.904 340.063 27.616 339.263 29.312C338.495 31.008 337.535 32.576 336.383 34.016C335.263 35.424 333.967 36.56 332.495 37.424C331.023 38.256 329.391 38.672 327.599 38.672C326.639 38.672 325.775 38.384 325.007 37.808C324.271 37.232 323.775 36.4 323.519 35.312L323.903 34.352C324.351 35.536 324.863 36.368 325.439 36.848C326.047 37.328 326.751 37.568 327.551 37.568C328.639 37.568 329.679 37.152 330.671 36.32C331.663 35.456 332.575 34.32 333.407 32.912C334.239 31.504 334.959 29.952 335.567 28.256C336.207 26.528 336.687 24.816 337.007 23.12C337.359 21.392 337.535 19.808 337.535 18.368C337.535 16.96 337.327 15.92 336.911 15.248C336.527 14.544 335.983 14.192 335.279 14.192ZM328.079 5.984C328.847 5.952 329.599 5.888 330.335 5.792C331.103 5.696 331.807 5.536 332.447 5.312L321.887 42.224C321.503 43.568 321.695 44.48 322.463 44.96C323.231 45.44 324.335 45.68 325.775 45.68L325.487 46.688C324.847 46.656 323.935 46.608 322.751 46.544C321.599 46.512 320.367 46.496 319.055 46.496C318.063 46.496 317.055 46.512 316.031 46.544C315.007 46.608 314.239 46.656 313.727 46.688L314.015 45.68C315.167 45.68 315.999 45.456 316.511 45.008C317.023 44.592 317.439 43.824 317.759 42.704L328.079 5.984ZM318.095 20.864C319.343 19.648 320.511 18.448 321.599 17.264C322.687 16.048 323.743 14.608 324.767 12.944C325.791 11.28 326.831 9.184 327.887 6.656L328.031 7.424C327.327 9.6 326.479 11.52 325.487 13.184C324.527 14.816 323.471 16.304 322.319 17.648C321.167 18.96 319.935 20.24 318.623 21.488L318.095 20.864ZM362.533 21.392C361.381 24.592 360.277 27.296 359.221 29.504C358.165 31.712 357.109 33.488 356.053 34.832C355.029 36.176 353.973 37.152 352.885 37.76C351.829 38.368 350.725 38.672 349.573 38.672C348.165 38.672 347.141 38.352 346.501 37.712C345.861 37.072 345.541 36.208 345.541 35.12C345.541 34.032 345.765 32.8 346.213 31.424L350.869 17.408C351.189 16.448 351.301 15.712 351.205 15.2C351.109 14.688 350.741 14.432 350.101 14.432C349.493 14.432 348.885 14.768 348.277 15.44C347.701 16.112 347.077 17.408 346.405 19.328L345.781 21.104H344.869L346.069 17.6C346.549 16.256 347.109 15.232 347.749 14.528C348.421 13.824 349.109 13.344 349.813 13.088C350.549 12.8 351.237 12.656 351.877 12.656C353.285 12.656 354.213 12.992 354.661 13.664C355.141 14.304 355.317 15.136 355.189 16.16C355.093 17.184 354.853 18.256 354.469 19.376L349.909 33.104C349.013 35.792 349.365 37.136 350.965 37.136C351.733 37.136 352.549 36.8 353.413 36.128C354.277 35.424 355.157 34.432 356.053 33.152C356.949 31.84 357.829 30.288 358.693 28.496C359.589 26.672 360.437 24.656 361.237 22.448C362.069 20.208 362.821 17.808 363.493 15.248L362.533 21.392ZM362.389 33.92C362.165 34.784 362.053 35.504 362.053 36.08C362.085 36.624 362.421 36.896 363.061 36.896C363.765 36.896 364.405 36.528 364.981 35.792C365.589 35.024 366.197 33.76 366.805 32L367.429 30.224H368.341L367.141 33.728C366.693 35.072 366.133 36.096 365.461 36.8C364.821 37.504 364.133 37.984 363.397 38.24C362.693 38.528 362.005 38.672 361.333 38.672C360.821 38.672 360.341 38.56 359.893 38.336C359.445 38.112 359.109 37.792 358.885 37.376C358.629 36.832 358.533 36.144 358.597 35.312C358.693 34.48 358.917 33.36 359.269 31.952L363.973 13.328C364.773 13.296 365.541 13.232 366.277 13.136C367.045 13.04 367.733 12.88 368.341 12.656L362.389 33.92ZM376.519 38H372.343L378.103 17.408C378.423 16.32 378.519 15.552 378.391 15.104C378.295 14.656 377.975 14.432 377.431 14.432C376.727 14.432 376.087 14.8 375.511 15.536C374.935 16.272 374.327 17.536 373.687 19.328L373.063 21.104H372.151L373.351 17.6C373.831 16.256 374.391 15.232 375.031 14.528C375.703 13.824 376.391 13.344 377.095 13.088C377.831 12.8 378.519 12.656 379.159 12.656C380.119 12.656 380.791 12.864 381.175 13.28C381.591 13.696 381.815 14.24 381.847 14.912C381.911 15.584 381.863 16.32 381.703 17.12C381.575 17.888 381.415 18.64 381.223 19.376L376.519 38ZM388.855 13.856C388.119 13.856 387.351 14.208 386.551 14.912C385.783 15.584 384.983 16.576 384.151 17.888C383.351 19.168 382.535 20.72 381.703 22.544C380.903 24.336 380.103 26.336 379.303 28.544C378.535 30.752 377.783 33.136 377.047 35.696L378.247 29.552C379.303 26.416 380.279 23.776 381.175 21.632C382.103 19.488 383.015 17.76 383.911 16.448C384.807 15.104 385.719 14.144 386.647 13.568C387.607 12.96 388.615 12.656 389.671 12.656C390.567 12.656 391.255 12.912 391.735 13.424C392.247 13.936 392.503 14.592 392.503 15.392C392.503 16.032 392.343 16.624 392.023 17.168C391.703 17.68 391.287 18.096 390.775 18.416C390.295 18.704 389.751 18.848 389.143 18.848C388.599 18.848 388.135 18.704 387.751 18.416C387.399 18.096 387.223 17.664 387.223 17.12C387.223 16.608 387.319 16.16 387.511 15.776C387.703 15.36 387.959 15.008 388.279 14.72C388.599 14.432 388.967 14.208 389.383 14.048C389.319 13.984 389.239 13.936 389.143 13.904C389.079 13.872 388.983 13.856 388.855 13.856ZM413.9 19.808C413.004 19.36 412.172 18.704 411.404 17.84C410.636 16.976 410.3 15.904 410.396 14.624C410.46 13.888 410.716 13.376 411.164 13.088C411.644 12.768 412.092 12.608 412.508 12.608C413.628 12.608 414.396 13.248 414.812 14.528C415.228 15.776 415.324 17.392 415.1 19.376C414.876 21.264 414.492 23.136 413.948 24.992C413.404 26.848 412.7 28.592 411.836 30.224C411.004 31.856 409.996 33.312 408.812 34.592C407.628 35.872 406.3 36.88 404.828 37.616C403.356 38.32 401.724 38.672 399.932 38.672C398.492 38.672 397.356 38.384 396.524 37.808C395.724 37.2 395.164 36.448 394.844 35.552C394.524 34.624 394.396 33.68 394.46 32.72C394.588 30.928 395.132 29.008 396.092 26.96C397.084 24.88 398.38 22.784 399.98 20.672C401.612 18.528 403.484 16.464 405.596 14.48C405.084 14.672 404.54 14.944 403.964 15.296C403.388 15.616 402.828 15.952 402.284 16.304C401.74 16.624 401.212 16.912 400.7 17.168C400.188 17.392 399.708 17.504 399.26 17.504C398.652 17.504 398.124 17.312 397.676 16.928C397.26 16.512 396.78 16.304 396.236 16.304C395.724 16.304 395.292 16.528 394.94 16.976C394.62 17.392 394.268 18.16 393.884 19.28L393.356 21.056H392.444L393.5 17.552C394.044 15.632 394.716 14.336 395.516 13.664C396.348 12.992 397.18 12.656 398.012 12.656C398.62 12.656 399.132 12.816 399.548 13.136C399.964 13.456 400.38 13.776 400.796 14.096C401.244 14.384 401.772 14.528 402.38 14.528C403.148 14.528 403.868 14.416 404.54 14.192C405.244 13.936 405.868 13.552 406.412 13.04L406.892 12.128L407.9 12.608C406.62 14.176 405.468 15.744 404.444 17.312C403.452 18.88 402.588 20.464 401.852 22.064C401.148 23.664 400.572 25.28 400.124 26.912C399.708 28.544 399.42 30.208 399.26 31.904C399.132 33.76 399.26 35.088 399.644 35.888C400.06 36.688 400.62 37.088 401.324 37.088C402.828 37.088 404.22 36.688 405.5 35.888C406.78 35.088 407.916 34.032 408.908 32.72C409.932 31.408 410.796 29.984 411.5 28.448C412.236 26.88 412.796 25.344 413.18 23.84C413.596 22.336 413.836 20.992 413.9 19.808ZM420.774 27.104C422.566 26.496 424.182 25.904 425.622 25.328C427.094 24.72 428.262 24.08 429.126 23.408C430.278 22.48 431.19 21.36 431.862 20.048C432.534 18.736 432.87 17.296 432.87 15.728C432.87 14.8 432.806 14.208 432.678 13.952C432.55 13.696 432.358 13.568 432.102 13.568C431.302 13.568 430.438 13.92 429.51 14.624C428.582 15.328 427.67 16.304 426.774 17.552C425.878 18.768 425.046 20.16 424.278 21.728C423.542 23.296 422.95 24.976 422.502 26.768C422.054 28.528 421.83 30.288 421.83 32.048C421.83 33.68 422.134 34.864 422.742 35.6C423.35 36.304 424.15 36.656 425.142 36.656C426.294 36.656 427.51 36.304 428.79 35.6C430.07 34.896 431.318 33.648 432.534 31.856L433.302 32.24C432.694 33.296 431.894 34.32 430.902 35.312C429.91 36.304 428.79 37.12 427.542 37.76C426.326 38.368 425.03 38.672 423.654 38.672C422.374 38.672 421.254 38.416 420.294 37.904C419.334 37.392 418.598 36.64 418.086 35.648C417.574 34.624 417.318 33.376 417.318 31.904C417.318 30.528 417.574 28.992 418.086 27.296C418.598 25.568 419.318 23.856 420.246 22.16C421.206 20.432 422.342 18.848 423.654 17.408C424.966 15.968 426.422 14.816 428.022 13.952C429.622 13.088 431.334 12.656 433.158 12.656C434.15 12.656 434.982 12.928 435.654 13.472C436.358 13.984 436.71 14.768 436.71 15.824C436.71 17.104 436.326 18.304 435.558 19.424C434.822 20.512 433.83 21.52 432.582 22.448C431.366 23.344 430.038 24.144 428.598 24.848C427.158 25.552 425.75 26.16 424.374 26.672C422.998 27.184 421.782 27.6 420.726 27.92L420.774 27.104ZM450.904 36.08L447.688 39.584L444.04 17.504C443.88 16.512 443.688 15.824 443.464 15.44C443.24 15.056 442.92 14.864 442.504 14.864C442.152 14.864 441.752 15.152 441.304 15.728C440.856 16.272 440.312 17.456 439.672 19.28L439.048 21.056H438.136L439.336 17.552C440.008 15.6 440.84 14.304 441.832 13.664C442.824 12.992 443.832 12.656 444.856 12.656C445.848 12.656 446.616 12.976 447.16 13.616C447.704 14.224 448.088 15.376 448.312 17.072L450.904 36.08ZM440.392 44.768C441.768 44.032 443.224 43.024 444.76 41.744C446.328 40.496 447.944 38.8 449.608 36.656C451.496 34.256 453.208 31.568 454.744 28.592C456.312 25.584 457.4 22.56 458.008 19.52C457.496 19.232 456.936 18.88 456.328 18.464C455.752 18.016 455.272 17.504 454.888 16.928C454.504 16.32 454.328 15.648 454.36 14.912C454.424 14.176 454.68 13.616 455.128 13.232C455.576 12.848 456.136 12.656 456.808 12.656C457.672 12.656 458.296 12.992 458.68 13.664C459.096 14.304 459.304 15.264 459.304 16.544C459.304 18.176 459.032 19.936 458.488 21.824C457.944 23.68 457.208 25.568 456.28 27.488C455.384 29.408 454.376 31.264 453.256 33.056C452.136 34.816 451 36.416 449.848 37.856C449.336 38.496 448.632 39.296 447.736 40.256C446.84 41.216 445.768 42.192 444.52 43.184C443.304 44.208 441.928 45.088 440.392 45.824C439.432 46.272 438.6 46.576 437.896 46.736C437.224 46.928 436.664 47.024 436.216 47.024C435.576 47.024 435.016 46.848 434.536 46.496C434.056 46.176 433.816 45.696 433.816 45.056C433.816 44.352 434.088 43.808 434.632 43.424C435.144 43.072 435.736 42.896 436.408 42.896C437.144 42.896 437.832 43.088 438.472 43.472C439.144 43.856 439.784 44.288 440.392 44.768ZM475.022 13.616C473.998 13.616 473.006 14.032 472.046 14.864C471.118 15.664 470.254 16.768 469.454 18.176C468.686 19.552 467.998 21.104 467.39 22.832C466.814 24.56 466.366 26.352 466.046 28.208C465.726 30.064 465.566 31.84 465.566 33.536C465.566 34.976 465.79 36.032 466.238 36.704C466.718 37.376 467.406 37.712 468.302 37.712C469.326 37.712 470.302 37.312 471.23 36.512C472.19 35.68 473.07 34.576 473.87 33.2C474.67 31.792 475.358 30.224 475.934 28.496C476.51 26.768 476.958 24.992 477.278 23.168C477.598 21.312 477.758 19.52 477.758 17.792C477.758 16.32 477.534 15.264 477.086 14.624C476.638 13.952 475.95 13.616 475.022 13.616ZM461.438 31.136C461.438 29.728 461.63 28.192 462.014 26.528C462.398 24.864 462.974 23.216 463.742 21.584C464.51 19.952 465.438 18.464 466.526 17.12C467.646 15.776 468.942 14.704 470.414 13.904C471.886 13.072 473.518 12.656 475.31 12.656C477.294 12.656 478.878 13.28 480.062 14.528C481.278 15.744 481.886 17.632 481.886 20.192C481.886 21.6 481.694 23.136 481.31 24.8C480.926 26.464 480.35 28.112 479.582 29.744C478.814 31.376 477.87 32.864 476.75 34.208C475.662 35.552 474.382 36.64 472.91 37.472C471.438 38.272 469.806 38.672 468.014 38.672C466.03 38.672 464.43 38.048 463.214 36.8C462.03 35.552 461.438 33.664 461.438 31.136ZM489.675 38H485.499L491.259 17.408C491.579 16.32 491.675 15.552 491.547 15.104C491.451 14.656 491.131 14.432 490.587 14.432C489.883 14.432 489.243 14.8 488.667 15.536C488.091 16.272 487.483 17.536 486.843 19.328L486.219 21.104H485.307L486.507 17.6C486.987 16.256 487.547 15.232 488.187 14.528C488.859 13.824 489.547 13.344 490.251 13.088C490.987 12.8 491.675 12.656 492.315 12.656C493.275 12.656 493.947 12.864 494.331 13.28C494.747 13.696 494.971 14.24 495.003 14.912C495.067 15.584 495.019 16.32 494.859 17.12C494.731 17.888 494.571 18.64 494.379 19.376L489.675 38ZM502.011 13.856C501.275 13.856 500.507 14.208 499.707 14.912C498.939 15.584 498.139 16.576 497.307 17.888C496.507 19.168 495.691 20.72 494.859 22.544C494.059 24.336 493.259 26.336 492.459 28.544C491.691 30.752 490.939 33.136 490.203 35.696L491.403 29.552C492.459 26.416 493.435 23.776 494.331 21.632C495.259 19.488 496.171 17.76 497.067 16.448C497.963 15.104 498.875 14.144 499.803 13.568C500.763 12.96 501.771 12.656 502.827 12.656C503.723 12.656 504.411 12.912 504.891 13.424C505.403 13.936 505.659 14.592 505.659 15.392C505.659 16.032 505.499 16.624 505.179 17.168C504.859 17.68 504.443 18.096 503.931 18.416C503.451 18.704 502.907 18.848 502.299 18.848C501.755 18.848 501.291 18.704 500.907 18.416C500.555 18.096 500.379 17.664 500.379 17.12C500.379 16.608 500.475 16.16 500.667 15.776C500.859 15.36 501.115 15.008 501.435 14.72C501.755 14.432 502.123 14.208 502.539 14.048C502.475 13.984 502.395 13.936 502.299 13.904C502.235 13.872 502.139 13.856 502.011 13.856ZM507.137 37.28C507.393 37.408 507.665 37.52 507.953 37.616C508.273 37.68 508.737 37.712 509.345 37.712C510.753 37.712 511.905 37.296 512.801 36.464C513.729 35.6 514.193 34.368 514.193 32.768C514.193 31.776 514.001 30.8 513.617 29.84C513.265 28.848 512.625 27.712 511.697 26.432C510.961 25.408 510.257 24.368 509.585 23.312C508.913 22.224 508.577 20.944 508.577 19.472C508.577 18.096 508.913 16.912 509.585 15.92C510.257 14.896 511.153 14.096 512.273 13.52C513.425 12.944 514.673 12.656 516.017 12.656C516.945 12.656 517.857 12.768 518.753 12.992C519.649 13.216 520.385 13.632 520.961 14.24C521.569 14.816 521.873 15.68 521.873 16.832C521.873 17.12 521.793 17.472 521.633 17.888C521.505 18.272 521.281 18.608 520.961 18.896C520.641 19.184 520.209 19.328 519.665 19.328C519.153 19.328 518.705 19.152 518.321 18.8C517.937 18.416 517.745 17.92 517.745 17.312C517.745 16.736 517.857 16.192 518.081 15.68C518.337 15.136 518.673 14.608 519.089 14.096C518.481 13.712 517.681 13.52 516.689 13.52C515.505 13.52 514.513 13.92 513.713 14.72C512.913 15.52 512.513 16.64 512.513 18.08C512.513 18.816 512.625 19.472 512.849 20.048C513.073 20.592 513.393 21.168 513.809 21.776C514.257 22.384 514.785 23.152 515.393 24.08C516.193 25.296 516.865 26.464 517.409 27.584C517.953 28.704 518.225 29.888 518.225 31.136C518.225 32.608 517.841 33.92 517.073 35.072C516.337 36.192 515.345 37.072 514.097 37.712C512.849 38.352 511.473 38.672 509.969 38.672C508.881 38.672 507.841 38.512 506.849 38.192C505.857 37.872 505.041 37.376 504.401 36.704C503.793 36 503.489 35.072 503.489 33.92C503.489 33.472 503.633 33.008 503.921 32.528C504.177 32.016 504.657 31.76 505.361 31.76C506.129 31.76 506.673 32.08 506.993 32.72C507.313 33.328 507.473 34.016 507.473 34.784C507.473 35.296 507.425 35.76 507.329 36.176C507.265 36.56 507.201 36.928 507.137 37.28ZM528.634 32.528C529.338 32.528 529.914 32.672 530.362 32.96C530.81 33.248 531.178 33.616 531.466 34.064C531.818 34.576 532.042 35.136 532.138 35.744C532.234 36.352 532.282 36.848 532.282 37.232C532.282 38.8 531.882 40.224 531.082 41.504C530.282 42.784 529.034 43.824 527.338 44.624L526.906 43.76C527.898 43.344 528.746 42.688 529.45 41.792C530.186 40.896 530.554 39.984 530.554 39.056C530.554 38.672 530.506 38.336 530.41 38.048C529.898 38.464 529.306 38.672 528.634 38.672C527.802 38.672 527.082 38.4 526.474 37.856C525.866 37.312 525.562 36.56 525.562 35.6C525.562 34.704 525.866 33.968 526.474 33.392C527.082 32.816 527.802 32.528 528.634 32.528ZM555.263 38.336C553.951 38.336 552.815 38.096 551.855 37.616C550.895 37.104 550.159 36.4 549.647 35.504C549.167 34.608 548.927 33.568 548.927 32.384C548.927 30.976 549.247 29.824 549.887 28.928C550.559 28.032 551.407 27.312 552.431 26.768C553.455 26.224 554.527 25.776 555.647 25.424C556.799 25.04 557.887 24.688 558.911 24.368C559.935 24.016 560.767 23.616 561.407 23.168C562.079 22.72 562.415 22.128 562.415 21.392V18.416C562.415 17.072 562.207 16.048 561.791 15.344C561.407 14.64 560.879 14.176 560.207 13.952C559.535 13.696 558.783 13.568 557.951 13.568C557.151 13.568 556.287 13.68 555.359 13.904C554.463 14.128 553.743 14.592 553.199 15.296C553.807 15.424 554.335 15.744 554.783 16.256C555.231 16.768 555.455 17.424 555.455 18.224C555.455 19.024 555.199 19.664 554.687 20.144C554.175 20.592 553.519 20.816 552.719 20.816C551.791 20.816 551.103 20.528 550.655 19.952C550.239 19.344 550.031 18.672 550.031 17.936C550.031 17.104 550.239 16.432 550.655 15.92C551.071 15.408 551.599 14.928 552.239 14.48C552.975 13.968 553.919 13.536 555.071 13.184C556.255 12.8 557.583 12.608 559.055 12.608C560.367 12.608 561.487 12.768 562.415 13.088C563.343 13.376 564.111 13.808 564.719 14.384C565.551 15.152 566.095 16.096 566.351 17.216C566.607 18.304 566.735 19.616 566.735 21.152V34.496C566.735 35.296 566.847 35.872 567.071 36.224C567.327 36.576 567.711 36.752 568.223 36.752C568.575 36.752 568.911 36.672 569.231 36.512C569.551 36.352 569.935 36.096 570.383 35.744L570.911 36.56C570.239 37.072 569.599 37.504 568.991 37.856C568.383 38.176 567.567 38.336 566.543 38.336C565.615 38.336 564.847 38.176 564.239 37.856C563.631 37.536 563.167 37.072 562.847 36.464C562.559 35.824 562.415 35.024 562.415 34.064C561.551 35.504 560.511 36.576 559.295 37.28C558.111 37.984 556.767 38.336 555.263 38.336ZM556.991 36.416C558.047 36.416 559.023 36.112 559.919 35.504C560.847 34.896 561.679 33.984 562.415 32.768V23.36C562.031 23.904 561.471 24.368 560.735 24.752C559.999 25.104 559.199 25.472 558.335 25.856C557.471 26.208 556.639 26.64 555.839 27.152C555.071 27.632 554.431 28.272 553.919 29.072C553.407 29.872 553.151 30.912 553.151 32.192C553.151 33.472 553.487 34.496 554.159 35.264C554.863 36.032 555.807 36.416 556.991 36.416ZM588.481 12.608C589.697 12.608 590.705 12.768 591.505 13.088C592.337 13.408 593.025 13.856 593.569 14.432C594.177 15.072 594.609 15.872 594.865 16.832C595.121 17.792 595.249 19.088 595.249 20.72V33.536C595.249 34.88 595.521 35.792 596.065 36.272C596.641 36.752 597.585 36.992 598.897 36.992V38C598.353 37.968 597.521 37.936 596.401 37.904C595.281 37.84 594.193 37.808 593.137 37.808C592.081 37.808 591.041 37.84 590.017 37.904C589.025 37.936 588.273 37.968 587.761 38V36.992C588.913 36.992 589.729 36.752 590.209 36.272C590.689 35.792 590.929 34.88 590.929 33.536V19.664C590.929 18.672 590.849 17.76 590.689 16.928C590.529 16.096 590.161 15.424 589.585 14.912C589.041 14.4 588.193 14.144 587.041 14.144C585.697 14.144 584.513 14.528 583.489 15.296C582.497 16.064 581.713 17.12 581.137 18.464C580.593 19.776 580.321 21.248 580.321 22.88V33.536C580.321 34.88 580.561 35.792 581.041 36.272C581.521 36.752 582.337 36.992 583.489 36.992V38C582.977 37.968 582.209 37.936 581.185 37.904C580.193 37.84 579.169 37.808 578.113 37.808C577.057 37.808 575.969 37.84 574.849 37.904C573.729 37.936 572.897 37.968 572.353 38V36.992C573.665 36.992 574.593 36.752 575.137 36.272C575.713 35.792 576.001 34.88 576.001 33.536V18.512C576.001 17.072 575.745 16.016 575.233 15.344C574.721 14.64 573.761 14.288 572.353 14.288V13.28C573.377 13.376 574.369 13.424 575.329 13.424C576.257 13.424 577.137 13.376 577.969 13.28C578.833 13.152 579.617 12.976 580.321 12.752V18.416C581.153 16.24 582.305 14.736 583.777 13.904C585.281 13.04 586.849 12.608 588.481 12.608ZM622.834 0.367998V32.768C622.834 34.208 623.09 35.28 623.602 35.984C624.146 36.656 625.106 36.992 626.482 36.992V38C625.49 37.904 624.498 37.856 623.506 37.856C622.578 37.856 621.682 37.904 620.818 38C619.986 38.096 619.218 38.272 618.514 38.528V6.128C618.514 4.688 618.258 3.632 617.746 2.96C617.234 2.256 616.274 1.904 614.866 1.904V0.895997C615.89 0.991998 616.882 1.04 617.842 1.04C618.77 1.04 619.65 0.991998 620.482 0.895997C621.346 0.767999 622.13 0.591999 622.834 0.367998ZM612.754 12.608C614.162 12.608 615.474 12.944 616.69 13.616C617.938 14.288 618.77 15.44 619.186 17.072L618.562 17.552C618.114 16.208 617.41 15.232 616.45 14.624C615.522 14.016 614.418 13.712 613.138 13.712C611.25 13.712 609.666 14.688 608.386 16.64C607.138 18.592 606.53 21.6 606.562 25.664C606.562 28.256 606.802 30.416 607.282 32.144C607.794 33.84 608.53 35.12 609.49 35.984C610.482 36.816 611.682 37.232 613.09 37.232C614.434 37.232 615.65 36.656 616.738 35.504C617.826 34.352 618.482 32.656 618.706 30.416L619.282 31.088C619.026 33.52 618.242 35.392 616.93 36.704C615.65 38.016 613.906 38.672 611.698 38.672C609.714 38.672 607.97 38.192 606.466 37.232C604.994 36.272 603.858 34.832 603.058 32.912C602.29 30.992 601.906 28.576 601.906 25.664C601.906 22.752 602.402 20.336 603.394 18.416C604.418 16.464 605.746 15.008 607.378 14.048C609.042 13.088 610.834 12.608 612.754 12.608ZM643.477 27.104C645.269 26.496 646.885 25.904 648.325 25.328C649.797 24.72 650.965 24.08 651.829 23.408C652.981 22.48 653.893 21.36 654.565 20.048C655.237 18.736 655.573 17.296 655.573 15.728C655.573 14.8 655.509 14.208 655.381 13.952C655.253 13.696 655.061 13.568 654.805 13.568C654.005 13.568 653.141 13.92 652.213 14.624C651.285 15.328 650.373 16.304 649.477 17.552C648.581 18.768 647.749 20.16 646.981 21.728C646.245 23.296 645.653 24.976 645.205 26.768C644.757 28.528 644.533 30.288 644.533 32.048C644.533 33.68 644.837 34.864 645.445 35.6C646.053 36.304 646.853 36.656 647.845 36.656C648.997 36.656 650.213 36.304 651.493 35.6C652.773 34.896 654.021 33.648 655.237 31.856L656.005 32.24C655.397 33.296 654.597 34.32 653.605 35.312C652.613 36.304 651.493 37.12 650.245 37.76C649.029 38.368 647.733 38.672 646.357 38.672C645.077 38.672 643.957 38.416 642.997 37.904C642.037 37.392 641.301 36.64 640.789 35.648C640.277 34.624 640.021 33.376 640.021 31.904C640.021 30.528 640.277 28.992 640.789 27.296C641.301 25.568 642.021 23.856 642.949 22.16C643.909 20.432 645.045 18.848 646.357 17.408C647.669 15.968 649.125 14.816 650.725 13.952C652.325 13.088 654.037 12.656 655.861 12.656C656.853 12.656 657.685 12.928 658.357 13.472C659.061 13.984 659.413 14.768 659.413 15.824C659.413 17.104 659.029 18.304 658.261 19.424C657.525 20.512 656.533 21.52 655.285 22.448C654.069 23.344 652.741 24.144 651.301 24.848C649.861 25.552 648.453 26.16 647.077 26.672C645.701 27.184 644.485 27.6 643.429 27.92L643.477 27.104ZM666.359 37.136C667.127 37.136 668.007 36.656 668.999 35.696C669.991 34.704 670.999 33.376 672.023 31.712C673.047 30.048 673.991 28.16 674.855 26.048C675.719 23.936 676.407 21.744 676.919 19.472L676.103 24.656C674.887 28.048 673.671 30.784 672.455 32.864C671.239 34.912 670.007 36.4 668.759 37.328C667.511 38.224 666.247 38.672 664.967 38.672C663.463 38.672 662.327 38.128 661.559 37.04C660.823 35.952 660.455 34.56 660.455 32.864C660.455 31.328 660.711 29.664 661.223 27.872C661.735 26.048 662.439 24.24 663.335 22.448C664.263 20.656 665.319 19.024 666.503 17.552C667.687 16.08 668.967 14.896 670.343 14C671.751 13.104 673.175 12.656 674.615 12.656C675.735 12.656 676.583 13.216 677.159 14.336C677.767 15.424 677.895 16.96 677.543 18.944L677.015 19.232C677.239 17.536 677.127 16.176 676.679 15.152C676.231 14.096 675.495 13.568 674.471 13.568C673.639 13.568 672.759 13.984 671.831 14.816C670.935 15.616 670.055 16.72 669.191 18.128C668.359 19.504 667.591 21.056 666.887 22.784C666.215 24.512 665.671 26.304 665.255 28.16C664.871 29.984 664.679 31.744 664.679 33.44C664.679 34.816 664.823 35.776 665.111 36.32C665.431 36.864 665.847 37.136 666.359 37.136ZM678.455 13.328C679.223 13.296 679.991 13.232 680.759 13.136C681.527 13.04 682.231 12.88 682.871 12.656L676.871 33.872C676.807 34.16 676.711 34.544 676.583 35.024C676.487 35.472 676.487 35.888 676.583 36.272C676.711 36.656 677.047 36.848 677.591 36.848C678.231 36.848 678.855 36.496 679.463 35.792C680.071 35.088 680.679 33.808 681.287 31.952L681.863 30.176H682.775L681.575 33.68C681.127 34.96 680.583 35.968 679.943 36.704C679.335 37.408 678.695 37.904 678.023 38.192C677.351 38.512 676.695 38.672 676.055 38.672C674.807 38.672 673.927 38.256 673.415 37.424C672.999 36.688 672.887 35.84 673.079 34.88C673.271 33.888 673.495 32.896 673.751 31.904L678.455 13.328ZM703.148 13.328L703.004 14.288H688.076L688.316 13.328H703.148ZM690.956 33.92C690.668 34.976 690.732 35.744 691.148 36.224C691.596 36.672 692.172 36.896 692.876 36.896C693.58 36.896 694.284 36.592 694.988 35.984C695.724 35.376 696.444 34.08 697.148 32.096L697.82 30.224H698.732L697.724 33.248C697.02 35.328 696.108 36.752 694.988 37.52C693.9 38.288 692.62 38.672 691.148 38.672C689.836 38.672 688.828 38.4 688.124 37.856C687.452 37.28 687.052 36.48 686.924 35.456C686.796 34.432 686.924 33.264 687.308 31.952L694.748 6.032C695.516 6 696.268 5.936 697.004 5.84C697.772 5.744 698.46 5.584 699.068 5.36L690.956 33.92ZM705.305 27.104C707.097 26.496 708.713 25.904 710.153 25.328C711.625 24.72 712.793 24.08 713.657 23.408C714.809 22.48 715.721 21.36 716.393 20.048C717.065 18.736 717.401 17.296 717.401 15.728C717.401 14.8 717.337 14.208 717.209 13.952C717.081 13.696 716.889 13.568 716.633 13.568C715.833 13.568 714.969 13.92 714.041 14.624C713.113 15.328 712.201 16.304 711.305 17.552C710.409 18.768 709.577 20.16 708.809 21.728C708.073 23.296 707.481 24.976 707.033 26.768C706.585 28.528 706.361 30.288 706.361 32.048C706.361 33.68 706.665 34.864 707.273 35.6C707.881 36.304 708.681 36.656 709.673 36.656C710.825 36.656 712.041 36.304 713.321 35.6C714.601 34.896 715.849 33.648 717.065 31.856L717.833 32.24C717.225 33.296 716.425 34.32 715.433 35.312C714.441 36.304 713.321 37.12 712.073 37.76C710.857 38.368 709.561 38.672 708.185 38.672C706.905 38.672 705.785 38.416 704.825 37.904C703.865 37.392 703.129 36.64 702.617 35.648C702.105 34.624 701.849 33.376 701.849 31.904C701.849 30.528 702.105 28.992 702.617 27.296C703.129 25.568 703.849 23.856 704.777 22.16C705.737 20.432 706.873 18.848 708.185 17.408C709.497 15.968 710.953 14.816 712.553 13.952C714.153 13.088 715.865 12.656 717.689 12.656C718.681 12.656 719.513 12.928 720.185 13.472C720.889 13.984 721.241 14.768 721.241 15.824C721.241 17.104 720.857 18.304 720.089 19.424C719.353 20.512 718.361 21.52 717.113 22.448C715.897 23.344 714.569 24.144 713.129 24.848C711.689 25.552 710.281 26.16 708.905 26.672C707.529 27.184 706.313 27.6 705.257 27.92L705.305 27.104ZM727.66 38H723.484L729.244 17.408C729.564 16.32 729.66 15.552 729.532 15.104C729.436 14.656 729.116 14.432 728.572 14.432C727.868 14.432 727.228 14.8 726.652 15.536C726.076 16.272 725.468 17.536 724.828 19.328L724.204 21.104H723.292L724.492 17.6C724.972 16.256 725.532 15.232 726.172 14.528C726.844 13.824 727.532 13.344 728.236 13.088C728.972 12.8 729.66 12.656 730.3 12.656C731.26 12.656 731.932 12.864 732.316 13.28C732.732 13.696 732.956 14.24 732.988 14.912C733.052 15.584 733.004 16.32 732.844 17.12C732.716 17.888 732.556 18.64 732.364 19.376L727.66 38ZM739.996 13.856C739.26 13.856 738.492 14.208 737.692 14.912C736.924 15.584 736.124 16.576 735.292 17.888C734.492 19.168 733.676 20.72 732.844 22.544C732.044 24.336 731.244 26.336 730.444 28.544C729.676 30.752 728.924 33.136 728.188 35.696L729.388 29.552C730.444 26.416 731.42 23.776 732.316 21.632C733.244 19.488 734.156 17.76 735.052 16.448C735.948 15.104 736.86 14.144 737.788 13.568C738.748 12.96 739.756 12.656 740.812 12.656C741.708 12.656 742.396 12.912 742.876 13.424C743.388 13.936 743.644 14.592 743.644 15.392C743.644 16.032 743.484 16.624 743.164 17.168C742.844 17.68 742.428 18.096 741.916 18.416C741.436 18.704 740.892 18.848 740.284 18.848C739.74 18.848 739.276 18.704 738.892 18.416C738.54 18.096 738.364 17.664 738.364 17.12C738.364 16.608 738.46 16.16 738.652 15.776C738.844 15.36 739.1 15.008 739.42 14.72C739.74 14.432 740.108 14.208 740.524 14.048C740.46 13.984 740.38 13.936 740.284 13.904C740.22 13.872 740.124 13.856 739.996 13.856ZM745.121 37.28C745.377 37.408 745.649 37.52 745.937 37.616C746.257 37.68 746.721 37.712 747.329 37.712C748.737 37.712 749.889 37.296 750.785 36.464C751.713 35.6 752.177 34.368 752.177 32.768C752.177 31.776 751.985 30.8 751.601 29.84C751.249 28.848 750.609 27.712 749.681 26.432C748.945 25.408 748.241 24.368 747.569 23.312C746.897 22.224 746.561 20.944 746.561 19.472C746.561 18.096 746.897 16.912 747.569 15.92C748.241 14.896 749.137 14.096 750.257 13.52C751.409 12.944 752.657 12.656 754.001 12.656C754.929 12.656 755.841 12.768 756.737 12.992C757.633 13.216 758.369 13.632 758.945 14.24C759.553 14.816 759.857 15.68 759.857 16.832C759.857 17.12 759.777 17.472 759.617 17.888C759.489 18.272 759.265 18.608 758.945 18.896C758.625 19.184 758.193 19.328 757.649 19.328C757.137 19.328 756.689 19.152 756.305 18.8C755.921 18.416 755.729 17.92 755.729 17.312C755.729 16.736 755.841 16.192 756.065 15.68C756.321 15.136 756.657 14.608 757.073 14.096C756.465 13.712 755.665 13.52 754.673 13.52C753.489 13.52 752.497 13.92 751.697 14.72C750.897 15.52 750.497 16.64 750.497 18.08C750.497 18.816 750.609 19.472 750.833 20.048C751.057 20.592 751.377 21.168 751.793 21.776C752.241 22.384 752.769 23.152 753.377 24.08C754.177 25.296 754.849 26.464 755.393 27.584C755.937 28.704 756.209 29.888 756.209 31.136C756.209 32.608 755.825 33.92 755.057 35.072C754.321 36.192 753.329 37.072 752.081 37.712C750.833 38.352 749.457 38.672 747.953 38.672C746.865 38.672 745.825 38.512 744.833 38.192C743.841 37.872 743.025 37.376 742.385 36.704C741.777 36 741.473 35.072 741.473 33.92C741.473 33.472 741.617 33.008 741.905 32.528C742.161 32.016 742.641 31.76 743.345 31.76C744.113 31.76 744.657 32.08 744.977 32.72C745.297 33.328 745.457 34.016 745.457 34.784C745.457 35.296 745.409 35.76 745.313 36.176C745.249 36.56 745.185 36.928 745.121 37.28ZM785.675 12.608C787.723 12.608 789.563 13.056 791.195 13.952C792.827 14.848 794.123 16.256 795.083 18.176C796.075 20.096 796.571 22.592 796.571 25.664C796.571 28.736 796.075 31.232 795.083 33.152C794.123 35.04 792.827 36.432 791.195 37.328C789.563 38.224 787.723 38.672 785.675 38.672C783.659 38.672 781.819 38.224 780.155 37.328C778.523 36.432 777.211 35.04 776.219 33.152C775.259 31.232 774.779 28.736 774.779 25.664C774.779 22.592 775.259 20.096 776.219 18.176C777.211 16.256 778.523 14.848 780.155 13.952C781.819 13.056 783.659 12.608 785.675 12.608ZM785.675 13.568C783.851 13.568 782.347 14.512 781.163 16.4C780.011 18.288 779.435 21.376 779.435 25.664C779.435 29.952 780.011 33.04 781.163 34.928C782.347 36.784 783.851 37.712 785.675 37.712C787.499 37.712 788.987 36.784 790.139 34.928C791.323 33.04 791.915 29.952 791.915 25.664C791.915 21.376 791.323 18.288 790.139 16.4C788.987 14.512 787.499 13.568 785.675 13.568ZM812.068 0.463997C812.964 0.463997 813.748 0.591997 814.42 0.847998C815.124 1.072 815.732 1.376 816.244 1.76C816.724 2.144 817.092 2.592 817.348 3.104C817.604 3.616 817.732 4.16 817.732 4.736C817.732 5.472 817.492 6.08 817.012 6.56C816.532 7.04 815.924 7.28 815.188 7.28C814.484 7.28 813.86 7.056 813.316 6.608C812.804 6.128 812.548 5.488 812.548 4.688C812.548 4.016 812.724 3.472 813.076 3.056C813.46 2.64 813.956 2.368 814.564 2.24C814.468 1.952 814.212 1.712 813.796 1.52C813.412 1.296 812.884 1.184 812.212 1.184C811.476 1.184 810.836 1.344 810.292 1.664C809.78 1.984 809.38 2.416 809.092 2.96C808.708 3.632 808.468 4.64 808.372 5.984C808.276 7.296 808.228 9.328 808.228 12.08V13.328H813.364V14.288H808.228V33.056C808.228 34.624 808.676 35.68 809.572 36.224C810.5 36.736 811.748 36.992 813.316 36.992V38C812.58 37.968 811.54 37.936 810.196 37.904C808.852 37.84 807.428 37.808 805.924 37.808C804.836 37.808 803.748 37.84 802.66 37.904C801.604 37.936 800.804 37.968 800.26 38V36.992C801.572 36.992 802.5 36.752 803.044 36.272C803.62 35.792 803.908 34.88 803.908 33.536V14.288H800.068V13.328H803.908C803.908 11.44 803.988 9.856 804.148 8.576C804.308 7.296 804.564 6.208 804.916 5.312C805.268 4.384 805.748 3.568 806.356 2.864C806.996 2.128 807.812 1.552 808.804 1.136C809.796 0.687998 810.884 0.463997 812.068 0.463997ZM168.261 70.608C170.309 70.608 172.149 71.056 173.781 71.952C175.413 72.848 176.709 74.256 177.669 76.176C178.661 78.096 179.157 80.592 179.157 83.664C179.157 86.736 178.661 89.232 177.669 91.152C176.709 93.04 175.413 94.432 173.781 95.328C172.149 96.224 170.309 96.672 168.261 96.672C166.245 96.672 164.405 96.224 162.741 95.328C161.109 94.432 159.797 93.04 158.805 91.152C157.845 89.232 157.365 86.736 157.365 83.664C157.365 80.592 157.845 78.096 158.805 76.176C159.797 74.256 161.109 72.848 162.741 71.952C164.405 71.056 166.245 70.608 168.261 70.608ZM168.261 71.568C166.437 71.568 164.933 72.512 163.749 74.4C162.597 76.288 162.021 79.376 162.021 83.664C162.021 87.952 162.597 91.04 163.749 92.928C164.933 94.784 166.437 95.712 168.261 95.712C170.085 95.712 171.573 94.784 172.725 92.928C173.909 91.04 174.501 87.952 174.501 83.664C174.501 79.376 173.909 76.288 172.725 74.4C171.573 72.512 170.085 71.568 168.261 71.568ZM197.726 70.608C198.59 70.608 199.342 70.784 199.982 71.136C200.654 71.488 201.166 71.952 201.518 72.528C201.902 73.072 202.094 73.696 202.094 74.4C202.094 75.2 201.838 75.904 201.326 76.512C200.846 77.12 200.19 77.424 199.358 77.424C198.686 77.424 198.094 77.216 197.582 76.8C197.07 76.352 196.814 75.728 196.814 74.928C196.814 74.32 196.974 73.808 197.294 73.392C197.646 72.944 198.03 72.592 198.446 72.336C198.222 72.016 197.886 71.856 197.438 71.856C196.446 71.856 195.534 72.16 194.702 72.768C193.87 73.344 193.166 74.096 192.59 75.024C192.014 75.952 191.566 76.944 191.246 78C190.926 79.024 190.766 79.984 190.766 80.88V91.056C190.766 92.624 191.214 93.68 192.11 94.224C193.038 94.736 194.286 94.992 195.854 94.992V96C195.118 95.968 194.078 95.936 192.734 95.904C191.39 95.84 189.966 95.808 188.462 95.808C187.374 95.808 186.286 95.84 185.198 95.904C184.142 95.936 183.342 95.968 182.798 96V94.992C184.11 94.992 185.038 94.752 185.582 94.272C186.158 93.792 186.446 92.88 186.446 91.536V76.512C186.446 75.072 186.19 74.016 185.678 73.344C185.166 72.64 184.206 72.288 182.798 72.288V71.28C183.822 71.376 184.814 71.424 185.774 71.424C186.702 71.424 187.582 71.376 188.414 71.28C189.278 71.152 190.062 70.976 190.766 70.752V76.752C191.118 75.824 191.614 74.896 192.254 73.968C192.926 73.008 193.726 72.208 194.654 71.568C195.582 70.928 196.606 70.608 197.726 70.608ZM213.005 105.024C211.309 105.024 209.709 104.848 208.205 104.496C206.701 104.144 205.485 103.584 204.557 102.816C203.661 102.08 203.213 101.136 203.213 99.984C203.213 98.864 203.661 97.904 204.557 97.104C205.453 96.304 206.669 95.696 208.205 95.28L208.493 96.048C207.789 96.272 207.229 96.72 206.813 97.392C206.397 98.064 206.189 98.816 206.189 99.648C206.189 101.12 206.861 102.24 208.205 103.008C209.581 103.808 211.357 104.208 213.533 104.208C214.973 104.208 216.381 104.016 217.757 103.632C219.133 103.28 220.269 102.672 221.165 101.808C222.061 100.944 222.509 99.808 222.509 98.4C222.509 97.344 222.125 96.48 221.357 95.808C220.621 95.104 219.149 94.752 216.941 94.752H213.389C212.365 94.752 211.373 94.672 210.413 94.512C209.453 94.352 208.669 94.016 208.061 93.504C207.453 92.992 207.149 92.208 207.149 91.152C207.149 90.064 207.597 89.024 208.493 88.032C209.389 87.008 211.037 85.968 213.437 84.912L214.013 85.344C212.925 85.92 211.981 86.512 211.181 87.12C210.381 87.696 209.981 88.384 209.981 89.184C209.981 90.208 210.749 90.72 212.285 90.72H218.285C219.629 90.72 220.861 90.912 221.981 91.296C223.133 91.68 224.061 92.288 224.765 93.12C225.469 93.952 225.821 95.04 225.821 96.384C225.821 97.888 225.341 99.296 224.381 100.608C223.421 101.92 221.981 102.976 220.061 103.776C218.173 104.608 215.821 105.024 213.005 105.024ZM213.245 85.776C211.677 85.776 210.253 85.52 208.973 85.008C207.693 84.464 206.685 83.632 205.949 82.512C205.213 81.392 204.845 79.952 204.845 78.192C204.845 76.432 205.213 74.992 205.949 73.872C206.685 72.752 207.693 71.936 208.973 71.424C210.253 70.88 211.677 70.608 213.245 70.608C214.845 70.608 216.269 70.88 217.517 71.424C218.797 71.936 219.805 72.752 220.541 73.872C221.277 74.992 221.645 76.432 221.645 78.192C221.645 79.952 221.277 81.392 220.541 82.512C219.805 83.632 218.797 84.464 217.517 85.008C216.269 85.52 214.845 85.776 213.245 85.776ZM213.245 84.912C214.461 84.912 215.405 84.432 216.077 83.472C216.781 82.512 217.133 80.752 217.133 78.192C217.133 75.632 216.781 73.872 216.077 72.912C215.405 71.952 214.461 71.472 213.245 71.472C212.061 71.472 211.117 71.952 210.413 72.912C209.709 73.872 209.357 75.632 209.357 78.192C209.357 80.752 209.709 82.512 210.413 83.472C211.117 84.432 212.061 84.912 213.245 84.912ZM220.157 74.592L219.293 74.256C219.741 73.168 220.509 72.208 221.597 71.376C222.685 70.544 223.821 70.128 225.005 70.128C225.837 70.128 226.509 70.368 227.021 70.848C227.533 71.296 227.789 71.984 227.789 72.912C227.789 73.904 227.517 74.608 226.973 75.024C226.461 75.408 225.933 75.6 225.389 75.6C224.909 75.6 224.461 75.44 224.045 75.12C223.629 74.768 223.389 74.224 223.325 73.488C223.261 72.752 223.485 71.808 223.997 70.656L224.621 70.8C223.277 71.312 222.317 71.856 221.741 72.432C221.165 72.976 220.637 73.696 220.157 74.592ZM235.88 96.336C234.568 96.336 233.432 96.096 232.472 95.616C231.512 95.104 230.776 94.4 230.264 93.504C229.784 92.608 229.544 91.568 229.544 90.384C229.544 88.976 229.864 87.824 230.504 86.928C231.176 86.032 232.024 85.312 233.048 84.768C234.072 84.224 235.144 83.776 236.264 83.424C237.416 83.04 238.504 82.688 239.528 82.368C240.552 82.016 241.384 81.616 242.024 81.168C242.696 80.72 243.032 80.128 243.032 79.392V76.416C243.032 75.072 242.824 74.048 242.408 73.344C242.024 72.64 241.496 72.176 240.824 71.952C240.152 71.696 239.4 71.568 238.568 71.568C237.768 71.568 236.904 71.68 235.976 71.904C235.08 72.128 234.36 72.592 233.816 73.296C234.424 73.424 234.952 73.744 235.4 74.256C235.848 74.768 236.072 75.424 236.072 76.224C236.072 77.024 235.816 77.664 235.304 78.144C234.792 78.592 234.136 78.816 233.336 78.816C232.408 78.816 231.72 78.528 231.272 77.952C230.856 77.344 230.648 76.672 230.648 75.936C230.648 75.104 230.856 74.432 231.272 73.92C231.688 73.408 232.216 72.928 232.856 72.48C233.592 71.968 234.536 71.536 235.688 71.184C236.872 70.8 238.2 70.608 239.672 70.608C240.984 70.608 242.104 70.768 243.032 71.088C243.96 71.376 244.728 71.808 245.336 72.384C246.168 73.152 246.712 74.096 246.968 75.216C247.224 76.304 247.352 77.616 247.352 79.152V92.496C247.352 93.296 247.464 93.872 247.688 94.224C247.944 94.576 248.328 94.752 248.84 94.752C249.192 94.752 249.528 94.672 249.848 94.512C250.168 94.352 250.552 94.096 251 93.744L251.528 94.56C250.856 95.072 250.216 95.504 249.608 95.856C249 96.176 248.184 96.336 247.16 96.336C246.232 96.336 245.464 96.176 244.856 95.856C244.248 95.536 243.784 95.072 243.464 94.464C243.176 93.824 243.032 93.024 243.032 92.064C242.168 93.504 241.128 94.576 239.912 95.28C238.728 95.984 237.384 96.336 235.88 96.336ZM237.608 94.416C238.664 94.416 239.64 94.112 240.536 93.504C241.464 92.896 242.296 91.984 243.032 90.768V81.36C242.648 81.904 242.088 82.368 241.352 82.752C240.616 83.104 239.816 83.472 238.952 83.856C238.088 84.208 237.256 84.64 236.456 85.152C235.688 85.632 235.048 86.272 234.536 87.072C234.024 87.872 233.768 88.912 233.768 90.192C233.768 91.472 234.104 92.496 234.776 93.264C235.48 94.032 236.424 94.416 237.608 94.416ZM269.098 70.608C270.314 70.608 271.322 70.768 272.122 71.088C272.954 71.408 273.642 71.856 274.186 72.432C274.794 73.072 275.226 73.872 275.482 74.832C275.738 75.792 275.866 77.088 275.866 78.72V91.536C275.866 92.88 276.138 93.792 276.682 94.272C277.258 94.752 278.202 94.992 279.514 94.992V96C278.97 95.968 278.138 95.936 277.018 95.904C275.898 95.84 274.81 95.808 273.754 95.808C272.698 95.808 271.658 95.84 270.634 95.904C269.642 95.936 268.89 95.968 268.378 96V94.992C269.53 94.992 270.346 94.752 270.826 94.272C271.306 93.792 271.546 92.88 271.546 91.536V77.664C271.546 76.672 271.466 75.76 271.306 74.928C271.146 74.096 270.778 73.424 270.202 72.912C269.658 72.4 268.81 72.144 267.658 72.144C266.314 72.144 265.13 72.528 264.106 73.296C263.114 74.064 262.33 75.12 261.754 76.464C261.21 77.776 260.938 79.248 260.938 80.88V91.536C260.938 92.88 261.178 93.792 261.658 94.272C262.138 94.752 262.954 94.992 264.106 94.992V96C263.594 95.968 262.826 95.936 261.802 95.904C260.81 95.84 259.786 95.808 258.73 95.808C257.674 95.808 256.586 95.84 255.466 95.904C254.346 95.936 253.514 95.968 252.97 96V94.992C254.282 94.992 255.21 94.752 255.754 94.272C256.33 93.792 256.618 92.88 256.618 91.536V76.512C256.618 75.072 256.362 74.016 255.85 73.344C255.338 72.64 254.378 72.288 252.97 72.288V71.28C253.994 71.376 254.986 71.424 255.946 71.424C256.874 71.424 257.754 71.376 258.586 71.28C259.45 71.152 260.234 70.976 260.938 70.752V76.416C261.77 74.24 262.922 72.736 264.394 71.904C265.898 71.04 267.466 70.608 269.098 70.608ZM287.083 59.28C287.915 59.28 288.635 59.584 289.243 60.192C289.851 60.8 290.155 61.52 290.155 62.352C290.155 63.184 289.851 63.904 289.243 64.512C288.635 65.12 287.915 65.424 287.083 65.424C286.251 65.424 285.531 65.12 284.923 64.512C284.315 63.904 284.011 63.184 284.011 62.352C284.011 61.52 284.315 60.8 284.923 60.192C285.531 59.584 286.251 59.28 287.083 59.28ZM289.579 70.752V91.536C289.579 92.88 289.851 93.792 290.395 94.272C290.971 94.752 291.915 94.992 293.227 94.992V96C292.683 95.968 291.851 95.936 290.731 95.904C289.643 95.84 288.539 95.808 287.419 95.808C286.331 95.808 285.227 95.84 284.107 95.904C282.987 95.936 282.155 95.968 281.611 96V94.992C282.923 94.992 283.851 94.752 284.395 94.272C284.971 93.792 285.259 92.88 285.259 91.536V76.512C285.259 75.072 285.003 74.016 284.491 73.344C283.979 72.64 283.019 72.288 281.611 72.288V71.28C282.635 71.376 283.627 71.424 284.587 71.424C285.515 71.424 286.395 71.376 287.227 71.28C288.091 71.152 288.875 70.976 289.579 70.752ZM307.673 70.608C308.697 70.608 309.689 70.736 310.649 70.992C311.609 71.248 312.473 71.632 313.241 72.144C313.977 72.624 314.537 73.184 314.921 73.824C315.305 74.432 315.497 75.104 315.497 75.84C315.497 76.704 315.257 77.376 314.777 77.856C314.297 78.304 313.689 78.528 312.953 78.528C312.249 78.528 311.625 78.32 311.081 77.904C310.569 77.488 310.313 76.896 310.313 76.128C310.313 75.392 310.505 74.8 310.889 74.352C311.305 73.904 311.785 73.616 312.329 73.488C312.009 72.912 311.433 72.432 310.601 72.048C309.801 71.664 308.937 71.472 308.009 71.472C307.209 71.472 306.409 71.664 305.609 72.048C304.809 72.432 304.073 73.072 303.401 73.968C302.729 74.832 302.185 76.032 301.769 77.568C301.353 79.072 301.145 80.96 301.145 83.232C301.145 86.048 301.465 88.288 302.105 89.952C302.745 91.616 303.577 92.816 304.601 93.552C305.657 94.256 306.809 94.608 308.057 94.608C308.889 94.608 309.737 94.448 310.601 94.128C311.465 93.808 312.281 93.296 313.049 92.592C313.817 91.856 314.473 90.88 315.017 89.664L315.929 90C315.609 91.024 315.081 92.064 314.345 93.12C313.609 94.144 312.649 94.992 311.465 95.664C310.281 96.336 308.825 96.672 307.097 96.672C305.113 96.672 303.321 96.16 301.721 95.136C300.121 94.112 298.841 92.656 297.881 90.768C296.953 88.848 296.489 86.576 296.489 83.952C296.489 81.328 296.953 79.024 297.881 77.04C298.841 75.024 300.169 73.456 301.865 72.336C303.561 71.184 305.497 70.608 307.673 70.608ZM325.833 96.336C324.521 96.336 323.385 96.096 322.425 95.616C321.465 95.104 320.729 94.4 320.217 93.504C319.737 92.608 319.497 91.568 319.497 90.384C319.497 88.976 319.817 87.824 320.457 86.928C321.129 86.032 321.977 85.312 323.001 84.768C324.025 84.224 325.097 83.776 326.217 83.424C327.369 83.04 328.457 82.688 329.481 82.368C330.505 82.016 331.337 81.616 331.977 81.168C332.649 80.72 332.985 80.128 332.985 79.392V76.416C332.985 75.072 332.777 74.048 332.361 73.344C331.977 72.64 331.449 72.176 330.777 71.952C330.105 71.696 329.353 71.568 328.521 71.568C327.721 71.568 326.857 71.68 325.929 71.904C325.033 72.128 324.313 72.592 323.769 73.296C324.377 73.424 324.905 73.744 325.353 74.256C325.801 74.768 326.025 75.424 326.025 76.224C326.025 77.024 325.769 77.664 325.257 78.144C324.745 78.592 324.089 78.816 323.289 78.816C322.361 78.816 321.673 78.528 321.225 77.952C320.809 77.344 320.601 76.672 320.601 75.936C320.601 75.104 320.809 74.432 321.225 73.92C321.641 73.408 322.169 72.928 322.809 72.48C323.545 71.968 324.489 71.536 325.641 71.184C326.825 70.8 328.153 70.608 329.625 70.608C330.937 70.608 332.057 70.768 332.985 71.088C333.913 71.376 334.681 71.808 335.289 72.384C336.121 73.152 336.665 74.096 336.921 75.216C337.177 76.304 337.305 77.616 337.305 79.152V92.496C337.305 93.296 337.417 93.872 337.641 94.224C337.897 94.576 338.281 94.752 338.793 94.752C339.145 94.752 339.481 94.672 339.801 94.512C340.121 94.352 340.505 94.096 340.953 93.744L341.481 94.56C340.809 95.072 340.169 95.504 339.561 95.856C338.953 96.176 338.137 96.336 337.113 96.336C336.185 96.336 335.417 96.176 334.809 95.856C334.201 95.536 333.737 95.072 333.417 94.464C333.129 93.824 332.985 93.024 332.985 92.064C332.121 93.504 331.081 94.576 329.865 95.28C328.681 95.984 327.337 96.336 325.833 96.336ZM327.561 94.416C328.617 94.416 329.593 94.112 330.489 93.504C331.417 92.896 332.249 91.984 332.985 90.768V81.36C332.601 81.904 332.041 82.368 331.305 82.752C330.569 83.104 329.769 83.472 328.905 83.856C328.041 84.208 327.209 84.64 326.409 85.152C325.641 85.632 325.001 86.272 324.489 87.072C323.977 87.872 323.721 88.912 323.721 90.192C323.721 91.472 324.057 92.496 324.729 93.264C325.433 94.032 326.377 94.416 327.561 94.416ZM350.555 58.368V91.536C350.555 92.88 350.827 93.792 351.371 94.272C351.947 94.752 352.891 94.992 354.203 94.992V96C353.659 95.968 352.827 95.936 351.707 95.904C350.619 95.84 349.515 95.808 348.395 95.808C347.307 95.808 346.203 95.84 345.083 95.904C343.963 95.936 343.131 95.968 342.587 96V94.992C343.899 94.992 344.827 94.752 345.371 94.272C345.947 93.792 346.235 92.88 346.235 91.536V64.128C346.235 62.688 345.979 61.632 345.467 60.96C344.955 60.256 343.995 59.904 342.587 59.904V58.896C343.611 58.992 344.603 59.04 345.563 59.04C346.491 59.04 347.371 58.992 348.203 58.896C349.067 58.768 349.851 58.592 350.555 58.368ZM364.29 58.368V91.536C364.29 92.88 364.562 93.792 365.106 94.272C365.682 94.752 366.626 94.992 367.938 94.992V96C367.394 95.968 366.562 95.936 365.442 95.904C364.354 95.84 363.25 95.808 362.13 95.808C361.042 95.808 359.938 95.84 358.818 95.904C357.698 95.936 356.866 95.968 356.322 96V94.992C357.634 94.992 358.562 94.752 359.106 94.272C359.682 93.792 359.97 92.88 359.97 91.536V64.128C359.97 62.688 359.714 61.632 359.202 60.96C358.69 60.256 357.73 59.904 356.322 59.904V58.896C357.346 58.992 358.338 59.04 359.298 59.04C360.226 59.04 361.106 58.992 361.938 58.896C362.802 58.768 363.586 58.592 364.29 58.368ZM392.712 71.28V72.24C392.104 72.304 391.544 72.576 391.032 73.056C390.52 73.536 390.04 74.384 389.592 75.6L381.72 96.24H380.904L372.072 74.976C371.464 73.728 370.856 72.976 370.248 72.72C369.672 72.432 369.192 72.288 368.808 72.288V71.28C369.512 71.376 370.248 71.456 371.016 71.52C371.784 71.552 372.616 71.568 373.512 71.568C374.504 71.568 375.544 71.536 376.632 71.472C377.752 71.408 378.792 71.344 379.752 71.28V72.288C378.952 72.288 378.232 72.352 377.592 72.48C376.984 72.576 376.6 72.912 376.44 73.488C376.28 74.032 376.472 74.976 377.016 76.32L382.92 90.96L382.632 91.056L388.104 76.752C388.52 75.696 388.68 74.864 388.584 74.256C388.52 73.616 388.2 73.136 387.624 72.816C387.048 72.496 386.184 72.304 385.032 72.24V71.28C385.608 71.312 386.104 71.344 386.52 71.376C386.936 71.376 387.336 71.392 387.72 71.424C388.136 71.424 388.584 71.424 389.064 71.424C389.8 71.424 390.456 71.408 391.032 71.376C391.64 71.344 392.2 71.312 392.712 71.28ZM381.72 96.24L380.088 100.416C379.768 101.216 379.432 101.888 379.08 102.432C378.76 102.976 378.408 103.424 378.024 103.776C377.512 104.256 376.904 104.576 376.2 104.736C375.496 104.928 374.856 105.024 374.28 105.024C373.672 105.024 373.112 104.912 372.6 104.688C372.12 104.464 371.736 104.128 371.448 103.68C371.16 103.264 371.016 102.752 371.016 102.144C371.016 101.376 371.24 100.752 371.688 100.272C372.136 99.824 372.76 99.6 373.56 99.6C374.232 99.6 374.808 99.792 375.288 100.176C375.768 100.56 376.008 101.12 376.008 101.856C376.008 102.4 375.88 102.848 375.624 103.2C375.368 103.552 375.064 103.824 374.712 104.016C374.776 104.048 374.824 104.064 374.856 104.064C374.92 104.064 374.968 104.064 375 104.064C375.864 104.064 376.632 103.76 377.304 103.152C377.976 102.576 378.568 101.632 379.08 100.32L380.808 95.856L381.72 96.24ZM414.099 105.024C412.403 105.024 410.803 104.848 409.299 104.496C407.795 104.144 406.579 103.584 405.651 102.816C404.755 102.08 404.307 101.136 404.307 99.984C404.307 98.864 404.755 97.904 405.651 97.104C406.547 96.304 407.763 95.696 409.299 95.28L409.587 96.048C408.883 96.272 408.323 96.72 407.907 97.392C407.491 98.064 407.283 98.816 407.283 99.648C407.283 101.12 407.955 102.24 409.299 103.008C410.675 103.808 412.451 104.208 414.627 104.208C416.067 104.208 417.475 104.016 418.851 103.632C420.227 103.28 421.363 102.672 422.259 101.808C423.155 100.944 423.603 99.808 423.603 98.4C423.603 97.344 423.219 96.48 422.451 95.808C421.715 95.104 420.243 94.752 418.035 94.752H414.483C413.459 94.752 412.467 94.672 411.507 94.512C410.547 94.352 409.763 94.016 409.155 93.504C408.547 92.992 408.243 92.208 408.243 91.152C408.243 90.064 408.691 89.024 409.587 88.032C410.483 87.008 412.131 85.968 414.531 84.912L415.107 85.344C414.019 85.92 413.075 86.512 412.275 87.12C411.475 87.696 411.075 88.384 411.075 89.184C411.075 90.208 411.843 90.72 413.379 90.72H419.379C420.723 90.72 421.955 90.912 423.075 91.296C424.227 91.68 425.155 92.288 425.859 93.12C426.563 93.952 426.915 95.04 426.915 96.384C426.915 97.888 426.435 99.296 425.475 100.608C424.515 101.92 423.075 102.976 421.155 103.776C419.267 104.608 416.915 105.024 414.099 105.024ZM414.339 85.776C412.771 85.776 411.347 85.52 410.067 85.008C408.787 84.464 407.779 83.632 407.043 82.512C406.307 81.392 405.939 79.952 405.939 78.192C405.939 76.432 406.307 74.992 407.043 73.872C407.779 72.752 408.787 71.936 410.067 71.424C411.347 70.88 412.771 70.608 414.339 70.608C415.939 70.608 417.363 70.88 418.611 71.424C419.891 71.936 420.899 72.752 421.635 73.872C422.371 74.992 422.739 76.432 422.739 78.192C422.739 79.952 422.371 81.392 421.635 82.512C420.899 83.632 419.891 84.464 418.611 85.008C417.363 85.52 415.939 85.776 414.339 85.776ZM414.339 84.912C415.555 84.912 416.499 84.432 417.171 83.472C417.875 82.512 418.227 80.752 418.227 78.192C418.227 75.632 417.875 73.872 417.171 72.912C416.499 71.952 415.555 71.472 414.339 71.472C413.155 71.472 412.211 71.952 411.507 72.912C410.803 73.872 410.451 75.632 410.451 78.192C410.451 80.752 410.803 82.512 411.507 83.472C412.211 84.432 413.155 84.912 414.339 84.912ZM421.251 74.592L420.387 74.256C420.835 73.168 421.603 72.208 422.691 71.376C423.779 70.544 424.915 70.128 426.099 70.128C426.931 70.128 427.603 70.368 428.115 70.848C428.627 71.296 428.883 71.984 428.883 72.912C428.883 73.904 428.611 74.608 428.067 75.024C427.555 75.408 427.027 75.6 426.483 75.6C426.003 75.6 425.555 75.44 425.139 75.12C424.723 74.768 424.483 74.224 424.419 73.488C424.355 72.752 424.579 71.808 425.091 70.656L425.715 70.8C424.371 71.312 423.411 71.856 422.835 72.432C422.259 72.976 421.731 73.696 421.251 74.592ZM445.554 70.608C446.418 70.608 447.17 70.784 447.81 71.136C448.482 71.488 448.994 71.952 449.346 72.528C449.73 73.072 449.922 73.696 449.922 74.4C449.922 75.2 449.666 75.904 449.154 76.512C448.674 77.12 448.018 77.424 447.186 77.424C446.514 77.424 445.922 77.216 445.41 76.8C444.898 76.352 444.642 75.728 444.642 74.928C444.642 74.32 444.802 73.808 445.122 73.392C445.474 72.944 445.858 72.592 446.274 72.336C446.05 72.016 445.714 71.856 445.266 71.856C444.274 71.856 443.362 72.16 442.53 72.768C441.698 73.344 440.994 74.096 440.418 75.024C439.842 75.952 439.394 76.944 439.074 78C438.754 79.024 438.594 79.984 438.594 80.88V91.056C438.594 92.624 439.042 93.68 439.938 94.224C440.866 94.736 442.114 94.992 443.682 94.992V96C442.946 95.968 441.906 95.936 440.562 95.904C439.218 95.84 437.794 95.808 436.29 95.808C435.202 95.808 434.114 95.84 433.026 95.904C431.97 95.936 431.17 95.968 430.626 96V94.992C431.938 94.992 432.866 94.752 433.41 94.272C433.986 93.792 434.274 92.88 434.274 91.536V76.512C434.274 75.072 434.018 74.016 433.506 73.344C432.994 72.64 432.034 72.288 430.626 72.288V71.28C431.65 71.376 432.642 71.424 433.602 71.424C434.53 71.424 435.41 71.376 436.242 71.28C437.106 71.152 437.89 70.976 438.594 70.752V76.752C438.946 75.824 439.442 74.896 440.082 73.968C440.754 73.008 441.554 72.208 442.482 71.568C443.41 70.928 444.434 70.608 445.554 70.608ZM462.824 70.608C464.872 70.608 466.712 71.056 468.344 71.952C469.976 72.848 471.272 74.256 472.232 76.176C473.224 78.096 473.72 80.592 473.72 83.664C473.72 86.736 473.224 89.232 472.232 91.152C471.272 93.04 469.976 94.432 468.344 95.328C466.712 96.224 464.872 96.672 462.824 96.672C460.808 96.672 458.968 96.224 457.304 95.328C455.672 94.432 454.36 93.04 453.368 91.152C452.408 89.232 451.928 86.736 451.928 83.664C451.928 80.592 452.408 78.096 453.368 76.176C454.36 74.256 455.672 72.848 457.304 71.952C458.968 71.056 460.808 70.608 462.824 70.608ZM462.824 71.568C461 71.568 459.496 72.512 458.312 74.4C457.16 76.288 456.584 79.376 456.584 83.664C456.584 87.952 457.16 91.04 458.312 92.928C459.496 94.784 461 95.712 462.824 95.712C464.648 95.712 466.136 94.784 467.288 92.928C468.472 91.04 469.064 87.952 469.064 83.664C469.064 79.376 468.472 76.288 467.288 74.4C466.136 72.512 464.648 71.568 462.824 71.568ZM486.105 71.28V72.288C485.305 72.288 484.601 72.352 483.993 72.48C483.385 72.576 482.985 72.896 482.793 73.44C482.601 73.984 482.745 74.944 483.225 76.32L488.217 90.624L487.881 90.576L494.937 71.088L495.897 71.472L487.113 96.24C486.985 96.24 486.857 96.24 486.729 96.24C486.601 96.24 486.457 96.24 486.297 96.24L478.425 74.976C477.913 73.696 477.401 72.928 476.889 72.672C476.409 72.416 475.993 72.288 475.641 72.288V71.28C476.281 71.376 476.937 71.456 477.609 71.52C478.313 71.552 479.065 71.568 479.865 71.568C480.857 71.568 481.897 71.536 482.985 71.472C484.105 71.408 485.145 71.344 486.105 71.28ZM512.457 71.28V72.24C511.849 72.304 511.273 72.576 510.729 73.056C510.217 73.504 509.753 74.352 509.337 75.6L502.377 96.24C502.249 96.24 502.121 96.24 501.993 96.24C501.865 96.24 501.721 96.24 501.561 96.24L493.833 76.608L494.937 71.088C495.129 71.088 495.305 71.088 495.465 71.088C495.657 71.088 495.849 71.088 496.041 71.088L503.529 90.912L503.145 91.2L507.897 76.752C508.249 75.664 508.377 74.816 508.281 74.208C508.217 73.568 507.897 73.104 507.321 72.816C506.777 72.496 505.929 72.304 504.777 72.24V71.28C505.353 71.312 505.849 71.344 506.265 71.376C506.681 71.376 507.081 71.392 507.465 71.424C507.881 71.424 508.329 71.424 508.809 71.424C509.545 71.424 510.201 71.408 510.777 71.376C511.385 71.344 511.945 71.312 512.457 71.28ZM530.098 70.608C531.314 70.608 532.322 70.768 533.122 71.088C533.954 71.408 534.642 71.856 535.186 72.432C535.794 73.072 536.226 73.872 536.482 74.832C536.738 75.792 536.866 77.088 536.866 78.72V91.536C536.866 92.88 537.138 93.792 537.682 94.272C538.258 94.752 539.202 94.992 540.514 94.992V96C539.97 95.968 539.138 95.936 538.018 95.904C536.898 95.84 535.81 95.808 534.754 95.808C533.698 95.808 532.658 95.84 531.634 95.904C530.642 95.936 529.89 95.968 529.378 96V94.992C530.53 94.992 531.346 94.752 531.826 94.272C532.306 93.792 532.546 92.88 532.546 91.536V77.664C532.546 76.672 532.466 75.76 532.306 74.928C532.146 74.096 531.778 73.424 531.202 72.912C530.658 72.4 529.81 72.144 528.658 72.144C527.314 72.144 526.13 72.528 525.106 73.296C524.114 74.064 523.33 75.12 522.754 76.464C522.21 77.776 521.938 79.248 521.938 80.88V91.536C521.938 92.88 522.178 93.792 522.658 94.272C523.138 94.752 523.954 94.992 525.106 94.992V96C524.594 95.968 523.826 95.936 522.802 95.904C521.81 95.84 520.786 95.808 519.73 95.808C518.674 95.808 517.586 95.84 516.466 95.904C515.346 95.936 514.514 95.968 513.97 96V94.992C515.282 94.992 516.21 94.752 516.754 94.272C517.33 93.792 517.618 92.88 517.618 91.536V76.512C517.618 75.072 517.362 74.016 516.85 73.344C516.338 72.64 515.378 72.288 513.97 72.288V71.28C514.994 71.376 515.986 71.424 516.946 71.424C517.874 71.424 518.754 71.376 519.586 71.28C520.45 71.152 521.234 70.976 521.938 70.752V76.416C522.77 74.24 523.922 72.736 525.394 71.904C526.898 71.04 528.466 70.608 530.098 70.608ZM566.42 58.464C567.316 58.464 568.1 58.592 568.772 58.848C569.476 59.072 570.084 59.376 570.596 59.76C571.076 60.144 571.444 60.592 571.7 61.104C571.956 61.616 572.084 62.16 572.084 62.736C572.084 63.472 571.844 64.08 571.364 64.56C570.884 65.04 570.276 65.28 569.54 65.28C568.836 65.28 568.212 65.056 567.668 64.608C567.156 64.128 566.9 63.488 566.9 62.688C566.9 62.016 567.076 61.472 567.428 61.056C567.812 60.64 568.308 60.368 568.916 60.24C568.82 59.952 568.564 59.712 568.148 59.52C567.764 59.296 567.236 59.184 566.564 59.184C565.828 59.184 565.188 59.344 564.644 59.664C564.132 59.984 563.732 60.416 563.444 60.96C563.06 61.632 562.82 62.64 562.724 63.984C562.628 65.296 562.58 67.328 562.58 70.08V71.328H567.716V72.288H562.58V91.056C562.58 92.624 563.028 93.68 563.924 94.224C564.852 94.736 566.1 94.992 567.668 94.992V96C566.932 95.968 565.892 95.936 564.548 95.904C563.204 95.84 561.78 95.808 560.276 95.808C559.188 95.808 558.1 95.84 557.012 95.904C555.956 95.936 555.156 95.968 554.612 96V94.992C555.924 94.992 556.852 94.752 557.396 94.272C557.972 93.792 558.26 92.88 558.26 91.536V72.288H554.42V71.328H558.26C558.26 69.44 558.34 67.856 558.5 66.576C558.66 65.296 558.916 64.208 559.268 63.312C559.62 62.384 560.1 61.568 560.708 60.864C561.348 60.128 562.164 59.552 563.156 59.136C564.148 58.688 565.236 58.464 566.42 58.464ZM581.465 70.608C583.513 70.608 585.353 71.056 586.985 71.952C588.617 72.848 589.913 74.256 590.873 76.176C591.865 78.096 592.361 80.592 592.361 83.664C592.361 86.736 591.865 89.232 590.873 91.152C589.913 93.04 588.617 94.432 586.985 95.328C585.353 96.224 583.513 96.672 581.465 96.672C579.449 96.672 577.609 96.224 575.945 95.328C574.313 94.432 573.001 93.04 572.009 91.152C571.049 89.232 570.569 86.736 570.569 83.664C570.569 80.592 571.049 78.096 572.009 76.176C573.001 74.256 574.313 72.848 575.945 71.952C577.609 71.056 579.449 70.608 581.465 70.608ZM581.465 71.568C579.641 71.568 578.137 72.512 576.953 74.4C575.801 76.288 575.225 79.376 575.225 83.664C575.225 87.952 575.801 91.04 576.953 92.928C578.137 94.784 579.641 95.712 581.465 95.712C583.289 95.712 584.777 94.784 585.929 92.928C587.113 91.04 587.705 87.952 587.705 83.664C587.705 79.376 587.113 76.288 585.929 74.4C584.777 72.512 583.289 71.568 581.465 71.568ZM607.761 70.608C609.809 70.608 611.649 71.056 613.281 71.952C614.913 72.848 616.209 74.256 617.169 76.176C618.161 78.096 618.657 80.592 618.657 83.664C618.657 86.736 618.161 89.232 617.169 91.152C616.209 93.04 614.913 94.432 613.281 95.328C611.649 96.224 609.809 96.672 607.761 96.672C605.745 96.672 603.905 96.224 602.241 95.328C600.609 94.432 599.297 93.04 598.305 91.152C597.345 89.232 596.865 86.736 596.865 83.664C596.865 80.592 597.345 78.096 598.305 76.176C599.297 74.256 600.609 72.848 602.241 71.952C603.905 71.056 605.745 70.608 607.761 70.608ZM607.761 71.568C605.937 71.568 604.433 72.512 603.249 74.4C602.097 76.288 601.521 79.376 601.521 83.664C601.521 87.952 602.097 91.04 603.249 92.928C604.433 94.784 605.937 95.712 607.761 95.712C609.585 95.712 611.073 94.784 612.225 92.928C613.409 91.04 614.001 87.952 614.001 83.664C614.001 79.376 613.409 76.288 612.225 74.4C611.073 72.512 609.585 71.568 607.761 71.568ZM644.138 58.368V90.768C644.138 92.208 644.394 93.28 644.906 93.984C645.45 94.656 646.41 94.992 647.786 94.992V96C646.794 95.904 645.802 95.856 644.81 95.856C643.882 95.856 642.986 95.904 642.122 96C641.29 96.096 640.522 96.272 639.818 96.528V64.128C639.818 62.688 639.562 61.632 639.05 60.96C638.538 60.256 637.578 59.904 636.17 59.904V58.896C637.194 58.992 638.186 59.04 639.146 59.04C640.074 59.04 640.954 58.992 641.786 58.896C642.65 58.768 643.434 58.592 644.138 58.368ZM634.058 70.608C635.466 70.608 636.778 70.944 637.994 71.616C639.242 72.288 640.074 73.44 640.49 75.072L639.866 75.552C639.418 74.208 638.714 73.232 637.754 72.624C636.826 72.016 635.722 71.712 634.442 71.712C632.554 71.712 630.97 72.688 629.69 74.64C628.442 76.592 627.834 79.6 627.866 83.664C627.866 86.256 628.106 88.416 628.586 90.144C629.098 91.84 629.834 93.12 630.794 93.984C631.786 94.816 632.986 95.232 634.394 95.232C635.738 95.232 636.954 94.656 638.042 93.504C639.13 92.352 639.786 90.656 640.01 88.416L640.586 89.088C640.33 91.52 639.546 93.392 638.234 94.704C636.954 96.016 635.21 96.672 633.002 96.672C631.018 96.672 629.274 96.192 627.77 95.232C626.298 94.272 625.162 92.832 624.362 90.912C623.594 88.992 623.21 86.576 623.21 83.664C623.21 80.752 623.706 78.336 624.698 76.416C625.722 74.464 627.05 73.008 628.682 72.048C630.346 71.088 632.138 70.608 634.058 70.608ZM654.845 90.528C655.677 90.528 656.397 90.832 657.005 91.44C657.613 92.048 657.917 92.768 657.917 93.6C657.917 94.432 657.613 95.152 657.005 95.76C656.397 96.368 655.677 96.672 654.845 96.672C654.013 96.672 653.293 96.368 652.685 95.76C652.077 95.152 651.773 94.432 651.773 93.6C651.773 92.768 652.077 92.048 652.685 91.44C653.293 90.832 654.013 90.528 654.845 90.528Z" fill="#282A3A"/>
</svg>
